<?xml version="1.0" encoding="utf-8"?>
<!-- Generator: Adobe Illustrator 25.4.8, SVG Export Plug-In . SVG Version: 6.00 Build 0)  -->
<svg version="1.1" id="Ebene_1" xmlns="http://www.w3.org/2000/svg" xmlns:xlink="http://www.w3.org/1999/xlink" x="0px" y="0px"
	 viewBox="0 0 830 700" style="enable-background:new 0 0 830 700;" xml:space="preserve">
<style type="text/css">
	.st0{fill:#FF5850;}
	.st1{enable-background:new    ;}
	.st2{fill:#0D0D2D;}
	.st3{fill:none;}
</style>
<path class="st0" d="M520.8,551.6c27.3,0.8,47.5-0.3,71,0c5.9,0.1,11.7-0.2,17.5-1.1c5.3-0.9,11.9-2.3,14.7-7.3
	c1.4-2.4,1.3-5.3,1.4-8c0.1-3.1,0.2-6.2,0.2-9.4c0.1-5.9,0.2-11.8,0.2-17.7c0-10.7-0.2-21.4,0.2-32.1c0.2-5,0.3-10,0.1-15
	c-0.2-4.6-0.5-9.6-2-14c-5.2-15.4-23.1-15.6-36.6-15.1c-10.1,0.3-20.2-0.3-30.4-0.4c-13.5-0.1-27,0.3-40.5,1.2c-3.3,0-5.9,2.7-6,5.9
	c0,3.1,2.7,6.1,6,6l0,0c11.1-0.2,20,0.6,31.2,0.5c10.2-0.1,22.8-1.2,33-1.1c6,0,12-0.5,18-0.2l2.2,0.2c0.2,0,1.3,0.1,0.6,0
	s0.4,0.1,0.5,0.1c1.5,0.2,2.9,0.6,4.3,1c0.3,0.1,2.1,0.8,0.9,0.3c0.6,0.3,1.2,0.6,1.7,0.9c0.3,0.1,0.5,0.4,0.8,0.5
	c1.3,0.7-0.5-0.5,0.1,0.1c0.7,0.6,1,1,1.5,1.5c-0.9-0.9,0.2,0.4,0.5,0.8c0.2,0.4,0.3,0.6,0.5,0.9c-0.5-1-0.1-0.2,0,0
	c0.5,1.7,0.9,3.4,1.2,5.1c0.6,4.6,0.7,9.2,0.6,13.8c-0.1,9.5-0.5,18.9-0.4,28.4c0.1,11,0,22-0.3,33c0,0.6-0.3,7.6-0.2,7.6
	c-0.4,0,2.2-1.1,0.1-0.7c-1,0.3-2.3,0.8-3.4,1c-4.8,1.1-9.7,1.6-14.7,1.5c-24.7,0.2-52.3,1.2-77,0.3"/>
<path class="st0" d="M518.5,540c-11.2,0.7-216.7,0.8-227.9,0.9c-10.2,0.1-20.4-0.5-30.6-0.5c-6,0-12,0.5-18,0.2l-2.2-0.2
	c-0.2,0-1.3-0.1-0.6,0s-0.4-0.1-0.5-0.1c-1.5-0.2-2.9-0.6-4.3-1c-0.3-0.1-2.1-0.8-0.9-0.3c-0.6-0.3-1.2-0.6-1.7-0.9
	c-0.3-0.2-0.5-0.4-0.8-0.5c-1.3-0.7,0.5,0.5-0.1-0.1c-0.7-0.6-1-1-1.5-1.5c0.9,0.9-0.2-0.4-0.5-0.8s-0.3-0.6-0.5-0.9
	c0.5,1,0.1,0.2,0,0c-0.5-1.7-0.9-3.4-1.2-5.2c-0.6-4.6-0.7-9.2-0.6-13.8c0.1-9.5,0.5-18.9,0.4-28.4c-0.1-11,0-22,0.3-33
	c0-0.6,0.3-7.6,0.2-7.6c0.4,0-2.2,1.1-0.1,0.6c1-0.3,2.3-0.8,3.4-1c4.8-1.1,9.7-1.6,14.7-1.5c24.7-0.2,261.4-0.9,286.1,0.1
	c3.3,0.1,6.1-2.4,6.2-5.7c0.1-3.3-2.4-6.1-5.7-6.2c-0.2,0-0.3,0-0.5,0c-23.5-0.9-259,0.2-282.4-0.1c-5.9-0.1-11.7,0.2-17.5,1.1
	c-5.3,0.9-11.9,2.3-14.7,7.3c-1.4,2.4-1.3,5.3-1.4,8c-0.1,3.1-0.2,6.2-0.2,9.4c-0.1,5.9-0.2,11.8-0.2,17.7c0,10.7,0.2,21.4-0.2,32.1
	c-0.2,5-0.3,10-0.1,15c0.2,4.6,0.5,9.6,2,14c5.2,15.4,23.1,15.6,36.6,15.1c10.1-0.3,20.2,0.3,30.3,0.4c13.5,0.1,247-0.3,260.5-1.2
	c3.3,0,5.9-2.7,6-5.9"/>
<g class="st1">
	<path class="st2" d="M283.4,515.8c0,3.1-1.8,4.7-5.5,4.7h-25.6c-3.7,0-5.5-1.6-5.5-4.7c0-3.1,1.8-4.6,5.5-4.6h7v-30.7l-6.6,4
		c-0.7,0.5-1.5,0.7-2.2,0.7c-1.2,0-2.3-0.5-3.2-1.6c-0.9-1-1.3-2.2-1.3-3.5c0-1.7,0.8-3.1,2.3-4L260,469c1.7-1,3.5-1.6,5.2-1.6
		c1.6,0,3,0.5,4,1.5c1,1,1.6,2.4,1.6,4.2v38.1h7C281.5,511.2,283.4,512.8,283.4,515.8z"/>
	<path class="st2" d="M292.8,514.3c-3.4-4.6-5.1-11.4-5.1-20.2c0-8.7,1.7-15.4,5.1-20.1s8.3-7,14.7-7c6.4,0,11.3,2.3,14.7,7
		c3.4,4.6,5.1,11.3,5.1,20.1c0,8.8-1.7,15.5-5.1,20.2c-3.4,4.6-8.3,7-14.7,7C301,521.2,296.1,518.9,292.8,514.3z M313.8,508
		c1.3-2.9,2-7.5,2-13.9c0-6.4-0.7-11-2-13.9c-1.3-2.8-3.4-4.3-6.3-4.3c-2.9,0-5,1.4-6.3,4.3c-1.3,2.9-2,7.5-2,13.8
		c0,6.3,0.7,11,2,13.9c1.3,2.9,3.4,4.3,6.3,4.3C310.3,512.3,312.4,510.9,313.8,508z"/>
	<path class="st2" d="M392.9,467.3c1.4,0,2.7,0.5,3.8,1.6c1.1,1.1,1.7,2.3,1.7,3.7c0,1.2-0.5,2.4-1.4,3.5l-16.4,19.5v19.6
		c0,1.9-0.6,3.3-1.6,4.3c-1.1,1-2.5,1.5-4.1,1.5c-1.8,0-3.2-0.5-4.3-1.5c-1.1-1-1.6-2.4-1.6-4.3v-19.6l-16.3-19.5
		c-1-1-1.4-2.2-1.4-3.5c0-1.4,0.5-2.6,1.6-3.7c1.1-1.1,2.3-1.6,3.7-1.6c1.5,0,2.8,0.7,3.9,1.9l14.3,17.5l14.3-17.5
		C390.1,467.9,391.4,467.3,392.9,467.3z"/>
</g>
<g class="st1">
	<path class="st2" d="M403.6,519.1c-1-0.9-1.4-2.3-1.4-4v-41.9c0-1.7,0.5-3.1,1.4-4c0.9-0.9,2.3-1.4,4-1.4h26.5
		c3.7,0,5.5,1.5,5.5,4.5c0,3-1.8,4.6-5.5,4.6h-20.6v12.4h19.1c3.7,0,5.5,1.5,5.5,4.6c0,3-1.9,4.5-5.5,4.5h-19.1v13.3h20.6
		c3.7,0,5.5,1.5,5.5,4.6c0,3-1.8,4.5-5.5,4.5h-26.5C405.9,520.6,404.6,520.1,403.6,519.1z"/>
</g>
<g class="st1">
	<path class="st2" d="M495.3,515.8c0,1.4-0.6,2.6-1.7,3.6c-1.1,1-2.4,1.5-3.9,1.5c-1,0-1.9-0.3-2.7-0.8c-0.9-0.5-1.5-1.3-1.9-2.4
		l-4-8.8h-25.4l-4,8.8c-0.4,1-1.1,1.8-1.9,2.4c-0.8,0.5-1.7,0.8-2.7,0.8c-1.5,0-2.8-0.5-3.9-1.5c-1.2-1-1.7-2.2-1.7-3.6
		c0-0.7,0.2-1.5,0.6-2.4l20.2-42.5c0.5-1.2,1.4-2.1,2.5-2.7c1.1-0.6,2.3-0.9,3.5-0.9c1.3,0,2.5,0.3,3.6,1c1.1,0.7,1.9,1.5,2.5,2.7
		l20.2,42.5C495.1,514.3,495.3,515.2,495.3,515.8z M459.7,500h17.5l-8.7-19.5L459.7,500z"/>
</g>
<g class="st1">
	<path class="st2" d="M545.6,516.4c0,1.4-0.6,2.5-1.7,3.4c-1.1,0.9-2.4,1.3-3.9,1.3c-1,0-1.9-0.2-2.8-0.7c-0.9-0.4-1.6-1.1-2.2-2.1
		l-9.9-14.7c-0.9-1.3-1.8-2.2-2.7-2.8c-1-0.6-2.1-0.9-3.6-0.9h-6.1v15.1c0,1.8-0.5,3.2-1.5,4.3s-2.4,1.6-4.2,1.6
		c-1.8,0-3.2-0.5-4.3-1.6s-1.6-2.5-1.6-4.3v-42c0-1.7,0.5-3.1,1.4-4c0.9-0.9,2.3-1.4,4-1.4h18.8c6.2,0,10.9,1.4,14.1,4.1
		c3.2,2.7,4.8,6.7,4.8,11.8c0,4-1.1,7.4-3.4,10.1c-2.2,2.7-5.4,4.5-9.5,5.3c1.5,0.3,2.8,0.9,4,1.8c1.2,0.9,2.3,2.1,3.4,3.8l5.7,8.5
		C545.2,514.2,545.6,515.3,545.6,516.4z M530.9,489.4c1.5-1.2,2.2-3,2.2-5.5c0-2.5-0.8-4.4-2.2-5.5c-1.5-1.1-3.9-1.7-7.3-1.7h-11.2
		v14.5h11.2C527,491.2,529.4,490.6,530.9,489.4z"/>
</g>
<g class="st1">
	<path class="st2" d="M561,519.9c-3.4-0.9-6.2-2.2-8.3-3.9c-0.8-0.5-1.3-1.1-1.6-1.8c-0.3-0.6-0.5-1.4-0.5-2.4
		c0-1.2,0.4-2.3,1.2-3.3c0.8-0.9,1.7-1.4,2.7-1.4c0.5,0,1.1,0.1,1.6,0.3c0.5,0.2,1.2,0.5,1.9,0.9c2.1,1.3,4.3,2.3,6.5,3
		c2.2,0.6,4.6,0.9,7.3,0.9c3.3,0,5.8-0.5,7.6-1.6s2.6-2.7,2.6-4.7c0-1.5-0.8-2.8-2.4-3.7c-1.6-0.9-4.5-1.8-8.7-2.7
		c-4.6-0.9-8.4-2.1-11.1-3.4c-2.8-1.3-4.8-3-6.1-5c-1.3-2-1.9-4.4-1.9-7.3c0-3.1,0.9-6,2.7-8.5c1.8-2.5,4.3-4.5,7.6-5.9
		c3.2-1.4,6.9-2.1,10.9-2.1c7.1,0,12.9,1.8,17.5,5.3c0.8,0.6,1.3,1.2,1.6,1.8s0.5,1.4,0.5,2.3c0,1.2-0.4,2.3-1.2,3.3
		c-0.8,1-1.7,1.4-2.7,1.4c-0.6,0-1.1-0.1-1.5-0.2c-0.5-0.1-1.1-0.5-2-1c-2.1-1.3-3.9-2.3-5.7-2.9c-1.7-0.6-3.9-1-6.6-1
		c-3,0-5.4,0.6-7.2,1.8c-1.8,1.2-2.6,2.8-2.6,4.8c0,1.2,0.3,2.2,1,3c0.7,0.8,1.8,1.5,3.4,2.1c1.6,0.6,3.8,1.2,6.7,1.9
		c6.8,1.5,11.7,3.4,14.7,5.8c3,2.4,4.5,5.6,4.5,9.7c0,3.2-0.9,6-2.7,8.5s-4.3,4.3-7.5,5.7s-7,2-11.2,2
		C568.1,521.2,564.4,520.8,561,519.9z"/>
</g>
<path class="st3" d="M613.2,548.4L613.2,548.4C613.1,548.4,613.1,548.4,613.2,548.4z"/>
<path class="st3" d="M225.4,548.4C225.5,548.4,225.5,548.4,225.4,548.4L225.4,548.4z"/>
<path class="st3" d="M612.2,441.9C612,441.5,611.6,440.9,612.2,441.9z"/>
<path class="st3" d="M226.4,441.9C226.9,440.9,226.6,441.5,226.4,441.9z"/>
<path class="st0" d="M580.2,309.5c0,7.5,11.7,7.5,11.7,0S580.3,301.9,580.2,309.5z"/>
<path class="st0" d="M286.1,415.1c-44.5-53.6-50-132.1-13.9-191.6c36-59.3,107.2-90.7,175.3-76.7c67.4,13.9,120.2,69.4,130.9,137.3
	c1.3,8.4,1.9,16.9,1.9,25.4c0-7.5,11.7-7.5,11.7,0c-0.3-74.1-47.3-141.4-116.8-167c-69.8-25.7-151-3.5-198.1,54.1
	s-53.6,140.9-14.9,204.8c2.9,4.9,6.1,9.6,9.5,14c1.2,1.5,2.3,3.1,3.5,4.6c5-0.1,10-0.3,14.9-0.4
	C288.7,418.1,287.4,416.6,286.1,415.1z"/>
<path class="st0" d="M580.2,309.5c-0.3,40.6-15.3,79.7-42.1,110.1c2.3,0,4.6,0,6.9,0c2.8,0,5.5,0.1,8.2,0.1
	c19.1-23.8,31.7-52.2,36.5-82.4c1.4-9.2,2.2-18.5,2.2-27.9C592,317,580.3,317,580.2,309.5z"/>
<path class="st0" d="M609.2,438.1L609.2,438.1C610.4,438.7,608.4,437.4,609.2,438.1z"/>
<path class="st0" d="M598.9,434.7C598.4,434.7,598.7,434.7,598.9,434.7S599.4,434.8,598.9,434.7z"/>
<path class="st0" d="M606,436.4l0.5,0.2C606.5,436.6,606.4,436.6,606,436.4z"/>
<path class="st0" d="M612.2,441.9L612.2,441.9L612.2,441.9z"/>
<path class="st0" d="M613.3,547.7h-0.2c0,0.3,0,0.5,0,0.6C613.5,548,615.4,547.2,613.3,547.7z"/>
<path class="st0" d="M538.1,419.6c-0.4,0.5-0.9,1-1.3,1.4c3.9,0.2,7,3.3,7.1,7.2c0,1.1-0.3,2.2-0.8,3.2c3.6-3.8,7-7.7,10.2-11.7
	c-2.8-0.1-5.5-0.1-8.2-0.1C542.7,419.6,540.4,419.6,538.1,419.6z"/>
<path class="st0" d="M225.4,548.3c0-0.1,0-0.3,0-0.6h-0.1C223.2,547.2,225.1,548,225.4,548.3z"/>
<path class="st0" d="M229.4,438.1L229.4,438.1C230.1,437.4,228.1,438.7,229.4,438.1z"/>
<path class="st0" d="M226.4,441.9L226.4,441.9L226.4,441.9z"/>
<path class="st0" d="M239.6,434.7C239.2,434.8,239.3,434.8,239.6,434.7S240.2,434.7,239.6,434.7z"/>
<path class="st0" d="M232.2,436.6l0.4-0.2C232.2,436.6,232.1,436.6,232.2,436.6z"/>
<path class="st0" d="M287.7,434.2c4.7-0.1,9.5-0.2,14.2-0.1h2.6c-5.2-4.5-10-9.3-14.6-14.4c-5,0.1-10,0.2-14.9,0.4
	C279,424.9,283.2,429.7,287.7,434.2z"/>
<path class="st0" d="M541,434c0.9-0.7,1.6-1.6,2.1-2.6c-0.8,0.9-1.7,1.7-2.5,2.6H541z"/>
<path class="st0" d="M536.8,421c-4.2,4.6-8.6,9.1-13.3,13.2c4.4-0.1,8.7-0.2,13.1-0.2h4c0.8-0.9,1.7-1.7,2.5-2.6
	c0.5-1,0.8-2.1,0.8-3.2C543.8,424.3,540.7,421.2,536.8,421z"/>
<path class="st2" d="M406.9,275.1c12.6-18.1,20-43.7,7.2-63.8c-2.9-4.6-7.1-8.5-12.6-9.4c-5.5-0.8-11.1,0.8-15.4,4.4
	c-9.3,7.2-10.5,19.2-13.5,29.7c-6.5,22.7-19.7,42.9-24.6,66.1c-2.3,10.9-2.9,22.2-0.4,33.1c2.5,10.8,8.3,20.6,16.6,27.9
	c18.4,16.4,44.3,24.3,68.8,21.5c2.9-0.3,5.4-2.2,5.4-5.4c0-2.6-2.5-5.7-5.4-5.4c-19,2.2-38.2-2.4-54.1-13
	c-7.8-5.2-14.8-12-18.5-20.8c-3.5-8.3-4.2-17.5-3.5-26.3c1.8-21,12.8-40.1,20.5-59.3c2-5,3.9-10.1,5.4-15.2
	c1.4-4.9,2.3-9.9,3.9-14.8c1.2-3.7,3-7.5,5.9-9.7c2.7-2.1,5.8-3.1,8.4-1.8c4,1.9,6.1,7.5,7.3,11.4c1.5,4.9,2,10.1,1.6,15.2
	c-0.8,11-6,21.3-12.2,30.2c-1.7,2.4-0.4,6,1.9,7.4C402.2,278.6,405.2,277.4,406.9,275.1L406.9,275.1z"/>
<path class="st2" d="M412.7,259.8c9.9,8.8,23.5,7.7,35.8,7.5c6.1-0.1,12.3-0.2,18.4-0.3c5.2-0.1,5.2-8.2,0-8.1
	c-5.7,0.1-11.4,0.2-17.1,0.3c-10,0.2-23.2,2.2-31.4-5.1C414.6,250.6,408.8,256.3,412.7,259.8L412.7,259.8z"/>
<path class="st2" d="M464.3,325.4c9.5-1.7,21.4-6.5,24.5-16.6c1.6-5,0.8-10.4-2.1-14.7c-2.8-3.9-7.1-6.3-11.7-7.7
	c-4.3-1.2-8.7-1.8-13.1-1.7c-7.3,0.2-14.6,0.9-21.8,2.1c-6.1,1-12.6,2.1-17.3,6.5c-5.2,4.9-5.6,12.4-2.5,18.6
	c3.5,6.8,11.1,10.2,18.1,12.1C446.8,326.3,455.7,326.8,464.3,325.4c2.9-0.5,4.5-4,3.8-6.6c-0.8-3-3.7-4.2-6.6-3.8
	c-5.6,0.8-11.4,0.6-16.9-0.6c-4.6-1-10-2.1-13.4-5.6c-2.5-2.5-3-5.8-1.1-7.7c1.2-1,2.5-1.7,4-2.1c2.5-0.7,5-1.3,7.5-1.6
	c5.8-0.9,11.6-1.5,17.5-1.8c1.8-0.1,3.6-0.1,5.5,0c0.9,0,1.7,0.1,2.6,0.2l1,0.1c-1.3-0.2,0.8,0.1,1,0.2c1.6,0.3,3.1,0.8,4.6,1.3
	c1,0.3,0.2,0.1,0,0c0.4,0.2,0.8,0.4,1.2,0.6s0.5,0.3,0.8,0.4s1.7,1.3,0.7,0.4c0.5,0.5,1,1,1.5,1.5c-0.8-0.9,0.4,0.8,0.5,1.1
	c-0.5-1,0.2,0.9,0.3,1.3c-0.3-1.2,0,0.3,0,0.5c0,0.5,0,1.1-0.1,1.6c0.1-0.9-0.1,0.3-0.1,0.5s-0.6,1.8-0.2,0.8
	c-0.2,0.4-0.4,0.7-0.6,1.1c-0.1,0.2-0.3,0.4-0.4,0.6c0.3-0.4,0.3-0.4-0.1,0.1c-1.3,1.4-2.8,2.6-4.5,3.4c-1.7,1-3.6,1.7-5.5,2.3
	c-1.9,0.6-3.9,1.1-5.8,1.4c-2.9,0.5-4.5,4-3.8,6.6C458.5,324.7,461.5,326,464.3,325.4z"/>
<path class="st2" d="M464.1,355.5c9.5-1.7,21.3-6.5,24.4-16.5c1.6-5,0.8-10.4-2.1-14.7c-2.8-3.9-7.1-6.3-11.7-7.7
	c-4.3-1.2-8.7-1.8-13.1-1.7c-7.3,0.2-14.6,0.9-21.8,2.1c-6.1,1-12.6,2.1-17.3,6.5c-5.2,4.9-5.6,12.4-2.5,18.5
	c3.5,6.8,11,10.2,18.1,12C446.7,356.4,455.5,356.8,464.1,355.5c2.9-0.5,4.5-4,3.8-6.6c-0.8-3-3.7-4.2-6.6-3.8
	c-5.6,0.8-11.3,0.6-16.9-0.6c-4.5-1-9.9-2.1-13.3-5.5c-2.5-2.5-3-5.8-1.1-7.6c1.2-1,2.5-1.7,4-2.1c2.4-0.7,4.9-1.3,7.5-1.6
	c5.8-0.9,11.6-1.5,17.4-1.8c1.8-0.1,3.6-0.1,5.5,0c0.9,0,1.7,0.1,2.6,0.2l1,0.1c-1.3-0.2,0.7,0.1,1,0.2c1.6,0.3,3.1,0.8,4.6,1.3
	c1,0.3,0.2,0.1,0,0c0.4,0.2,0.8,0.4,1.2,0.6l0.8,0.4c0.2,0.1,1.7,1.3,0.7,0.4c0.5,0.5,1,1,1.5,1.5c-0.8-0.9,0.4,0.7,0.5,1.1
	c-0.5-1,0.2,0.9,0.3,1.3c-0.2-1.2,0,0.3,0,0.5c0,0.5,0,1.1-0.1,1.6c0.1-0.9,0,0.3-0.1,0.5s-0.6,1.8-0.2,0.8
	c-0.2,0.4-0.4,0.7-0.6,1.1c-0.1,0.2-0.3,0.4-0.4,0.6c0.3-0.4,0.3-0.4-0.1,0.1c-1.3,1.4-2.8,2.6-4.5,3.4c-1.7,1-3.5,1.7-5.4,2.3
	c-1.9,0.6-3.8,1.1-5.8,1.4c-2.9,0.5-4.5,4-3.8,6.6C458.3,354.8,461.3,356,464.1,355.5z"/>
<path class="st2" d="M455.5,384.3c9-1.6,20.7-6.3,23.3-16.1c1.5-5.1,0.3-10.6-3-14.8c-2.7-3.2-6.7-5.2-10.7-6.3
	c-10.7-3-22.8-1.1-33.5,0.7c-5.5,0.9-11.3,2.1-15.5,6.1c-5,4.8-5.3,12.4-2,18.2c3.6,6.3,10.6,9.3,17.3,11
	C439.3,385.2,447.4,385.6,455.5,384.3c2.8-0.5,4.4-4,3.7-6.6c-0.8-3-3.7-4.2-6.6-3.8c-5,0.8-10.1,0.6-15.1-0.5
	c-4.2-0.8-9-1.9-12.4-4.8c-1.2-1-2-2.3-2.4-3.9c-0.3-1.1,0-2.3,0.8-3.2c1-0.9,2.2-1.6,3.6-2c2.1-0.6,4.3-1.1,6.5-1.5
	c5.6-0.9,11.2-1.5,16.8-1.8c1.7-0.1,3.4-0.1,5-0.1c0.7,0,1.4,0.1,2.1,0.1c0.5,0,1,0.1,1.4,0.1c-1-0.1,0.1,0,0.5,0.1
	c1.4,0.3,2.8,0.6,4.2,1.1c0.1,0,1.6,0.6,0.5,0.1c0.3,0.1,0.5,0.2,0.8,0.4s0.5,0.3,0.8,0.4s1.5,1,0.9,0.5s0.4,0.4,0.5,0.4
	c0.2,0.2,0.4,0.4,0.6,0.6c0.9,0.7-0.3-0.8,0.2,0.2c0.1,0.3,0.3,0.5,0.4,0.7c0.5,0.7,0.1,0.2,0-0.1c0.1,0.4,0.2,0.9,0.4,1.3
	c0.1,0.3,0,1,0,0c0,0.5,0,1,0,1.5c-0.1,1.5,0.3-0.8-0.1,0.8c-0.1,0.5-0.2,1-0.4,1.5c0.5-1.1-1.1,1.6-0.4,0.7c-1.1,1.4-2.4,2.5-4,3.3
	c-3.4,1.9-7.1,3.1-11,3.7c-2.9,0.5-4.5,4-3.8,6.6C449.7,383.6,452.6,384.9,455.5,384.3z"/>
<path class="st2" d="M464.6,292c8-1.5,18.1-5.5,20.5-14.2c1.2-4.2,0.5-8.7-2-12.2c-2.5-3.1-5.9-5.4-9.8-6.3c-9.3-2.7-20-1-29.3,0.5
	c-5,0.8-10.3,1.9-14,5.5c-4.2,4.2-4.5,10.5-1.8,15.6c3,5.5,8.9,8.3,14.7,9.8C449.8,292.8,457.3,293.2,464.6,292
	c2.5-0.4,3.9-3.5,3.3-5.8c-0.7-2.7-3.3-3.7-5.8-3.3c-4.5,0.7-9.1,0.5-13.5-0.5c-3.6-0.8-8-1.7-10.9-4.3c-1.8-1.7-3-4.6-1-6.3
	c2.4-2,6.5-2.4,9.7-2.9c4.7-0.7,9.5-1.2,14.3-1.4c1.3,0,2.6-0.1,3.9,0c0.6,0,1.2,0.1,1.9,0.1l1,0.1c-0.9-0.1,0.6,0.1,0.6,0.1
	c2.9,0.5,4.4,0.9,6.6,2.5c-0.6-0.5,0.4,0.5,0.6,0.7c-0.5-0.6,0.3,0.5,0.5,0.8c0.4,0.8,0.1,0.2,0,0.1c0.1,0.4,0.2,0.7,0.3,1.1
	c0.1,0.8,0-0.6,0,0.2c0,0.4,0,0.9,0,1.3c-0.1,1-0.5,2-1.2,2.7c-1,1.1-2.1,1.9-3.4,2.5c-3,1.6-6.2,2.6-9.5,3.2
	c-2.5,0.5-3.9,3.5-3.3,5.8C459.5,291.3,462,292.7,464.6,292z"/>
</svg>
