<?xml version="1.0" encoding="utf-8"?>
<!-- Generator: Adobe Illustrator 26.0.1, SVG Export Plug-In . SVG Version: 6.00 Build 0)  -->
<svg version="1.1" xmlns="http://www.w3.org/2000/svg" xmlns:xlink="http://www.w3.org/1999/xlink" x="0px" y="0px"
	 viewBox="0 0 830 700" style="enable-background:new 0 0 830 700;" xml:space="preserve">
<style type="text/css">
	.st0{fill:#0E0C2F;}
	.st1{fill:none;stroke:#FF4646;stroke-width:12;stroke-miterlimit:10;}
</style>
<g id="Ebene_1">
	<path class="st0" d="M273.9,324.3c7.4,0.3,14.8,1.2,22.1,2.7c-4.7,3-9.7,5.5-14.9,7.4c1.7,6,3,12,4,18.2c-6.6-3-12.5-7.1-17.6-12.2
		l-15.8,16.8L254,339c0.5-1.6-0.3-3.3-1.9-3.8c-0.1,0-0.3-0.1-0.4-0.1l-10.3-4.6c5.6-1.9,12.1-5.3,17.6-7.2v0.1
		c2-6.3,4.4-12.5,7.1-18.6c1.3,2.1,2.3,4.4,3.1,6.8L273.9,324.3L273.9,324.3z"/>
	<path class="st0" d="M273.9,326.6c7.2,0.3,14.4,1.2,21.5,2.6l-0.5-4.2c-4.5,2.9-9.3,5.3-14.3,7.1c-1.2,0.4-1.9,1.6-1.6,2.8
		c1.7,6,3,12,4,18.2l3.4-2.6c-6.4-2.9-12.2-6.9-17.2-11.8c-0.9-0.9-2.3-0.9-3.2,0L250,355.6l3.9,1.6l1.3-10.1
		c0.4-3.1,1.5-6.9,1.1-10c-0.4-2.6-2.5-3.6-4.7-4.6l-9-4l-0.6,4.2c6-2.1,11.6-5.1,17.6-7.2l-2.9-2.2v0.1c0,1.3,1.1,2.3,2.4,2.2
		c1,0,1.8-0.7,2.1-1.6c2-6.1,4.3-12.1,6.9-18h-4c2.1,3.3,3.2,7.1,4.5,10.8l1.9,5.5c0.5,1.2,0.8,3.4,2.1,4.1c2.6,1.4,4.9-2.6,2.3-4
		h-0.1l1.1,1.4l-3.9-10.9c-1-3.2-2.3-6.2-4-9.1c-0.8-1.3-3.2-1.7-4,0c-2.8,6.3-5.2,12.6-7.3,19.1l4.5,0.6v-0.1
		c-0.1-1.4-1.4-2.8-2.9-2.2c-6,2.1-11.6,5.1-17.6,7.2c-1.6,0.6-2.5,3.3-0.6,4.2l6.9,3.1c1.2,0.4,2.3,0.9,3.4,1.5
		c1.5,0.9,1.1,1.8,0.9,3.4l-2.2,16.7c-0.3,2,2.7,3,3.9,1.6l15.9-16.9h-3.2c5.3,5.2,11.4,9.4,18.1,12.6c1.1,0.6,2.5,0.2,3.2-0.9
		c0.3-0.5,0.3-1.1,0.2-1.7c-1-6.1-2.3-12.2-4-18.2l-1.6,2.8c5.4-2,10.6-4.5,15.4-7.6c1.5-1,1.5-3.8-0.5-4.2
		c-7.5-1.5-15.1-2.4-22.8-2.8C270.9,321.9,270.9,326.5,273.9,326.6z"/>
	<path class="st0" d="M343.9,323.7c7.4,0.3,14.8,1.2,22.1,2.7c-4.7,3-9.7,5.5-14.9,7.4c1.7,6,3,12,4,18.2c-6.5-3-12.5-7.1-17.6-12.2
		l-15.8,16.8l2.3-18.2c0.2-0.8,0.1-1.6-0.2-2.4c-0.5-0.7-1.2-1.3-2.1-1.6l-10.3-4.6c5.5-1.9,12.1-5.3,17.6-7.2v0.1
		c2-6.3,4.4-12.5,7.1-18.6c1.3,2.1,2.3,4.4,3.1,6.8L343.9,323.7L343.9,323.7z"/>
	<path class="st0" d="M343.9,326c7.2,0.3,14.4,1.2,21.5,2.6l-0.5-4.2c-4.5,2.9-9.3,5.3-14.3,7.1c-1.2,0.4-1.9,1.6-1.6,2.8
		c1.7,6,3,12,4,18.2l3.4-2.6c-6.4-2.9-12.2-6.9-17.2-11.8c-0.9-0.9-2.3-0.9-3.2,0l-15.8,16.8l3.9,1.6l1.3-10.1
		c0.4-3.1,1.5-6.9,1.1-10c-0.4-2.6-2.5-3.6-4.7-4.6l-9-4l-0.5,4.2c6-2.1,11.6-5.1,17.6-7.2l-2.9-2.2v0.1c0,1.3,1.1,2.3,2.4,2.2
		c1,0,1.8-0.7,2.1-1.6c2-6.1,4.3-12.2,6.8-18.1h-4c2.1,3.3,3.2,7.1,4.5,10.8l1.9,5.5c0.5,1.3,0.8,3.4,2.1,4.1c2.6,1.4,4.9-2.6,2.3-4
		h-0.1l1.1,1.4l-3.9-10.9c-1-3.2-2.3-6.2-4-9.1c-0.8-1.3-3.2-1.7-4,0c-2.8,6.3-5.2,12.6-7.3,19.1l4.5,0.6v-0.1
		c-0.1-1.4-1.4-2.8-2.9-2.2c-6,2.1-11.6,5.1-17.6,7.2c-1.7,0.6-2.5,3.3-0.5,4.2l6.9,3.1c1.2,0.4,2.3,0.9,3.4,1.5
		c1.5,0.9,1.1,1.8,0.9,3.4l-2.2,16.7c-0.3,2,2.7,3,3.9,1.6l15.8-16.8h-3.2c5.3,5.2,11.5,9.4,18.2,12.5c1.1,0.6,2.5,0.2,3.2-0.9
		c0.3-0.5,0.3-1.1,0.2-1.6c-1-6.1-2.3-12.2-4-18.2l-1.6,2.8c5.4-2,10.6-4.5,15.4-7.6c1.5-1,1.5-3.8-0.5-4.2
		c-7.5-1.5-15.1-2.4-22.8-2.8C340.9,321.3,340.9,325.9,343.9,326z"/>
	<path class="st0" d="M410.6,323.1c7.4,0.3,14.9,1.2,22.2,2.7c-4.7,3-9.7,5.5-14.9,7.4c1.7,6,3.1,12,4,18.2
		c-6.5-3-12.5-7.1-17.6-12.2L388.4,356l2.4-18.2c0.2-0.8,0.1-1.6-0.2-2.4c-0.5-0.7-1.2-1.3-2.1-1.6l-10.3-4.6
		c5.5-1.9,12.1-5.3,17.6-7.2v0.1c2-6.3,4.4-12.5,7.1-18.6c1.3,2.1,2.3,4.4,3.1,6.8L410.6,323.1L410.6,323.1z"/>
	<path class="st0" d="M410.6,325.4c7.2,0.3,14.4,1.2,21.6,2.6l-0.5-4.2c-4.5,2.9-9.3,5.3-14.3,7.2c-1.2,0.4-1.9,1.6-1.6,2.8
		c1.7,6,3,12,4,18.2l3.4-2.6c-6.4-2.9-12.2-6.9-17.2-11.8c-0.9-0.9-2.3-0.9-3.2,0l-15.8,16.8l3.9,1.6l1.3-10.1
		c0.4-3.1,1.5-6.9,1.1-10c-0.4-2.6-2.5-3.6-4.7-4.6l-9-4l-0.5,4.2c6-2.1,11.6-5.1,17.6-7.2l-2.9-2.3v0.1c0,1.3,1.1,2.3,2.4,2.2
		c1,0,1.9-0.7,2.2-1.6c2-6.1,4.3-12.2,6.8-18.1h-4c2.1,3.3,3.2,7.1,4.5,10.8l1.9,5.5c0.5,1.2,0.8,3.4,2.1,4.1c2.6,1.4,4.9-2.6,2.3-4
		h0l1,1.4l-3.9-10.9c-1-3.2-2.3-6.2-4-9.1c-0.8-1.3-3.2-1.7-4,0c-2.8,6.3-5.2,12.7-7.3,19.2l4.5,0.6V322c-0.1-1.4-1.4-2.8-2.9-2.2
		c-6,2.1-11.6,5.1-17.6,7.2c-1.7,0.6-2.5,3.3-0.5,4.2l6.9,3c1.2,0.4,2.3,0.9,3.4,1.5c1.5,0.9,1.1,1.8,0.9,3.4l-2.1,16.8
		c-0.3,2,2.7,3,3.9,1.6l15.8-16.8h-3.2c5.3,5.2,11.4,9.4,18.1,12.5c1.1,0.6,2.5,0.2,3.2-0.9c0.3-0.5,0.4-1.1,0.2-1.7
		c-1-6.1-2.3-12.2-4-18.2l-1.6,2.8c5.4-2,10.6-4.5,15.4-7.6c1.5-1,1.5-3.8-0.5-4.2c-7.5-1.5-15.1-2.4-22.8-2.8
		C407.6,320.7,407.6,325.3,410.6,325.4z"/>
	<path class="st0" d="M477.9,322.5c7.4,0.3,14.8,1.2,22.1,2.7c-4.7,3-9.6,5.5-14.9,7.4c1.7,6,3,12,4,18.2c-6.5-3-12.5-7.1-17.6-12.2
		l-15.8,16.8l2.3-18.2c0.5-1.6-0.3-3.3-1.9-3.8c-0.1,0-0.3-0.1-0.4-0.1l-10.3-4.6c5.5-1.9,12.1-5.3,17.6-7.2v0.1
		c2-6.3,4.4-12.5,7.1-18.6c1.3,2.1,2.3,4.4,3.1,6.8l4.5,12.7L477.9,322.5z"/>
	<path class="st0" d="M477.9,324.8c7.2,0.3,14.4,1.2,21.5,2.6l-0.5-4.2c-4.5,2.9-9.3,5.3-14.3,7.1c-1.2,0.4-1.9,1.6-1.6,2.8
		c1.7,6,3,12,4,18.2l3.4-2.6c-6.4-2.9-12.2-6.9-17.2-11.8c-0.9-0.9-2.3-0.9-3.2,0l-15.8,16.8l3.9,1.6l1.3-10.1
		c0.4-3.1,1.5-6.9,1.1-10c-0.4-2.6-2.5-3.6-4.7-4.6l-9-4l-0.5,4.2c6-2.1,11.6-5.1,17.6-7.2l-2.9-2.2v0.1c0,1.3,1.1,2.3,2.4,2.2
		c1,0,1.8-0.7,2.1-1.6c2-6.1,4.2-12.1,6.8-18h-4c2.1,3.3,3.2,7.1,4.5,10.8l1.9,5.5c0.4,1.2,0.8,3.4,2.1,4.1c2.6,1.4,4.9-2.6,2.3-4
		h-0.1l1.1,1.4l-3.9-10.9c-1-3.2-2.3-6.3-4-9.1c-0.8-1.3-3.2-1.7-4,0c-2.8,6.3-5.2,12.6-7.3,19.1l4.5,0.6v-0.1
		c-0.1-1.4-1.4-2.8-2.9-2.2c-6,2.1-11.6,5.1-17.6,7.2c-1.6,0.6-2.5,3.3-0.5,4.2l6.9,3.1c1.2,0.4,2.3,0.9,3.4,1.5
		c1.5,0.9,1.1,1.8,0.9,3.5l-2.1,16.7c-0.3,2,2.6,3,3.9,1.6l15.8-16.8h-3.2c5.3,5.2,11.5,9.4,18.2,12.5c1.1,0.6,2.5,0.2,3.2-0.9
		c0.3-0.5,0.3-1.1,0.2-1.7c-1-6.1-2.3-12.2-4-18.2l-1.6,2.8c5.4-2,10.6-4.5,15.4-7.6c1.5-1,1.5-3.8-0.5-4.2
		c-7.5-1.5-15.1-2.4-22.8-2.8C474.9,320.1,474.9,324.7,477.9,324.8z"/>
	<path class="st0" d="M549.8,321.8c7.4,0.3,14.8,1.2,22.2,2.7c-4.7,3-9.7,5.5-14.9,7.4c1.7,6,3.1,12,4,18.2
		c-6.5-3-12.5-7.1-17.6-12.2l-15.8,16.8l2.3-18.2c0.5-1.6-0.3-3.3-1.9-3.8c-0.1,0-0.3-0.1-0.4-0.1l-10.3-4.6
		c5.6-1.9,12.1-5.3,17.6-7.2v0.1c2-6.3,4.4-12.5,7.1-18.6c1.3,2.1,2.3,4.4,3.1,6.8L549.8,321.8L549.8,321.8z"/>
	<path class="st0" d="M549.8,324.1c7.2,0.3,14.4,1.2,21.5,2.6l-0.5-4.2c-4.5,2.9-9.3,5.3-14.3,7.1c-1.2,0.4-1.9,1.6-1.6,2.8
		c1.7,6,3,12,4,18.2l3.4-2.6c-6.4-2.9-12.2-6.9-17.2-11.8c-0.9-0.9-2.3-0.9-3.2,0L526,353l3.9,1.6l1.3-10.1c0.4-3.1,1.5-6.9,1.1-10
		c-0.4-2.6-2.5-3.6-4.7-4.6l-9-4l-0.5,4.2c6-2.1,11.6-5.1,17.6-7.2l-2.9-2.2v0.1c0,1.3,1.1,2.3,2.4,2.2c1,0,1.8-0.7,2.1-1.6
		c2-6.1,4.2-12.2,6.8-18.1h-4c2.1,3.3,3.2,7.1,4.5,10.8l1.9,5.5c0.4,1.2,0.8,3.4,2.1,4.1c2.6,1.4,4.9-2.6,2.3-4h-0.1l1.1,1.4
		l-3.9-10.9c-1-3.2-2.3-6.2-4-9.1c-0.8-1.3-3.2-1.7-4,0c-2.7,6.3-5.2,12.6-7.3,19.1l4.5,0.6v-0.1c-0.1-1.4-1.4-2.8-2.9-2.2
		c-6,2.1-11.6,5.1-17.6,7.2c-1.7,0.6-2.5,3.3-0.5,4.2l6.8,3c1.2,0.4,2.3,0.9,3.4,1.5c1.5,0.9,1.1,1.8,0.9,3.4l-2.2,16.7
		c-0.3,2,2.7,3,3.9,1.6l15.8-16.8h-3.2c5.3,5.2,11.5,9.4,18.2,12.5c1.1,0.6,2.5,0.2,3.2-0.9c0.3-0.5,0.3-1.1,0.2-1.6
		c-1-6.1-2.3-12.2-4-18.2l-1.6,2.8c5.4-2,10.6-4.5,15.4-7.6c1.5-1,1.5-3.8-0.5-4.2c-7.5-1.5-15.1-2.4-22.8-2.8
		C546.9,319.4,546.9,324,549.8,324.1z"/>
</g>
<g id="Ebene_2">
	<path class="st1" d="M271.5,261.6c-13.1-0.9-26.3-2.1-39.2-0.3c-12.9,1.8-25.8,7.1-32.7,16.4c-4,5.4-5.8,11.8-7.3,18
		c-6,25.4-6.9,54.9,14.1,73.9c16.4,14.8,41.7,19.1,65.4,22.3c93.1,12.3,188.9,17,281.4,1.6c22-3.7,44.9-9,60.4-22.6
		c15.5-13.6,20.9-33.6,20.1-52.4c-0.4-10.6-2.7-21.3-9-30.5c-9.8-14.4-28.3-23.4-47.5-27.4c-19.2-4-39.2-3.5-58.9-3
		c-40.9,1-81.8,1.3-122.5,4.1C354,264.5,313.2,261.6,271.5,261.6z"/>
</g>
</svg>
