<?xml version="1.0" encoding="utf-8"?>
<!-- Generator: Adobe Illustrator 26.0.1, SVG Export Plug-In . SVG Version: 6.00 Build 0)  -->
<svg version="1.1" id="Ebene_1" xmlns="http://www.w3.org/2000/svg" xmlns:xlink="http://www.w3.org/1999/xlink" x="0px" y="0px"
	 viewBox="0 0 830 700" style="enable-background:new 0 0 830 700;" xml:space="preserve">
<style type="text/css">
	.st0{fill:#FF5850;}
	.st1{fill:#0D0D2D;}
</style>
<path class="st0" d="M350.8,372c24.4-2.5,50-5.2,73.3,4.1c4.8,2,9.4,4.5,13.7,7.5c4.5,3.2,8.1,7.2,12,11.1c4.2,4.5,9,8.3,14.3,11.4
	c5,2.7,10.2,4.9,15.5,6.6c5.9,2,12,3.7,17.8,6.2c3.5,1.5,10.1,4.9,9.3,9.4c-0.5,3.2,0.8,6.4,4.1,7.3c2.9,0.8,6.8-1,7.3-4.1
	c1.2-6.9-1.5-13.8-7-18.1c-5.1-4.1-11.4-6.4-17.5-8.5c-10.4-3.6-21.9-6.3-30.5-13.8c-4.8-4.2-8.8-9.2-13.6-13.4
	c-4.6-4-9.7-7.4-15.2-10.1c-11.4-5.6-23.7-8.4-36.3-9.5c-15.8-1.3-31.5,0.3-47.2,1.9c-3.2,0.3-6,2.5-6,5.9
	C344.9,369.1,347.6,372.3,350.8,372L350.8,372z"/>
<path class="st0" d="M414.7,407.1c12.3,9.1,24.4,18.4,36.9,27.3c5.6,4.2,12.1,6.9,19,8c7.4,0.9,14.8,1.3,22.2,1.2
	c15.4,0.1,30.7-1,45.9-3.2c6.5-0.9,13-2,19.7-2.3c6.3-0.3,13.2,0,19,2.6c0.8,0.3,1.4,0.8,1.9,1.4c-0.4-0.5,0,1,0,0.2
	c0,1.9,0.3-0.7-0.1,1.2c-0.7,2.4-2,4.6-3.8,6.3c-4.3,4.5-9.7,7.6-15.1,10.6c-11.6,6.4-23.9,11.3-36.7,14.6
	c-13,3.4-26.4,4.9-39.9,4.6c-14.2-0.4-28.1-3.3-41.8-7c-30.3-8.1-61.5-16.9-88.8-32.6c-6.6-3.8-12.6,6.5-6,10.3
	c25.9,14.9,54.8,23.4,83.4,31.5c15.2,4.3,30.5,8.1,46.3,9.3c14.5,1.1,29,0.1,43.2-3c14.2-3.1,27.9-8,40.9-14.6
	c6.1-3,12-6.5,17.4-10.5c5.4-4.1,10.8-9.4,12.4-16.3c4.2-18.1-19.6-21-32.3-20.5c-7.7,0.3-15.2,1.6-22.8,2.7s-14.9,1.8-22.4,2.2
	c-8.7,0.5-17.4,0.7-26.1,0.4c-7.7-0.2-16.4,0.1-23.4-3.7c-7.4-4-14-9.7-20.7-14.7l-22.1-16.4c-2.6-1.9-6.6-0.4-8.1,2.1
	C410.8,402,412.1,405.3,414.7,407.1L414.7,407.1z"/>
<path class="st1" d="M577.5,253.7c-8-11.3-18.8-20.3-31.4-26.1c-12.3-5.5-25.7-7.9-39.1-7.2c-13.3,0.8-27.6,4.1-38.9,11.3
	c-11.9,7.5-20,19.4-24.7,32.4c-5.1,14.1-6.7,30.5-2.9,45.1c4.1,15.8,15.9,28.1,29.8,36.1c26.6,15.4,61,14.7,86-3.6
	c23.6-17.4,38.4-49.7,26.6-78.3C581.4,260,579.7,256.7,577.5,253.7c-1.2-2.1-3.9-2.8-6-1.6c-2,1.1-3,4.1-1.6,6.1
	c15.7,22.5,6.7,53-12,70.6c-9.3,8.8-20.8,14.8-33.3,17.4c-13.7,2.6-27.9,1.2-40.8-4.1c-12.6-5-24.8-14-31.2-26.1
	c-6.5-12.3-6.1-27.7-3-40.9c2.8-11.8,8.3-23.1,17.4-31.3c8.9-8,21.2-11.8,32.8-13.7c23.4-3.7,48.1,3.7,64.4,21.1
	c2.1,2.2,4,4.5,5.8,7c1.3,2.1,4,2.8,6.1,1.6C577.8,258.6,578.9,255.6,577.5,253.7z"/>
<path class="st1" d="M533,259.7c-7.9-5.3-18.1-6-26.6-1.9c-8.2,4-14.3,13.5-11.4,22.7c1.4,4.5,4.8,8.2,9.3,9.8
	c4.5,1.7,9.5,1.5,13.9,3.4c6.9,3,8,11.7,2.4,16.6c-7.6,6.6-18,2.4-23.9-4.2c-3.8-4.3-10.1,2-6.3,6.3c6.4,7.2,15.8,11.3,25.5,9.7
	c9.3-1.5,16.3-9,17.3-18.3c0.9-10-6.2-17.2-15.4-19.6c-3.8-1-9.6-0.7-12.5-3.6c-2.5-2.5-2.3-6.5-0.7-9.3c4.9-8.5,16.7-9.1,24.2-3.9
	c2,1.4,5,0.4,6.1-1.6C535.8,263.7,535.1,261,533,259.7L533,259.7z"/>
<path class="st1" d="M520.1,257.2v-10.3c0-1.2-0.5-2.3-1.3-3.1c-1.7-1.7-4.5-1.8-6.3,0c-0.8,0.8-1.3,2-1.3,3.2v10.3
	c0,1.2,0.5,2.3,1.3,3.1c1.7,1.7,4.5,1.8,6.3,0C519.6,259.5,520.1,258.4,520.1,257.2z"/>
<path class="st1" d="M510.8,321.5v9.9c0,1.2,0.5,2.3,1.3,3.2c1.7,1.7,4.6,1.7,6.3,0c0.8-0.9,1.3-2,1.3-3.2v-9.9c0-2.5-2-4.5-4.5-4.5
	l0,0c-1.2,0-2.3,0.5-3.2,1.3C511.3,319.2,510.8,320.4,510.8,321.5L510.8,321.5z"/>
<path class="st1" d="M288.6,355.5v102.4c0,5.7,8.9,5.8,8.9,0V355.5C297.5,349.7,288.6,349.7,288.6,355.5z"/>
<path class="st0" d="M244.8,361.7c11.2-0.7,22.4-1.1,33.6-1.2c10.2-0.1,20.4,0.5,30.6,0.5c6,0,12-0.5,18-0.2l2.2,0.2
	c0.2,0,1.3,0.1,0.6,0s0.4,0.1,0.5,0.1c1.5,0.2,2.9,0.6,4.3,1c0.3,0.1,2.1,0.8,0.9,0.3c0.6,0.3,1.2,0.6,1.7,0.9
	c0.3,0.1,0.5,0.4,0.8,0.5c1.3,0.7-0.5-0.5,0.1,0.1s1,1,1.5,1.5c-0.9-0.9,0.2,0.4,0.5,0.8s0.3,0.6,0.5,0.9c-0.5-1-0.1-0.2,0,0
	c0.5,1.7,0.9,3.4,1.2,5.1c0.6,4.6,0.7,9.2,0.6,13.8c-0.1,9.5-0.5,18.9-0.4,28.4c0.1,11,0,22-0.3,33c0,0.6-0.3,7.6-0.2,7.6
	c-0.4,0,2.2-1.1,0.1-0.6c-1,0.3-2.3,0.8-3.4,1c-4.8,1.1-9.7,1.6-14.7,1.5c-24.7,0.2-49.4-1.1-74.1-2.1c-3.3-0.1-6.1,2.4-6.2,5.7
	c-0.1,3.3,2.4,6.1,5.7,6.2c0.2,0,0.3,0,0.5,0c23.5,0.9,47,1.8,70.4,2.1c5.9,0.1,11.7-0.2,17.5-1.1c5.3-0.9,11.9-2.3,14.7-7.3
	c1.4-2.4,1.3-5.3,1.4-8c0.1-3.1,0.2-6.2,0.2-9.4c0.1-5.9,0.2-11.8,0.2-17.7c0-10.7-0.2-21.4,0.2-32.1c0.2-5,0.3-10,0.1-15
	c-0.2-4.6-0.5-9.6-2-14c-5.2-15.4-23.1-15.6-36.6-15.1c-10.1,0.3-20.2-0.3-30.4-0.4c-13.5-0.1-27,0.3-40.5,1.2c-3.3,0-5.9,2.7-6,5.9
	C238.8,358.8,241.6,361.8,244.8,361.7L244.8,361.7z"/>
</svg>
