<?xml version="1.0" encoding="utf-8"?>
<!-- Generator: Adobe Illustrator 25.4.8, SVG Export Plug-In . SVG Version: 6.00 Build 0)  -->
<svg version="1.1" xmlns="http://www.w3.org/2000/svg" xmlns:xlink="http://www.w3.org/1999/xlink" x="0px" y="0px"
	 viewBox="0 0 840 700" style="enable-background:new 0 0 840 700;" xml:space="preserve">
<style type="text/css">
	.st0{display:none;}
	.st1{display:inline;fill:#FF5850;}
	.st2{display:inline;fill:#0D0D2D;}
	.st3{display:inline;fill:#FFFFFF;}
	.st4{fill:#FF5850;}
	.st5{fill:#0D0D2D;}
	.st6{fill:#FFFFFF;}
</style>
<g id="Artwork" class="st0">
	<path class="st1" d="M487.5,662.7c-4.9,0.8-6.6-2.5-6.6-2.5c-0.8-9.8,4-82,7-104.1c2.9-22.1,12.3-91.4,12.3-91.4l48.8,9.8
		c35.2,10.7,53.3,52,53.3,52c37.3,67.2,20.9,135.6,20.9,135.6S492.4,661.9,487.5,662.7z"/>
	<path class="st1" d="M300.2,474.7c-107.8,16-73.3,187.7-73.3,187.7l125.4-0.4l7.7-95.4l3.8-98.4L300.2,474.7z"/>
	<path class="st1" d="M272.8,694.9c-29.6,5.8-24.9-39.1-24.9-39.1l55.1,5.1C303,660.8,298.5,689.8,272.8,694.9z"/>
	<path class="st2" d="M397.6,434.8l4.6,28.2c0,0,18.9-33.3,18.9-33.8L397.6,434.8z"/>
	<path class="st2" d="M460.5,446.8c0.6,2.2,4,1.3,3.4-0.9c-1.5-5.7-2.9-11.4-4.3-17.1c-4.9-19.9-9.5-39.9-13.7-60l-1.7,2.2
		c4.6,0.3,9-1.5,12-5c5.9-6.7,5.1-17.3,0.2-24.4c-2.4-3.6-6.3-5.9-10.6-6.2c-4.3-0.1-8.6,1.1-12.1,3.6l2.6,1.1
		c-3.2-13.1-6.6-26.7-14.8-37.7c-3.2-4.4-7.2-8.2-11.7-11.2c-5-3.1-10.5-5-16.3-5.8c-5.9-0.7-11.8-0.8-17.7-0.1
		c-5.9,0.5-11.7,1.4-17.5,2.6c-10.8,2.5-20.6,7.6-26.7,17.1c-5.4,8.5-7.1,18.9-4.6,28.7c0.3,0.9,1.2,1.5,2.2,1.2
		c0.9-0.3,1.5-1.2,1.2-2.2c-2.6-10.2-0.2-21.1,6.5-29.2c6.9-8.4,17.3-11.6,27.7-13.4c10.7-1.8,22.3-3.2,33-0.5
		c10.3,2.6,18.3,9.7,23.7,18.6c6.1,10,8.9,21.4,11.6,32.6c0,0.1,0.1,0.3,0.2,0.4c0.5,0.8,1.6,1.1,2.4,0.7c3.7-2.4,8.5-4,12.7-2.7
		c4.2,1.4,6.7,5.8,7.9,9.8c1.2,4.3,1.1,9.3-1.5,13.1c-2.3,3.5-6.3,5.5-10.5,5.1c-1.2-0.1-1.9,1.2-1.7,2.2c1.2,5.7,2.5,11.5,3.7,17.2
		C450.6,407,455.3,427,460.5,446.8L460.5,446.8z"/>
	<path class="st2" d="M431.2,334.6c0.9,0.2,1.8-0.3,2.1-1.2c0.3-0.9-0.2-1.9-1.2-2.2c-7.7-2.1-15.6-1.8-23.5-1.4
		c-6.9,0.4-13.9,0.9-20.8,0c-6.5-0.9-12.8-2.6-18.8-5.2c-6.1-2.5-12-5.5-17.6-8.9c-5.8-3.4-11.3-7.4-17.4-10.2
		c-2.1-0.9-3.8,2.1-1.8,3c7,3.2,13.3,7.9,20,11.6c11.4,6.4,23.6,11.8,36.7,13.2C402.9,335.1,417.3,330.9,431.2,334.6L431.2,334.6z"
		/>
	<path class="st2" d="M428.1,321.9c2.3-0.2,2.3-3.7,0-3.5c-6.5,0.5-13,0.3-19.5-0.4c-11.4-1.3-22.2-5.2-32.3-10s-20.1-10-30.9-13
		c-0.9-0.2-1.8,0.3-2.1,1.2c-0.3,0.9,0.2,1.9,1.2,2.2c6.2,1.8,12.2,4.1,18.1,6.9c10.2,4.8,20.2,10.2,31.1,13.3
		C404.9,321.6,416.5,322.8,428.1,321.9L428.1,321.9z"/>
	<path class="st2" d="M421.5,305.5c-16.6,1.1-32.8-5.7-43.5-18.4c-1.5-1.7-3.9,0.8-2.5,2.5c11.4,13.4,28.4,20.6,46,19.5
		C423.7,308.8,423.8,305.3,421.5,305.5z"/>
	<path class="st2" d="M386.7,286c-5.9-11.4-11.3-23.9-10.1-36.7c0.7-8.3,4.2-16.2,7.8-23.7c2-4.4,4.5-8.5,7.5-12.2
		c5.1-5.7,12-9.5,19.5-10.9c7.5-1.3,15.3-0.7,22.5,1.9c6,1.8,11.4,5.2,15.6,9.8c6.8,7.8,8.5,18.7,8.3,29c-0.2,9.8-2,20-7.4,28.2
		c-4.4,6.4-10.5,11.6-17.4,15c-7,3.4-14.3,6.1-21.9,7.9"/>
	<path class="st2" d="M410.6,292.6c-0.9,0.3-1.4,1.2-1.2,2.1c0.2,0.9,1.2,1.5,2.1,1.3c2.2-0.6,4.4-1.2,6.5-1.8
		c8.2-2.5,16.3-5.8,23.2-10.9c6.6-4.8,11.7-11.4,14.6-19c2.9-7.7,3.8-16.2,3.6-24.4c-0.2-7.7-1.5-15.8-5.5-22.5
		c-4.1-7-11-11.6-18.5-14.4c-8.3-3.2-17.4-3.8-26.1-1.9c-7.7,1.7-14.5,5.9-19.5,12c-2.6,3.4-4.8,7-6.6,10.9c-2,4-3.8,8-5.4,12.2
		c-3.2,8.3-3.9,17.4-2.2,26.1c1.7,8.7,5.5,16.8,9.5,24.7c1,2,4.1,0.2,3-1.8c-4.2-8.1-8.1-16.7-9.6-25.8c-1.5-9.4,0.8-18.4,4.5-27
		c3.1-7.2,6.6-15,12.5-20.3c5.6-4.9,12.6-7.8,20-8.3c8.3-0.6,16.6,1.1,23.9,5c6.5,3.3,11.5,9,13.9,15.9s2.8,14.3,2.4,21.6
		c-0.4,7.8-2,15.8-6,22.6C441.6,282.8,425.4,288.6,410.6,292.6L410.6,292.6z"/>
	<path class="st2" d="M382,342.4c3.2-3.1,8.1-3.3,12.3-3.2c4.3-0.1,8.5,1.5,11.8,4.3c5.9,5.2,7.8,13.4,7.3,21
		c-0.1,3.7-2.1,7.1-5.4,9c-3.6,2-7.8,2.8-11.9,2.5c-3.7-0.1-7.3-1.4-10.1-3.8c-2.4-2.2-4.4-4.9-5.7-8
		C377.1,357.2,376.2,348.3,382,342.4c1.6-1.6-0.9-4.1-2.5-2.5c-7.5,7.8-6,19.7-1,28.4c1.9,3.6,4.8,6.6,8.2,8.7
		c4.2,2.2,9,3.1,13.7,2.5c4.6-0.3,8.9-2,12.4-5.1c3.5-3.3,4.3-7.8,4.3-12.5c-0.1-9.1-3.6-18.5-11.7-23.4c-4.1-2.5-9-3-13.5-2.8
		s-8.9,1-12.3,4.2C377.7,341.4,380.2,343.9,382,342.4z"/>
	<path class="st2" d="M321.3,345.4c0.9,0.4,1.9,0,2.3-0.9c1.1-4,3.9-6.5,7.5-8.3c4.5-2,9.5-2.5,14.2-1.3c8,1.7,14.4,7.6,16.7,15.5
		c1.2,4.3,1.2,8.8-0.1,13.1c-0.6,2.2-1.7,4.2-3.2,5.9c-1.7,1.5-3.6,2.7-5.7,3.5c-7.8,3.2-17.1,2.6-23.5-3.3c-3-2.8-5.1-6.5-5.8-10.5
		c-1.1-4.8-1.1-9.7-0.1-14.5c0.5-2.2-2.9-3.1-3.4-0.9c-0.7,3.1-1,6.3-0.7,9.5c0.1,3.2,0.6,6.5,1.5,9.6c1.6,4.9,4.9,9.1,9.3,11.9
		c8.5,5.4,20.2,4.8,28.5-0.7c8.8-5.8,9.4-19.1,5.4-28.1s-12.9-14.2-22.5-14.9c-8.8-0.7-18.9,3.6-21.5,12.7
		C320.2,344.4,320.6,345.1,321.3,345.4z"/>
	<path class="st2" d="M388.8,351.7c0.2,1,0.7,1.9,1.4,2.6c0.7,0.7,1.7,1.1,2.7,0.9c0.2,0,0.4-0.1,0.5-0.2c0.2-0.2,0.4-0.6,0.4-0.9
		c0.2-1.5-0.1-3-0.9-4.4c-0.8-1.2-2.9-2.4-3.9-0.9C388.6,349.7,388.5,350.8,388.8,351.7z"/>
	<path class="st2" d="M340.5,347.4c0.2,1,0.7,1.9,1.4,2.6c0.7,0.7,1.7,1.1,2.7,0.9c0.2,0,0.4-0.1,0.6-0.2c0.2-0.2,0.4-0.6,0.4-0.9
		c0.2-1.5-0.1-3-0.9-4.4c-0.8-1.2-2.8-2.4-3.9-0.9C340.3,345.4,340.2,346.5,340.5,347.4z"/>
	<path class="st2" d="M373.8,352.8c0,0,0.1,0,0.1,0.1c0.9,0.5,1.9,0.1,2.4-0.7c0.5-0.9,0.1-1.9-0.7-2.4c-1.7-1.2-3.7-1.8-5.7-1.7
		c-2,0.3-3.8,1.2-5.3,2.5c-0.8,0.5-1.1,1.6-0.6,2.4s1.5,1.1,2.3,0.6c0.6-0.5,1.3-0.9,2-1.3c0.2-0.1,0.4-0.2,0.6-0.3l0.3-0.1
		c-0.2,0.1-0.2,0.1,0,0c0.3-0.1,0.7-0.2,1-0.3c-0.4,0.1,0.2,0,0.3,0h0.5c-0.4,0,0.2,0.1,0.3,0.1l0.6,0.2c0.2,0.1,0.2,0.1,0,0
		l0.2,0.1l0.5,0.3C373,352.3,373.3,352.6,373.8,352.8L373.8,352.8z"/>
	<path class="st2" d="M373,371c-1.1-2-4.1-0.2-3,1.8c1.6,2.8,3,5.7,4.2,8.6c0.6,1.5,1.2,2.9,1.7,4.4c0.3,0.7,0.5,1.4,0.7,2.1
		c0.3,0.6,0.5,1.3,0.6,2l0.2-0.9c0.5-0.3,0.5-0.4,0-0.2l-0.4,0.1l-0.9,0.2l-1.6,0.3c-1.2,0.2-2.4,0.4-3.6,0.5c-1,0-1.8,0.8-1.8,1.8
		s0.8,1.8,1.8,1.8c2.7-0.2,5.4-0.6,8.1-1.4c3-1,1.3-4.5,0.6-6.5C377.8,380.6,375.6,375.7,373,371L373,371z"/>
	<path class="st2" d="M394,397c-0.3-0.9-1.3-1.4-2.2-1.2c-0.9,0.3-1.4,1.3-1.2,2.2c0.9,2.5,1.8,5.3,0.9,8c-0.7,1.9-2.2,3.4-4.1,4.1
		c-4.1,1.6-8.7-0.1-10.6-4.1l-0.6,2.4c5.7-3.1,11.5-6,17-9.5c1.9-1.2,0.1-4.2-1.8-3c-5.5,3.5-11.3,6.4-17,9.5
		c-0.8,0.5-1.1,1.6-0.6,2.4c2.8,5.5,9.3,7.8,15,5.5c2.7-1.1,4.9-3.2,6-6c1.3-3.4,0.5-7.1-0.8-10.4C394,397,394,397,394,397z"/>
	<path class="st2" d="M331.4,336.1c-0.3-2.2-3.8-2.2-3.5,0c1.7,13.5,3.6,26.9,5.8,40.3c2,11.9,4.1,23.8,6.5,35.6
		c1.8,9.2,3.2,20.7,12.6,25.4c4.6,2.3,10.1,3,15.3,3.2c5.9,0.1,11.7-0.5,17.5-1.7c11.7-2.2,23.2-5.6,34.6-8.7c0.8-0.3,1.3-1.1,1.1-2
		c-0.2-1-1.1-1.6-2.1-1.4c-12.3,3.4-24.8,7.1-37.4,9.2c-5.5,1-11,1.3-16.5,0.9c-4.8-0.4-10.2-1.4-13.9-4.7c-3.4-3-4.8-7.5-5.9-11.8
		c-1.2-5.3-2.2-10.6-3.2-15.9c-4.4-22.7-8-45.5-10.9-68.5V336.1z"/>
	<path class="st2" d="M398.5,435.6c-0.6-2.2-3.9-1.3-3.4,0.9c1.5,6.1,2.6,12.4,3.2,18.7c0.1,1.5,0.2,3,0.3,4.5c0,0.4,0.2,1.6,0.1,2
		c-0.2,0.3-0.9,0.4-1.3,0.5c-2.6,0.6-5.3,1.1-7.9,1.3c-5,0.5-10.2,0.8-15.3,1.2c-10,0.8-20,1.9-30,2.3c-2.3,0.1-2.3,3.6,0,3.5
		c6.1-0.3,12.2-0.8,18.3-1.3c5.5-0.5,11.1-1,16.6-1.5c5.6-0.3,11.2-0.9,16.8-1.8c2.3-0.5,6-0.8,6.3-3.8c0.1-3-0.1-5.9-0.5-8.8
		C401.1,447.5,400,441.5,398.5,435.6L398.5,435.6z"/>
	<path class="st2" d="M463.9,446c-0.8-2.1-4.2-1.2-3.4,0.9c0.7,2,1.8,3.7,3.3,5.2c3.2,3,7.6,4.4,11.6,6c5.2,2.1,10.5,4,15.9,5.5
		c9.6,2.8,19.3,4.7,29.1,6.7c18.4,3.7,38,7.9,52.8,20.2c7.9,6.6,14,15,19.5,23.7c5.4,8.6,10.1,17.7,14.2,27
		c8.2,18.8,13.6,38.7,16.1,59s2.1,40.9-1.2,61.1c-0.4,2.2,3,3.2,3.4,0.9c0.5-2.5,0.8-4.9,1.2-7.4c5.3-41-1.1-82.7-18.5-120.3
		c-4.3-9.3-9.3-18.3-15-26.9c-5.7-8.5-12.2-16.4-20.5-22.5c-15.7-11.5-35.3-15.3-53.9-19c-10-1.9-20-4.3-29.8-7.3
		c-5.2-1.6-10.3-3.5-15.4-5.6C469.4,451.9,465.5,450.1,463.9,446L463.9,446z"/>
	<path class="st2" d="M625.4,662.4c0-1-0.8-1.8-1.8-1.8H305.4c-1,0-1.8,0.8-1.8,1.8s0.8,1.8,1.8,1.8h318.3
		C624.6,664.1,625.4,663.3,625.4,662.4z"/>
	<path class="st2" d="M534.6,592c-1,0-1.8,0.8-1.8,1.8v67.7c0,1,0.8,1.8,1.8,1.8s1.8-0.8,1.8-1.8v-67.7
		C536.3,592.8,535.5,592,534.6,592z"/>
	<path class="st2" d="M310.9,473.3c0.8-0.3,1.3-1.1,1.1-2c-0.2-1-1.1-1.6-2.1-1.4c-7.4,2-14.8,4.1-22.1,6.6
		c-7.1,2.3-14,5.3-20.6,8.9c-6.2,3.5-11.9,7.9-16.9,13c-5.2,5.4-9.3,11.8-12.2,18.7c-3,7.2-5.5,14.7-7.3,22.3
		c-2,7.9-3.7,15.9-4.9,24c-5,32.6-4.1,65.7-1.7,98.4c0.2,2.3,3.7,2.3,3.5,0c-1.3-18.1-2.2-36.2-1.9-54.3c0.2-16,1.6-31.9,4.2-47.7
		c1.3-7.8,3-15.5,5.1-23.1c1.9-7.6,4.6-15,8-22.1c6.5-12.7,17.6-22.2,30.3-28.5C285.3,480.2,298.3,476.7,310.9,473.3L310.9,473.3z"
		/>
	<path class="st1" d="M614.7,213.4c-0.8,2.1,2.6,3,3.4,0.9c1.2-3.3,2.2-6.6,2.9-10c3-14,1.8-28.6-2-42.3
		c-3.7-13.6-9.9-26.4-18.3-37.8c-8.1-10.7-19-18.9-32.5-21c-13.3-1.9-26.9,1.1-38.2,8.2c-11,6.9-21,18.5-18.2,32.3
		c1.1,6.1,5.4,11.2,11.2,13.4c5.5,2.1,11.9,1.2,16.1-3.1s5.2-10.5,4.8-16.3c-0.5-6.1-2.2-12-4.9-17.5c-5.5-11.1-13.9-20.5-24.4-27.1
		c-25-16.3-56.9-15.2-84.5-6.9c-2.2,0.6-1.2,4,0.9,3.4c3.4-1,6.9-1.9,10.4-2.7c25.7-5.8,54.3-4.1,75.9,12.4
		c9.2,6.8,16.2,16.1,20.4,26.8c2.1,5.2,3,10.8,2.7,16.4c-0.5,5.1-3.2,10.4-8.5,11.7c-5.2,1.2-10.6-0.8-13.8-5
		c-3.7-4.9-3.9-11.5-2-17.3s6.3-10.6,11-14.3c4.9-3.8,10.4-6.8,16.4-8.8c11.5-3.9,24.7-4.2,35.8,1.2c11.4,5.4,19.4,15.7,25.4,26.4
		C617.5,159.6,624.2,188.1,614.7,213.4L614.7,213.4z"/>
	<path class="st1" d="M234.1,189.3c0-1-0.8-1.8-1.8-1.8s-1.8,0.8-1.8,1.8c0,2.2-0.1,4.4-0.3,6.7c-1.4,17.8-8.7,35.7-22.6,47.3
		c-13,10.8-32.1,15.1-48.1,8.9c-7.4-2.9-16.2-9-16.7-17.8c-0.3-3.7,1.1-7.4,3.8-9.9c3.3-2.7,8-2.5,11.6-0.6
		c8.2,4.2,10.6,15.3,10.6,23.7c0,8.9-2.5,17.5-7.4,24.9c-9.8,15.1-29,22.5-46.5,18.5c-2.2-0.5-3.1,2.9-0.9,3.4
		c2.4,0.5,4.7,0.9,7.1,1.1c20.1,1.4,39-9.9,47.1-28.3c3.9-9,5-19.1,3.1-28.7c-1.9-9.4-8.2-19.6-18.9-19.5
		c-9.7,0.1-14.9,10.2-12.6,18.9c2.5,9.4,11.9,15.5,20.6,18.4c18,6,38.9,0.1,52.4-12.8C227.4,229.5,234.1,209.1,234.1,189.3
		L234.1,189.3z"/>
	<path class="st2" d="M382.7,30c-7.9-0.5-15.9-0.6-23.8-0.6c-1,0-1.8,0.8-1.8,1.8c0,1,0.8,1.8,1.8,1.8c8-0.1,15.9,0.1,23.8,0.6
		C385,33.6,385,30.1,382.7,30z"/>
	<path class="st2" d="M202.5,24.4L183,24.7c-2.3,0-2.3,3.5,0,3.5l19.5-0.3C204.8,28,204.8,24.4,202.5,24.4z"/>
	<path class="st2" d="M202.5,31.6c-5.5,0.1-11,0.1-16.4-0.1c-2.3-0.1-2.3,3.4,0,3.5c5.5,0.2,11,0.2,16.4,0.1
		C204.8,35.1,204.8,31.6,202.5,31.6z"/>
	<path class="st2" d="M202,39.6c-6.2-0.2-12.4-0.1-18.6,0.2c-2.3,0.1-2.3,3.6,0,3.5c6.2-0.3,12.4-0.4,18.6-0.2
		C204.3,43.1,204.2,39.6,202,39.6z"/>
	<path class="st2" d="M376.9,84.2L376.9,84.2c0-1-0.8-1.8-1.8-1.8s-1.8,0.8-1.8,1.8c0.1,13.9-0.1,27.7-0.6,41.6
		c-0.1,3.1-0.2,6.2-0.4,9.3L372,140c0,0.7-0.1,1.2-0.1,2s0,0.7-0.8,0.7c-6.2,0.1-12.3,0.1-18.5,0c-12.5-0.1-25-0.4-37.5-0.9
		c-3-0.1-6-0.2-9.1-0.4l-2.6-0.1c-0.8-0.1-1.6-0.1-2.3-0.1h-0.6l0.3,0.4c0.1-0.3,0.2-0.7,0.2-1.1c0.1-0.7,0.2-1.3,0.3-2
		c0.8-6,1.5-12,2-18c1-12.3,1.2-24.6,0.7-37l-1.8,1.8c24.1-1.1,48.2-0.9,72.2,0.6c2.3,0.1,2.3-3.4,0-3.5c-24-1.5-48.2-1.7-72.2-0.6
		c-1,0-1.7,0.8-1.8,1.8c0.6,14.8,0.2,29.7-1.4,44.5c-0.3,3.3-0.7,6.6-1.2,9.9c-0.3,2.4-1.5,6,1.8,6.7c1.6,0.2,3.1,0.3,4.7,0.3l5,0.2
		c3.3,0.1,6.6,0.3,10,0.4c13.2,0.5,26.5,0.7,39.8,0.8c3.3,0,6.6,0,10,0c2.6,0,5.8,0.2,6.3-3.1c0.4-3.2,0.5-6.4,0.5-9.6
		c0.2-3.3,0.3-6.6,0.4-9.9C376.8,110.6,377,97.4,376.9,84.2L376.9,84.2z"/>
	<path class="st2" d="M371.2,144.9c0.5,0.8,1.5,1,2.3,0.6c0.9-0.5,1.2-1.5,0.7-2.4L353,105.2c-0.5-0.8-1.6-1.1-2.4-0.6
		c-4.7,2.2-9.1,4.8-13.3,7.9c-4.3,2.9-8.5,5.8-12.7,8.7c-8.4,5.8-16.3,12.4-23.5,19.7c-1.6,1.6,0.9,4.1,2.5,2.5
		c7.1-7.2,14.8-13.8,23.2-19.5c4.1-2.9,8.3-5.8,12.5-8.6c4.1-3,8.5-5.6,13.1-7.8l-2.3-0.6L371.2,144.9L371.2,144.9z"/>
	<path class="st2" d="M332.1,95.8c-0.3-0.9-1.2-1.5-2.2-1.2c-0.9,0.3-1.5,1.2-1.2,2.2c0.1,0.2,0.1,0.3,0.2,0.8c0.1,0.4,0-0.2,0,0.1
		c0,0.1,0,0.2,0,0.3c0,0.3,0,0.5,0,0.8s0-0.2,0,0l-0.1,0.4c0,0.1-0.1,0.2-0.1,0.4c0,0-0.1,0.3,0,0.1l-0.1,0.2l-0.1,0.2
		c-0.2,0.4,0.3-0.3,0,0.1l-0.2,0.2c-0.1,0.1-0.2,0.2-0.3,0.3c-0.2,0.2-0.1,0.2,0,0c-0.1,0.1-0.4,0.2-0.5,0.3l-0.2,0.1l0.2-0.1
		c-0.1,0-0.2,0.1-0.2,0.1l-0.3,0.1c-0.2,0.1-0.1,0.1,0.1,0c-0.2,0-0.4,0-0.5,0h0.2l-0.3-0.1l-0.3-0.1c-0.1,0-0.3-0.2,0,0l-0.3-0.1
		c-0.2-0.1-0.2-0.1-0.5-0.3c-0.3-0.2,0,0,0,0l-0.2-0.2c-0.2-0.2-0.3-0.3-0.5-0.5c-0.1-0.1-0.3-0.3,0,0c-0.1-0.1-0.1-0.1-0.2-0.2
		s-0.2-0.4-0.3-0.5l-0.1-0.2c0,0.2,0,0.1,0,0c-0.1-0.2-0.1-0.4-0.2-0.6c0-0.1,0-0.2,0-0.3c0,0.4,0,0.2,0,0.1c0-0.2,0-0.2,0-0.5
		s0,0.1,0,0.1c0-0.1,0-0.2,0-0.2c0-0.2,0.1-0.4,0.2-0.6c-0.2,0.2-0.1,0.2,0,0.1c0-0.1,0.1-0.1,0.1-0.2l0.1-0.2c0,0,0.2-0.3,0.1-0.1
		c-0.2,0.2,0.1-0.1,0.1-0.1l0.2-0.2l0.2-0.2c0.3-0.3,0,0,0,0c0.2-0.1,0.3-0.2,0.5-0.3h0.1c-0.2,0.1,0.1,0,0.1,0
		c0.2-0.1,0.3-0.1,0.5-0.1c0.4-0.1,0.1-0.1,0,0c0.1,0,0.2,0,0.3,0h0.5c0.5,0-0.3-0.1,0.2,0l0.5,0.2c0.3,0.1-0.2-0.1,0,0l0.2,0.1
		l0.4,0.3c0.2,0.1-0.2-0.2-0.1-0.1l0.2,0.2l0.2,0.2c0,0-0.2-0.3,0-0.1c0.5,0.8,1.6,1.1,2.4,0.6s1.1-1.6,0.6-2.4
		c-1.5-2.2-4.3-3.1-6.8-2.2c-2.3,0.8-3.9,2.9-4.2,5.4c-0.1,2.4,1.1,4.7,3.1,6c2.2,1.5,5.1,1.3,7-0.6c1.8-1.9,2.4-4.6,1.5-7.1
		L332.1,95.8z"/>
	<path class="st2" d="M274.8,83c0-2.3-3.5-2.3-3.5,0c0.3,14,0.3,28-0.1,42c-0.1,3.1-0.2,6.2-0.3,9.3c-0.1,1.6-0.1,3.1-0.2,4.7
		c0,0.4,0,0.8,0,1.2c0,0.3-0.1,0.2,0.2,0c-0.4,0.2-1.7,0-2.2,0l-18.3-0.2l-37.3-0.3l-9-0.1h-4.9c-0.4,0-0.7,0-1.1,0
		c-0.4,0.1-0.1,0.3-0.1,0.1c-0.1-0.5-0.1-1.1,0-1.6c0.1-6.2,0.3-12.3,0.6-18.4c0.7-12.3,1.8-24.6,3.5-36.8l-1.7,1.3
		c5.4-0.5,10.8-0.6,16.2-0.6c18.9,0.2,37.8,2.8,56.7,0.8c2.2-0.2,2.3-3.8,0-3.5c-5.4,0.5-10.8,0.8-16.1,0.7
		c-18.9-0.1-37.8-2.7-56.8-1c-0.8,0-1.5,0.5-1.7,1.3c-2,14.6-3.3,29.3-3.9,44.1c-0.1,3.3-0.2,6.5-0.3,9.8c0,2.3-0.8,6,2,7
		c1.5,0.4,3.1,0.5,4.7,0.3h5l9.9,0.1l39.9,0.3l9.9,0.1c1.7,0,3.4,0.1,5.1,0c1.2,0,2.3-0.6,2.9-1.6c0.6-1.2,0.5-2.9,0.5-4.3
		c0.1-1.6,0.1-3.1,0.2-4.7c0.1-3.4,0.2-6.8,0.3-10.2C275.2,109.5,275.2,96.2,274.8,83L274.8,83z"/>
	<path class="st2" d="M272.9,112.3c2.3,0.2,2.2-3.3,0-3.5c-13.3-1.5-23.8-12-25.2-25.3c-0.2-2.2-3.7-2.3-3.5,0
		C245.5,98.8,257.6,111,272.9,112.3L272.9,112.3z"/>
	<path class="st2" d="M270.9,135.3c0.7,2.1,4.1,1.2,3.4-0.9c-1.6-4.5-4.2-8.6-7.6-11.9c-3.2-3.5-7.2-6.3-11.7-8.1
		c-8.5-3.2-19.4-2-24.6,6.2c-2.3,3.6-2.7,9.1,1.9,11.3s8.4-2.6,8.3-6.9c-0.1-8.8-8.6-15.1-16-18.2c-8.3-3.3-17.3-4.5-26.2-3.5
		c-2.2,0.2-2.3,3.7,0,3.5c8.1-0.9,16.4,0.1,24.1,2.9c5.9,2.2,12.4,6.5,14.2,12.9c0.5,1.7,0.8,4.1-0.6,5.5c-0.2,0.2-0.5,0.4-0.8,0.5
		c-1,0.4-2.2-0.1-2.7-1.1c-1.8-3.3,2.1-7.3,4.6-8.9c6.3-4,14.8-2.7,20.8,1.2C263.6,123.3,268.9,129,270.9,135.3L270.9,135.3z"/>
	<path class="st2" d="M237.6,327.5c-7.9-0.5-15.9-0.6-23.8-0.6c-1,0-1.8,0.8-1.8,1.8s0.8,1.8,1.8,1.8c8-0.1,15.9,0.1,23.8,0.6
		C239.9,331.1,239.9,327.6,237.6,327.5z"/>
	<path class="st2" d="M59.2,323.7c0-1-0.8-1.8-1.8-1.8L38,322.2c-2.3,0-2.3,3.5,0,3.5l19.4-0.3C58.4,325.4,59.2,324.7,59.2,323.7z"
		/>
	<path class="st2" d="M57.4,329.1c-5.5,0.1-11,0.1-16.4-0.1c-2.3-0.1-2.3,3.4,0,3.5c5.5,0.2,11,0.2,16.4,0.1
		C59.7,332.5,59.7,329,57.4,329.1z"/>
	<path class="st2" d="M56.9,337.1c-6.2-0.1-12.4-0.1-18.6,0.2c-2.3,0.1-2.3,3.6,0,3.5c6.2-0.3,12.4-0.4,18.6-0.2
		C59.1,340.6,59.1,337.1,56.9,337.1z"/>
	<path class="st2" d="M757,245.4c-7.9-0.5-15.9-0.6-23.8-0.6l0,0c-1,0-1.8,0.8-1.8,1.8s0.8,1.8,1.8,1.8c8-0.1,15.9,0.1,23.8,0.6
		C759.3,249.1,759.3,245.6,757,245.4z"/>
	<path class="st2" d="M576.8,243.4c2.3,0,2.3-3.5,0-3.5l-19.4,0.3c-2.3,0-2.3,3.5,0,3.5L576.8,243.4L576.8,243.4z"/>
	<path class="st2" d="M576.8,247c-5.5,0.1-11,0.1-16.4-0.1c-2.3-0.1-2.3,3.4,0,3.5c5.5,0.2,11,0.2,16.4,0.1
		C579.1,250.6,579.1,247,576.8,247z"/>
	<path class="st2" d="M576.3,255c-6.2-0.1-12.4-0.1-18.6,0.2c-2.3,0.1-2.3,3.6,0,3.5c6.2-0.3,12.4-0.4,18.6-0.2
		C578.5,258.6,578.5,255,576.3,255z"/>
	<path class="st2" d="M662.3,287.8c0.4-6.1,1.3-12.2,0.5-18.3c-0.1-0.8-1-1.2-1.7-1.3c-4.6-0.6-9.2,0-13.8-0.1c-1,0-1.7,0.8-1.8,1.8
		l-0.1,13.4c0,0.2-0.1,1.7,0.2,1.4c-0.2,0.1-0.4,0.1-0.7,0.1c-0.8,0.1-1.7,0.1-2.5,0.1c-1.6-0.1-3.2,0.1-4.7,0.4
		c-3.7,1-4.9,4.3-5.1,7.8c-0.3,4.4-0.5,8.8-0.6,13.2c-0.6,15.9-0.8,31.8-0.4,47.6c0,1.6-0.2,3.5,1,4.8c1,1,2.4,1.5,3.8,1.3
		c3.9,0.1,7.8,0.3,11.7,0.5c4,0.2,8,0.2,11.9,0.1c1.9-0.1,3.7-0.3,5.5-0.6c1.6-0.1,3.1-0.5,4.5-1.3c1.5-1.1,1.5-2.9,1.6-4.6l0.2-5.2
		l0.4-10.7l0.9-22.7c0.1-3.7,0.3-7.3,0.4-11c0.1-3.3,0.7-7,0.1-10.4c-0.5-2.7-2.5-5-5.1-5.9c-1.4-0.5-2.8-0.9-4.3-1
		c-0.7-0.1-1.3-0.2-2-0.2c-0.2,0-0.5,0-0.7,0c-0.9,0.2,0.9,1.9,0.9,0.8c0.1-2.3-3.4-2.3-3.5,0c-0.2,3.4,3.3,2.6,5.7,3
		c3,0.5,5.6,1.7,5.7,5c0.2,3.7-0.2,7.4-0.4,11.1l-0.5,11.6c-0.3,7.1-0.5,14.2-0.8,21.3c-0.1,3.4-0.3,6.8-0.4,10.2
		c-0.1,1.7,0,3.5-0.2,5.2c-0.1,0.9-0.4,0.9-1.2,1.1s-1.7,0.3-2.6,0.4c-7.3,0.9-14.6,0.4-21.9,0c-1.9-0.1-3.8-0.2-5.7-0.2
		c-0.8,0-1.2,0.2-1.5-0.5c-0.1-0.8-0.1-1.7,0-2.5c-0.1-3.8-0.2-7.5-0.2-11.3c-0.1-14.9,0.2-29.8,1-44.7c0.1-1.9,0.1-3.8,0.4-5.6
		c0-1.3,0.8-2.5,1.9-3.1c2.3-1,5.3-0.3,7.8-0.7c1.4-0.1,2.5-1,3-2.3c0.3-1.6,0.3-3.1,0.2-4.7l0.1-11.4l-1.8,1.8
		c4.6,0.1,9.2-0.5,13.8,0.1l-1.7-1.3c0.8,5.8-0.2,11.7-0.6,17.4C658.8,290,662.3,290,662.3,287.8z"/>
	<path class="st2" d="M670.5,311.5l-35.2-1.7c-2.3-0.1-2.3,3.4,0,3.5l35.2,1.7C672.7,315.1,672.7,311.6,670.5,311.5z"/>
	<path class="st2" d="M670.5,341.9c0-1-0.8-1.8-1.8-1.8c-11.2,0-22.3-0.5-33.4-1.2c-2.3-0.2-2.3,3.4,0,3.5
		c11.1,0.8,22.3,1.2,33.4,1.2C669.7,343.7,670.5,342.9,670.5,341.9z"/>
	<path class="st2" d="M662.4,277.6c0-1-0.8-1.8-1.8-1.8c-3.9-0.2-7.7-0.2-11.6-0.2c-1,0-1.8,0.8-1.8,1.8s0.8,1.8,1.8,1.8
		c3.9,0,7.7,0,11.6,0.2C661.6,279.3,662.4,278.5,662.4,277.6z"/>
	<path class="st2" d="M617,320.3c-0.1-2.3-3.6-2.3-3.5,0c0.5,12.1,0.5,24.2-0.2,36.3l1.8-1.8c-6.4,0.2-12.8,0.9-19.2,0.1
		c-0.5-0.1-1-0.2-1.5-0.2c0,0-0.5-0.1-0.3,0.1c0.1,0.1,0,0.1,0-0.2s0-0.7,0-1.1c0-1.2,0-2.5,0-3.7c0-2.7,0-5.4,0-8.2
		c0.1-5.3,0.2-10.6,0.5-15.9c0.1-1.4,0.1-2.9,0.2-4.3c0-0.6,0.1-1.2,0.1-1.8c0.1-0.3,0.1-0.5,0.1-0.8c0,0.5-1.2,0.2,0.2,0.4
		c1.5,0.1,2.9,0.1,4.4-0.1l4.1-0.1c2.7,0,5.5-0.2,8.2-0.1c1.1,0,1.6,0.2,1.9,1.3c0.1,0.9,0.1,1.7,0,2.6c-0.2,2.3,3.3,2.2,3.5,0
		c0.3-2.6-0.1-6-3-7c-1.5-0.4-3-0.5-4.5-0.4l-5.9,0.1l-5.5,0.1c-1.6-0.1-3.1-0.1-4.7,0.2c-2.9,0.8-2.3,5-2.4,7.3
		c-0.4,6.7-0.6,13.3-0.6,20c0,3.2,0,6.5,0,9.7c0,1.3-0.2,2.9,0.6,4.1c0.8,0.9,2,1.5,3.2,1.5c6.9,1,13.9,0.3,20.8,0.1
		c1,0,1.7-0.8,1.8-1.8C617.5,344.5,617.5,332.4,617,320.3L617,320.3z"/>
	<path class="st2" d="M605.9,316.2c0,1,0.8,1.8,1.8,1.8s1.7-0.8,1.8-1.8c0.2-2.6,0.3-5.1,0.2-7.7c-0.1-2.1,0-5-2.4-5.9
		c-1-0.2-2.1-0.3-3.2-0.3c-1.2-0.1-2.3,0.2-3.2,1c-0.6,0.7-1.1,1.6-1.2,2.5c-0.2,1.2-0.3,2.3-0.4,3.5c-0.2,2.2-0.4,4.5-0.5,6.7
		c0,1,0.8,1.8,1.8,1.8s1.8-0.8,1.8-1.8c0.1-2.4,0.3-4.9,0.5-7.3c0.1-0.9,0.2-1.9,0.4-2.8c0.1-0.2,0.1-0.2,0,0l0.2-0.3
		c0,0.1-0.1,0.2-0.2,0.2c0.1-0.1,0.2-0.1,0,0h0.1c0.1,0,0.3,0,0.4,0h0.9c0.5,0,1,0,1.6,0c-0.2-0.1-0.2,0,0,0c-0.1,0-0.1-0.1-0.2-0.1
		c-0.1-0.2-0.1-0.2,0,0c-0.1-0.2,0-0.2,0,0s0,0.2,0,0c0,0.1,0,0.2,0,0.3c0,0.2,0,0.5,0,0.7c0.1,0.6,0.1,1.3,0.1,1.9
		C606.1,311.3,606,313.8,605.9,316.2L605.9,316.2z"/>
	<path class="st2" d="M614,328.6c-6.6-0.4-13.3-0.5-19.9-0.2c-2.3,0.1-2.3,3.6,0,3.5c6.6-0.2,13.3-0.1,19.9,0.2
		C616.3,332.3,616.3,328.7,614,328.6z"/>
	<path class="st2" d="M613.5,343.7c-6.6,0.2-13.1,0.2-19.7-0.1c-2.3-0.1-2.3,3.4,0,3.5c6.6,0.3,13.1,0.4,19.7,0.1
		C615.8,347.1,615.8,343.6,613.5,343.7z"/>
	<path class="st2" d="M726.3,326.7c2.1,0.7,3.1-2.7,0.9-3.4c-7.3-2.3-14.8-3.5-22.4-3.7c-6.1-0.1-13.4,0.2-18.8,3.6
		c-2.4,1.5-3.3,4.5-1,6.6c1.2,0.9,2.6,1.4,4.1,1.5c1.6,0.2,3.2,0.4,4.8,0.6c6.8,0.9,13.6,1.1,20.4,0.6c4.6-0.5,12.8-1.1,14.1-6.9
		c0.5-2.2-2.9-3.1-3.4-0.9s-3.1,2.9-5,3.3c-3.2,0.7-6.4,1.1-9.6,1.2c-5.5,0.1-11.1-0.2-16.6-0.9c-0.8-0.1-7-0.3-6.8-1.6
		c0.1-0.7,2.6-1.5,3.2-1.8c1.2-0.4,2.4-0.8,3.7-1C704.6,321.8,716.1,323.4,726.3,326.7L726.3,326.7z"/>
	<path class="st2" d="M726.7,323.8c-1,0-1.8,0.8-1.8,1.8c-0.1,3.7-0.2,7.4-0.4,11c0,1,0.8,1.8,1.8,1.8s1.8-0.8,1.8-1.8
		c0.1-3.7,0.2-7.4,0.4-11C728.5,324.6,727.7,323.8,726.7,323.8z"/>
	<path class="st2" d="M685.7,326.1c-1,0-1.8,0.8-1.8,1.8v8.2c0,1,0.8,1.8,1.8,1.8s1.8-0.8,1.8-1.8v-8.2
		C687.5,326.9,686.7,326.1,685.7,326.1z"/>
	<path class="st2" d="M726.2,339.4c2.2-0.6,1.3-4-0.9-3.4c-6.5,1.7-13.1,2.5-19.8,2.5c-3.3,0-6.7-0.2-10-0.7c-2.8-0.2-5.6-1.2-8-2.7
		c-1.9-1.3-3.6,1.7-1.8,3c2.7,1.7,5.7,2.7,8.8,3.1c3.4,0.5,6.9,0.7,10.4,0.8C712.1,342,719.3,341.1,726.2,339.4L726.2,339.4z"/>
	<path class="st2" d="M728.2,336.4c0-1-0.8-1.8-1.8-1.8s-1.8,0.8-1.8,1.8c0,7.1,0.1,14.2,0.1,21.3c0,1,0.8,1.8,1.8,1.8
		s1.8-0.8,1.8-1.8C728.3,350.6,728.2,343.4,728.2,336.4L728.2,336.4z"/>
	<path class="st2" d="M685.7,334.6c-1,0-1.8,0.8-1.8,1.8v19.1c0,1,0.8,1.8,1.8,1.8s1.8-0.8,1.8-1.8v-19.1
		C687.5,335.4,686.7,334.6,685.7,334.6z"/>
	<path class="st2" d="M725.2,356.5c-2.5,2.3-6.7,2.6-10,3c-3.7,0.4-7.4,0.5-11.1,0.3c-6.1-0.4-12.5-2.1-17.5-5.8
		c-1.8-1.4-3.6,1.7-1.8,3c5.6,4.2,12.9,6,19.8,6.3c4.2,0.2,8.5,0,12.6-0.6c3.7-0.6,7.5-1.1,10.3-3.8
		C729.3,357.4,726.8,354.9,725.2,356.5z"/>
	<path class="st2" d="M134.3,400.5c-2-1-3.8,2.1-1.8,3c5.5,2.5,10.7,5.5,16,8.3c10.7,5.5,21.7,10.2,32.4,15.7
		c5.6,2.8,11,5.8,16.4,8.9c2.7,1.5,5.4,3.1,8.1,4.6c2.4,1.2,4.8,2.7,6.9,4.3l1.2-3c-3.4,0.2-6.9-0.1-10.3-0.6c-3.1-0.7-6.1-1.7-9-3
		c-22.9-8.5-45.8-17.1-68.5-26c-2.1-0.8-3,2.6-0.9,3.4c6.6,2.6,13.2,5.2,19.7,7.7c11.5,4.4,22.9,8.8,34.5,13l17.4,6.5
		c5.5,2,11.3,2.9,17.1,2.6c1.4-0.1,2.4-2,1.2-3c-2.5-1.9-5.1-3.6-7.9-5c-3-1.7-6-3.4-9.1-5.2c-11.1-6.2-22.4-11.9-33.8-17.3
		c-5.2-2.5-10.4-4.8-15.5-7.5C143.8,405.4,139.1,402.8,134.3,400.5L134.3,400.5z"/>
	<path class="st2" d="M124.5,403.4c-0.5-2.2-3.9-1.3-3.4,0.9c1.6,7,1.5,14.2,1.3,21.3c0,3-0.2,6-0.6,9c-0.4,2.4-1,5.6-2.8,7.3
		c-4.3,3.9-8.2-7.4-8.9-10c-2.8-10.4-3.1-22.3,2.3-31.9c0.4-0.8,0.2-1.8-0.6-2.3c-0.8-0.5-1.9-0.3-2.4,0.5
		c-3.5,6.3-5.1,13.5-4.8,20.8c0.1,6.4,1.4,12.8,3.8,18.7c1.2,2.8,2.9,5.9,5.6,7.5c2.5,1.6,5.8,1.1,7.7-1.1c2-2.2,2.9-5.4,3.4-8.3
		c0.5-3.4,0.8-6.8,0.8-10.2C126.1,418.2,126.2,410.7,124.5,403.4L124.5,403.4z"/>
	<path class="st2" d="M134.2,403.1c0.9-0.3,1.4-1.2,1.2-2.2c-0.3-0.9-1.3-1.4-2.2-1.2c-3.4,0.5-6.8,0.6-10.2,0.4
		c-3,0-6.1-0.6-8.9-1.8c-0.9-0.5-1.1-0.5-1-1.5c0.1-0.7,0.3-1.4,0.4-2.1c0.3-1.6,0.7-3.1,1.2-4.6c0.9-3,2-5.9,3.1-8.8
		c2-5.1,3.9-10.2,5.6-15.4c1.5-4.9,3.3-9.8,5.3-14.5c1.1-2.4,2.3-4.7,3.8-6.9c0.7-1.1,1.5-2.2,2.4-3.1c1-0.8,2.2-1.2,3.5-1.2
		c6-0.6,11.9,0.5,17.7,1.9c2.8,0.7,5.6,1.4,8.4,2.2c0.7,0.2,6.6,1.6,6.5,2.2c-0.1,1.2-7.1-0.3-8-0.5c-2.9-0.4-5.7-0.8-8.7-1.1
		c-3.1-0.3-6.1-0.6-9.1-0.7c-1.3-0.2-2.7-0.2-4,0.1c-1,0.5-1.8,1.4-2.1,2.4c-2.3,4.8-4.1,9.9-6.5,14.7c-1,2,2,3.8,3,1.8
		c1.5-3.1,2.8-6.4,4.2-9.6c0.6-1.5,1.3-3,2-4.5c0.2-0.5,0.4-0.9,0.6-1.3c0.3-0.5,0.2-0.4,0-0.3c0.5-0.3,2.2,0.1,2.7,0.1
		c7.7,0.5,15.2,1.4,22.8,2.6c2.6,0.4,5.9-0.1,6.5-3.2c0.5-2.7-2-4.1-4.2-4.8c-6.3-2.1-12.8-3.7-19.4-4.9c-3.3-0.6-6.7-0.9-10-0.9
		c-2.8,0.1-6.1,0.1-8.3,2.1c-2,2-3.7,4.4-4.9,6.9c-1.4,2.6-2.7,5.2-3.7,8c-2.2,5.5-3.8,11.1-5.8,16.7c-2.1,6-4.7,11.8-6.6,17.8
		c-1,2.9-1.7,5.9-2.1,9c-0.3,3.2,2.8,4.5,5.3,5.3C120.9,404.4,127.9,404,134.2,403.1L134.2,403.1z"/>
	<path class="st2" d="M141,389.4c10.2,10.6,19.3,22.3,29.5,32.9c1.6,1.6,4.1-0.9,2.5-2.5c-10.2-10.6-19.3-22.3-29.5-32.9
		C141.9,385.3,139.4,387.8,141,389.4z"/>
	<path class="st2" d="M185.7,429.2c1.3,1.7,4.4,0,3-1.8c-3.1-4.1-6.2-8.2-9.3-12.3c-5.6-7.5-11.3-14.9-16.9-22.4
		c-3.1-4.1-6.2-8.2-9.1-12.5c-2.6-3.8-6.2-8.3-6.1-13.1c0-2.3-3.5-2.3-3.5,0c-0.2,5.8,3.8,10.8,6.9,15.4
		c5.5,8.1,11.7,15.9,17.6,23.8C174.2,413.9,179.9,421.5,185.7,429.2L185.7,429.2z"/>
	<path class="st2" d="M142.8,389.9c0.8-0.5,1.1-1.6,0.6-2.4s-1.6-1.1-2.4-0.6c-2.5,1.6-4.6,3.7-6.4,6.1c-1.5,2.3-2.5,5-2.7,7.8
		c0,1,0.8,1.8,1.8,1.8s1.7-0.8,1.8-1.8c0-0.2,0-0.4,0-0.5c0,0.2,0,0.2,0-0.1c0-0.3,0.1-0.6,0.2-0.8c0.1-0.6,0.3-1.1,0.5-1.7
		c0.4-1,0.9-2,1.5-2.9c0.3-0.5,0.6-0.9,1-1.3c0.4-0.5,0.9-0.9,1.3-1.4C140.9,391.3,141.8,390.6,142.8,389.9L142.8,389.9z"/>
	<path class="st2" d="M151.1,355.1c1,0,1.7-0.8,1.8-1.8c0-1-0.8-1.8-1.8-1.8c-1.8,0.2-3.6,0.5-5.4,0.9c-3.2,0.9-6.6,2.7-7,6.4
		c-0.4,3.9,3.2,6.6,6.5,7.5c0.9,0.3,1.9-0.3,2.2-1.2c0.3-0.9-0.3-1.9-1.2-2.2c-0.8-0.2-1.5-0.5-2.1-0.9c-0.6-0.3-1.1-0.8-1.4-1.4
		l-0.2-0.3c0-0.2-0.1-0.2,0-0.1c-0.1-0.2-0.1-0.3-0.2-0.5c0-0.1,0-0.2,0-0.4c0,0.2,0,0.2,0,0s0-0.4,0-0.5c0,0.3,0.1-0.3,0.1-0.4
		c-0.1,0.3,0.1-0.1,0.1-0.2s0.4-0.6,0.2-0.3c0.1-0.1,0.2-0.2,0.3-0.4c0,0,0.4-0.4,0.3-0.3c-0.1,0.1-0.1,0.1,0.1-0.1l0.3-0.2
		c0.3-0.2,0.7-0.4,1-0.6c0.1,0,0.5-0.2,0.2-0.1l0.6-0.2c0.4-0.1,0.7-0.2,1.1-0.3c0.8-0.2,1.6-0.4,2.5-0.5l0.5-0.1
		c0.1,0,0.8-0.1,0.4-0.1l1.2-0.1L151.1,355.1z"/>
	<path class="st2" d="M152.5,354c-0.3-0.9-1.2-1.5-2.2-1.2c-0.9,0.3-1.5,1.2-1.2,2.2c-0.1-0.3,0,0,0,0.1s0,0.2,0,0.4
		c0,0.2,0,0.4,0,0.7c0,0.2,0,0.7,0,0.8c0,0.1,0,0.3,0,0.3s-0.1,0.4,0,0.2c0.1-0.2,0,0.3,0,0.3c0,0.1,0,0.2,0,0.3
		c0,0.2-0.2,0.4-0.2,0.7c-0.1,0.5-0.3,0.9-0.4,1.4c0,0.1-0.1,0.4,0,0.1l-0.1,0.3c-0.1,0.2-0.2,0.5-0.3,0.7c-0.2,0.4-0.5,0.8-0.8,1.2
		l-0.2,0.3l0,0c-0.2,0.2-0.3,0.4-0.5,0.6c-0.3,0.4-0.7,0.7-1.1,1c-0.7,0.7-0.7,1.8,0,2.5s1.8,0.7,2.5,0c3.6-3.2,5.4-8,4.7-12.8
		L152.5,354z"/>
	<path class="st2" d="M151.3,351.6c-2.3,0.1-2.3,3.6,0,3.5c2,0,3.6,2.2,4.4,3.8c0.9,1.9,1.2,4,0.6,6c-0.5,1.9-1.9,3.4-3.9,3.9
		c-1.7,0.4-3.4-0.5-4-2.1c-0.5-0.8-1.5-1.1-2.3-0.6s-1.1,1.6-0.6,2.4c1.2,2.4,3.7,3.9,6.4,3.9c5.3-0.1,8.7-5.4,8.3-10.3
		c-0.2-2.5-1-4.8-2.4-6.8C156.2,353.4,154.1,351.5,151.3,351.6L151.3,351.6z"/>
	<path class="st2" d="M157.9,367.8c-1,0-1.7,0.8-1.8,1.8c0,1,0.8,1.8,1.8,1.8c1.3-0.1,2.6,0,3.9,0.3c0.6,0.1,1.1,0.3,1.7,0.6
		c0.3,0.1,0.5,0.3,0.8,0.4l0.4,0.3c0.2,0.2-0.2-0.1,0.1,0.1c0.4,0.3,0.8,0.7,1.1,1.1l0.1,0.1l0.2,0.3c0.1,0.1,0.1,0.2,0.2,0.3
		l0.1,0.3l0.1,0.3c0,0.1,0,0.2,0.1,0.4c0.1,0.1,0.1,0.2,0.1,0.4c0-0.3,0-0.1,0,0c0,0.2,0,0.4,0,0.7v0.3c0-0.3,0-0.1,0,0
		c-0.1,0.3-0.1,0.5-0.2,0.8c0.1-0.3-0.1,0.3-0.2,0.3c0,0.1-0.4,0.6-0.2,0.3c-0.1,0.2-0.3,0.3-0.4,0.5c-0.3,0.3,0.2-0.1-0.1,0.1
		l-0.3,0.2c-0.1,0.1-0.2,0.1-0.3,0.1c0.1-0.1,0.2-0.1-0.1,0c-0.4,0.1-0.9,0.2-1.4,0.1c0,0-0.6,0-0.3,0l-0.4-0.1l-0.7-0.2l-0.3-0.1
		c0.1,0.1,0.2,0.2-0.1,0c-0.2-0.1-0.4-0.2-0.6-0.3c-0.3-0.2-0.5-0.3-0.8-0.5c0.2,0.1-0.3-0.3-0.3-0.3c-0.2-0.2-0.4-0.3-0.5-0.5
		l-0.2-0.3c0.1,0.1,0.2,0.2,0-0.1c-0.6-0.9-1-1.9-1.2-2.9s-0.2-1.9,0-2.9c0.2-0.9-0.3-1.9-1.2-2.2c-0.9-0.2-1.9,0.3-2.2,1.2
		c-0.8,3.4,0.1,7.1,2.5,9.7c1.9,2.1,4.8,3.2,7.6,3c3-0.4,5.3-2.8,5.5-5.8c0.2-2.9-1.1-5.6-3.5-7.2c-2.6-1.7-5.6-2.4-8.6-2.1
		L157.9,367.8z"/>
	<path class="st2" d="M141.2,365.4c0.4-0.1,0.8-0.4,1.1-0.8c0.2-0.4,0.3-0.9,0.2-1.4c-0.3-0.9-1.2-1.5-2.2-1.2
		c-0.3,0.1-0.6,0.2-0.8,0.3l-0.4,0.1h-0.2c-0.2,0.1,0.4,0,0.2,0c-0.3,0-0.5,0-0.8,0h-0.4h-0.2l0,0h-0.2l-0.4-0.1
		c-0.3-0.1-0.5-0.2-0.8-0.3c0.1,0,0.4,0.1,0.1,0l-0.2-0.1c-0.1-0.1-0.2-0.1-0.4-0.2s-0.5-0.3-0.7-0.5c-0.4-0.2-0.9-0.3-1.3-0.2
		c-0.4,0.1-0.8,0.4-1.1,0.8c-0.2,0.4-0.3,0.9-0.2,1.3s0.4,0.8,0.8,1.1C135.6,366,138.6,366.4,141.2,365.4L141.2,365.4z"/>
	<path class="st2" d="M149.4,380.7c0.9-0.3,1.5-1.2,1.2-2.2c-0.3-0.9-1.2-1.4-2.2-1.2c-2.2,0.8-4.6,0.2-6.8-0.4
		c-2-0.5-3.8-1.5-5.3-2.9c-2.5-2.7-2.1-7.4-0.9-10.6c0.3-0.9-0.3-1.9-1.2-2.2c-0.9-0.2-1.9,0.3-2.2,1.2c-1.7,4.5-1.6,10.4,1.8,14.1
		c1.9,1.9,4.3,3.2,7,3.8C143.5,381.1,146.7,381.8,149.4,380.7L149.4,380.7z"/>
	<path class="st2" d="M165.9,445c0-1-0.8-1.8-1.8-1.8h-109c-1,0-1.8,0.8-1.8,1.8s0.8,1.8,1.8,1.8h109
		C165.1,446.8,165.9,446,165.9,445z"/>
	<path class="st2" d="M79.6,443.2L79.6,443.2c-0.5,0.8-0.2,1.9,0.6,2.4c0.8,0.5,1.9,0.2,2.4-0.6c2.9-5,5.4-10.3,7.3-15.8
		c0-0.1,0.1-0.3,0.1-0.4c0-1-0.8-1.8-1.7-1.8c-9.1-0.3-18.1-0.5-27.2-0.6c-0.1,0-0.3,0-0.4,0.1c-1,0.2-1.5,1.2-1.3,2.2
		c1.8,5.8,4.4,11.3,7.7,16.4c1.2,1.9,4.2,0.1,3-1.8c-3.1-4.9-5.5-10.1-7.3-15.6l-1.7,2.2c9.1,0.1,18.1,0.2,27.2,0.6l-1.7-2.2
		C84.7,433.4,82.4,438.5,79.6,443.2L79.6,443.2z"/>
	<path class="st2" d="M75.2,426.4c-1,0-1.8,0.8-1.8,1.8s0.8,1.8,1.8,1.8c5.1,0,8.3-4.5,10.3-8.7c2.3-4.4,3.1-9.4,2.3-14.3
		c-0.1-0.3-0.2-0.5-0.4-0.7c-0.7-0.7-1.8-0.7-2.5,0C79,411.8,75,419,73.2,426.8c-0.5,2.2,2.9,3.1,3.4,0.9c1.6-7.2,5.4-13.8,10.8-19
		l-2.9-0.8c0.6,3.9,0,7.8-1.7,11.3C81.2,422.1,79,426.4,75.2,426.4L75.2,426.4z"/>
	<path class="st2" d="M72.3,426c-0.4,2.2,3,3.2,3.4,0.9c1.7-9.8-4.9-17.6-11.1-24.2c-0.2-0.2-0.5-0.3-0.7-0.4
		c-0.9-0.3-1.9,0.3-2.2,1.2c-3.1,9.9,1.2,20.6,10.3,25.6c2,1.1,3.8-2,1.8-3c-7.7-4.2-11.3-13.2-8.7-21.6l-2.9,0.8
		C67.3,410.8,73.7,417.7,72.3,426L72.3,426z"/>
	<polygon class="st3" points="338.9,459.9 324.3,469.8 304.1,487.9 289,525.8 314.9,534.1 338.3,537.9 347,471.5 	"/>
	<path class="st2" d="M731.3,662.4c0-1-0.8-1.8-1.8-1.8H607.9c-1,0-1.8,0.8-1.8,1.8s0.8,1.8,1.8,1.8h121.7
		C730.5,664.2,731.3,663.4,731.3,662.4z"/>
	<path class="st2" d="M247.6,662.5c0-1-0.8-1.8-1.8-1.8H109.2c-1,0-1.8,0.8-1.8,1.8s0.8,1.8,1.8,1.8h136.6
		C246.8,664.3,247.6,663.5,247.6,662.5z"/>
	<path class="st1" d="M730.3,472c1.3,1.9,4.3,0.1,3-1.8c-5.8-8.4-13.6-15.3-22.6-20.2c-16.8-9.4-36-12.7-54.8-15.3
		c-21.2-2.9-43.3-5.2-62.2-15.9c-0.8-0.5-1.9-0.2-2.4,0.6c-0.5,0.8-0.2,1.9,0.6,2.4c10.4,5.9,21.8,9.4,33.4,11.7
		c19.9,4,40.5,4.9,60.1,10.2C702.7,448.5,720,456.7,730.3,472L730.3,472z"/>
	<path class="st1" d="M761.1,549.5c1.1,2,4.1,0.2,3-1.8c-4-7.2-8.9-14-14.5-20.1c-21.6-23.7-51.3-37.1-80-50c-2.1-0.9-3.9,2.1-1.8,3
		c8.5,3.8,17,7.6,25.3,11.7C719.9,505.5,746.4,522.6,761.1,549.5L761.1,549.5z"/>
	<path class="st1" d="M700.6,157.4c-11.9-33-33.9-61.4-62.9-81.2c-1.9-1.3-3.6,1.8-1.8,3c6.2,4.2,12.1,8.9,17.6,13.9
		c19.6,17.9,34.6,40.2,43.7,65.1C697.9,160.5,701.3,159.5,700.6,157.4z"/>
	<path class="st1" d="M692.9,90.4c1.2,1.9,4.2,0.2,3-1.8c-4.8-7.9-10.4-15.4-16.7-22.3c-11.1-12.2-24.1-22.6-38.4-30.7
		c-14.3-8.2-29.9-13.9-46.1-17c-2.2-0.4-3.2,3-0.9,3.4c9,1.7,17.8,4.2,26.3,7.5c15,5.9,28.9,14.2,41.3,24.6
		C673.8,64.4,684.4,76.6,692.9,90.4L692.9,90.4z"/>
	<path class="st1" d="M601,60.7c2.1,0.8,3-2.6,0.9-3.4c-5.4-2-10.7-4.3-15.8-6.8c-18.1-9-34.4-21.3-48-36.2c-1.5-1.7-4,0.8-2.5,2.5
		c4,4.4,8.2,8.5,12.6,12.4C563.7,42.8,581.6,53.5,601,60.7L601,60.7z"/>
	<circle class="st1" cx="619.6" cy="66.9" r="4.8"/>
	<circle class="st1" cx="646.5" cy="472.8" r="4.8"/>
	<path class="st2" d="M500.6,468c0.5-0.8,0.2-1.9-0.6-2.4s-1.9-0.2-2.4,0.6c-10.3,17.1-22.3,33-34.1,49.1
		c-5.3,7.2-10.6,14.5-15.7,21.9c-2.2,3-4.3,6.2-6.1,9.4c-1.3,2.3-2.4,4.7-3.7,7c-1.2,2.3-2.8,4.4-4.8,6.2c-0.9,0.7-1.9,1.2-3,1.4
		c-0.7,0.1-1.4,0-2-0.3c-1.8-1.1-3.4-2.5-4.6-4.3c-1.6-2.1-3.2-4.4-4.5-6.7c-2.5-4.2-4.7-8.6-7.3-12.7c-4.8-7.5-10-14.8-15-22.2
		l-31.4-46.4c-1.3-1.9-4.3-0.1-3,1.8l36.4,53.7c4.1,6.1,8.6,12,12.1,18.4c2.7,5.1,5.6,10,8.9,14.7c2.6,3.5,6,8,10.8,7.5
		c5.7-0.6,9.1-6.3,11.6-10.8c1.2-2.3,2.3-4.7,3.7-6.9c2.4-3.9,5-7.6,7.6-11.3c5.3-7.6,10.8-15,16.3-22.4
		C480.2,498.5,491.1,483.7,500.6,468L500.6,468z"/>
	<path class="st2" d="M502.3,465.8c0.3-2.2-3.1-3.2-3.4-0.9c-2.3,14.3-4.5,28.6-6.6,43c-3.8,25.5-7.1,51-9.5,76.7
		c-2.4,25.6-3.3,51.4-2.8,77.1c0,2.3,3.5,2.3,3.5,0c-0.4-14.5-0.1-28.9,0.5-43.4c1.2-25.4,3.8-50.8,7-76
		C494.4,516.7,498.4,491.2,502.3,465.8L502.3,465.8z"/>
	<path class="st2" d="M362.3,470.5c-0.3,14-0.8,28-1.3,42c-1,24.8-2.3,49.6-3.9,74.4c-1.7,24.8-3.7,49.5-6,74.2
		c-0.2,2.3,3.3,2.2,3.5,0c1.3-14,2.5-27.9,3.6-41.9c2-24.7,3.6-49.5,4.8-74.3c1.3-24.8,2.2-49.6,2.7-74.4
		C365.8,468.2,362.3,468.2,362.3,470.5z"/>
	<path class="st2" d="M651.7,380.7c0-1-0.8-1.8-1.8-1.8h-59.6c-13.3,0-26.7-0.3-40.1,0.3c-3,0.3-5.9,0.4-8.9,0.3
		c-2.3,0-4.5-1-6.1-2.7c-1.9-2.2-2.2-5.5-2.5-8.3c-0.4-3.1-0.5-6.2-0.6-9.3c-0.1-6.4,0.2-12.7,0.4-19.1c0.2-6.6,0.1-13.2,0.1-19.7
		v-40.1c0-6.7,0-13.6,0-20.2c0-6.7-0.4-13.3-0.2-20c-0.1-3,0.2-5.9,0.8-8.8c0.5-2.1,2.3-3.7,4.5-3.8c2.2-0.2,4.4-0.1,6.6,0.2
		c2.9,0.2,5.9,0.1,8.9,0.1c13.2,0,26.5-0.2,39.7-0.2c26.8-0.1,53.6,0,80.4,0h40.2c13.3,0,26.6-0.8,39.9-0.3
		c4.9,0.2,11.3,0.5,13.7,5.6c1.8,3.9,1,8.7,0.8,12.9c-0.3,6-0.1,12.1-0.1,18.1c0,6.7,0,13.3,0,20c0,13.1-0.2,26.3,0.2,39.5
		s1,26.4,0.6,39.5c0,2.9-0.2,5.9-0.6,8.8c-0.2,1.7-0.9,3.2-1.9,4.5c-2,2.4-5.3,3-8.3,3.2c-3.4,0.2-6.7-0.1-10.1-0.3
		c-6-0.2-11.9,0-17.9,0H650c-1,0-1.8,0.8-1.8,1.8s0.8,1.8,1.8,1.8h81.9c5.8,0,11.5-0.2,17.3,0.1c6.4,0.3,14.9,1.3,19.6-4.2
		c3.1-3.7,3-8.8,3.3-13.4c0.3-6.8,0.3-13.7,0.2-20.6c-0.3-13.6-0.8-27-0.8-40.7s0.1-27.4,0.1-41.1c0-6.1-0.2-12.2,0.2-18.3
		c0.3-4.5,0.7-9.3-1.4-13.4c-2.5-5-8.1-6.6-13.3-7c-6.7-0.5-13.5-0.4-20.2-0.2c-27.7,0.6-55.2,0.3-82.8,0.3s-55.3,0-82.9,0.2
		c-6.9,0-13.8,0-20.7,0c-2.6,0-5.2-0.1-7.8-0.3c-2.4-0.3-4.7-0.2-7,0.5c-5.7,1.9-6.1,8.2-6.3,13.3c-0.3,6.8,0,13.7,0.1,20.5
		c0.2,13.9,0,27.8,0,41.6c0,13.7,0.3,27.4-0.1,41.1c-0.2,6.6-0.5,13.1-0.3,19.7c0.1,3.2,0.3,6.5,0.8,9.7c0.4,2.8,0.9,5.8,2.6,8.1
		c3.4,4.6,9,4.7,14.2,4.4c6.9-0.3,13.8-0.5,20.7-0.5h82.9C650.9,382.5,651.7,381.7,651.7,380.7z"/>
	<path class="st2" d="M287.3,162c0-1-0.8-1.8-1.8-1.8H226c-13.3,0-26.7-0.3-40.1,0.3c-3,0.3-5.9,0.4-8.9,0.3c-2.3,0-4.5-1-6.1-2.7
		c-1.9-2.2-2.2-5.5-2.5-8.3c-0.4-3.1-0.6-6.2-0.6-9.3c-0.1-6.4,0.2-12.7,0.4-19.1c0.2-6.6,0.1-13.2,0.1-19.7V61.6
		c0-6.7,0-13.6,0-20.2c0-6.7-0.4-13.3-0.2-20c-0.1-3,0.2-5.9,0.8-8.8c0.5-2.1,2.3-3.7,4.5-3.8c2.2-0.2,4.4-0.1,6.6,0.2
		c2.9,0.2,5.9,0.1,8.9,0.1c13.2,0,26.5-0.2,39.7-0.2c26.8-0.1,53.6,0,80.4,0h40.1c13.3,0,26.6-0.8,39.9-0.3
		c4.9,0.2,11.3,0.5,13.7,5.6c1.8,3.9,1,8.8,0.8,12.9c-0.3,6-0.1,12.1-0.1,18.1c0,6.7,0,13.3,0,20c0,13.1-0.2,26.3,0.2,39.5
		s1,26.4,0.6,39.5c0,2.9-0.2,5.9-0.6,8.8c-0.2,1.7-0.9,3.2-1.9,4.5c-2,2.4-5.3,3-8.3,3.2c-3.4,0.2-6.7-0.1-10.1-0.3
		c-6-0.2-11.9,0-17.9,0h-79.8c-1,0-1.8,0.8-1.8,1.8s0.8,1.8,1.8,1.8h81.9c5.8,0,11.5-0.2,17.3,0.1c6.4,0.3,14.9,1.3,19.6-4.2
		c3.1-3.7,3-8.8,3.3-13.4c0.3-6.8,0.3-13.7,0.2-20.6c-0.3-13.6-0.8-27-0.8-40.7s0.1-27.4,0.1-41.1c0-6.1-0.2-12.2,0.2-18.3
		c0.3-4.5,0.7-9.3-1.4-13.4c-2.5-5-8.1-6.6-13.3-7C385.8,4.8,379,5,372.2,5.1c-27.7,0.6-55.2,0.3-82.8,0.3s-55.3,0-82.9,0.2
		c-6.9,0-13.8,0-20.7,0c-2.6,0-5.2-0.1-7.8-0.3c-2.4-0.3-4.7-0.2-7,0.5c-5.7,1.9-6.1,8.2-6.3,13.3c-0.3,6.8,0,13.7,0.1,20.5
		c0.2,13.9,0,27.8,0,41.6c0,13.7,0.3,27.4-0.1,41.1c-0.2,6.6-0.5,13.1-0.3,19.7c0.1,3.2,0.3,6.5,0.8,9.7c0.4,2.8,0.9,5.8,2.6,8.1
		c3.4,4.6,9,4.7,14.2,4.4c6.9-0.3,13.8-0.5,20.7-0.5h82.9C286.5,163.8,287.3,163,287.3,162z"/>
	<path class="st2" d="M137.9,460.9c0-1-0.8-1.8-1.8-1.8H76.4c-13.3,0-26.7-0.3-40.1,0.3c-3,0.3-5.9,0.4-8.9,0.3
		c-2.3,0-4.5-1-6.1-2.7c-1.9-2.2-2.2-5.5-2.5-8.3c-0.4-3.1-0.5-6.2-0.6-9.3c-0.1-6.4,0.2-12.7,0.4-19.1c0.2-6.6,0.1-13.2,0.1-19.7
		v-40.1c0-6.7,0-13.6,0-20.2c0-6.7-0.4-13.3-0.2-20c-0.1-3,0.2-5.9,0.8-8.8c0.5-2.1,2.3-3.7,4.5-3.8c2.2-0.2,4.4-0.1,6.6,0.2
		c3,0.2,5.9,0.1,8.9,0.1c13.2,0,26.5-0.2,39.7-0.2c26.8-0.1,53.6,0,80.4,0h40.3c13.3,0,26.6-0.8,39.9-0.3c4.9,0.2,11.3,0.5,13.7,5.6
		c1.8,3.9,1,8.8,0.8,12.9c-0.3,6-0.1,12.1-0.1,18.1c0,6.7,0,13.3,0,20c0,13.2-0.2,26.3,0.2,39.5s1,26.3,0.6,39.5
		c0,3-0.2,5.9-0.6,8.8c-0.2,1.7-0.9,3.2-1.9,4.5c-2,2.4-5.3,3-8.2,3.2c-3.4,0.2-6.7-0.1-10.1-0.3c-6-0.2-12,0-17.9,0h-79.8
		c-1,0-1.8,0.8-1.8,1.8s0.8,1.8,1.8,1.8H218c5.8,0,11.5-0.2,17.3,0.1c6.4,0.3,14.9,1.3,19.6-4.2c3.1-3.7,3.1-8.7,3.3-13.3
		c0.3-6.9,0.3-13.7,0.2-20.6c-0.3-13.6-0.8-27-0.8-40.7s0.1-27.4,0.1-41c0-6.1-0.2-12.2,0.2-18.3c0.3-4.5,0.7-9.3-1.4-13.4
		c-2.5-5-8.1-6.6-13.3-7c-6.7-0.4-13.5-0.5-20.2-0.2c-27.7,0.6-55.2,0.3-82.8,0.3s-55.3,0-82.9,0.2c-6.9,0-13.8,0-20.7,0
		c-2.6,0-5.2-0.1-7.8-0.3c-2.4-0.3-4.7-0.2-7,0.5c-5.7,1.9-6,8.2-6.3,13.3c-0.3,6.8,0,13.7,0.1,20.5c0.2,13.9,0,27.7,0,41.6
		c0,13.7,0.3,27.4-0.1,41.1c-0.2,6.6-0.5,13.1-0.3,19.7c0.1,3.2,0.4,6.5,0.8,9.7c0.4,2.8,0.9,5.8,2.6,8.1c3.4,4.6,9,4.7,14.2,4.4
		c6.9-0.3,13.8-0.5,20.7-0.5h82.9C137.1,462.7,137.9,461.9,137.9,460.9z"/>
	<path class="st2" d="M310.5,476.2c0.9-2.1-2.1-3.9-3-1.8l-4.9,11.3c-13.4,30.8-26.5,61.7-37.8,93.4c-5.7,15.8-10.9,31.8-15.3,48
		c-3.8,14-6.9,29-3.7,43.4c2.7,12.3,12,27.2,26.4,26.3c6.9-0.4,12.8-4.4,17.5-9.2c5.1-5.4,9.5-11.5,13.1-18
		c7.7-13.4,13.1-28,17.6-42.8c4.9-15.8,8.9-31.9,12.5-48.1c7.1-32.8,11.7-66,16.1-99.2c0-1-0.8-1.8-1.8-1.8s-1.7,0.8-1.8,1.8
		c-0.5,3.9-1,7.8-1.6,11.7c-4.3,32.1-9.1,64.2-16.4,95.7c-3.6,15.6-7.7,31.1-12.7,46.3c-4.7,14.2-10.5,28.1-18.8,40.6
		c-6.6,9.9-18.2,24.4-31.8,17.7c-12.5-6.2-16.4-22.2-16.2-35c0.3-14.9,4.9-29.5,9.1-43.6c4.7-15.6,10-31.1,15.7-46.3
		C284.4,536.2,297.4,506.2,310.5,476.2L310.5,476.2z"/>
	<path class="st2" d="M287.2,527.2c15.7,6.8,32.4,11.1,49.5,12.8c2.3,0.2,2.2-3.3,0-3.5c-16.4-1.7-32.5-5.8-47.7-12.3
		C286.9,523.2,285.1,526.3,287.2,527.2z"/>
	<path class="st2" d="M283.7,535.6c-0.8-0.4-1.8-0.2-2.3,0.6s-0.3,1.9,0.5,2.4c8.2,4.6,16.8,8.2,25.8,10.9c4.5,1.3,9,2.4,13.6,3.2
		c4.4,0.8,9.5,2,13.8,0.5c2.1-0.8,1.2-4.1-0.9-3.4c-2.2,0.6-4.4,0.7-6.6,0.3c-2.2-0.3-4.4-0.6-6.5-1c-4.3-0.8-8.6-1.8-12.8-3.1
		C299.7,543.4,291.5,539.9,283.7,535.6L283.7,535.6z"/>
	<path class="st2" d="M375.4,426c1.5,3.8-1.6,7.6-4.4,10.5c-20.5,20.9-42.4,40.4-65.6,58.2c-0.3,0.3-0.6,0.4-1,0.5
		c-0.6,0-1.3-0.3-1.7-0.8c-3.4-3-7.6-9-10.4-12.6c23.4-18.4,43.9-38.6,65.1-59.6c1.6-1.8,3.5-3.3,5.6-4.4c2.2-1.1,4.7-1.1,6.9,0.1
		c2.7,1.8,4.7,4.6,5.5,7.9"/>
	<path class="st2" d="M373.7,426.3c0.5,2.2,3.9,1.3,3.4-0.9c-0.9-3.7-3.2-6.9-6.4-8.9c-3.3-2-7.3-1.2-10.3,0.9c-3,2-5.5,4.9-8.1,7.4
		c-2.8,2.8-5.6,5.6-8.4,8.3c-5.6,5.5-11.2,10.9-16.9,16.3c-11.6,10.9-23.5,21.5-35.8,31.2c-0.7,0.7-0.7,1.8,0,2.5
		c2.4,3.1,4.7,6.4,7.3,9.4c1.1,1.4,2.4,2.7,3.8,3.8c2.1,1.3,3.6,0.3,5.3-1c13.6-10.5,26.8-21.6,39.5-33.2
		c6.4-5.8,12.6-11.7,18.7-17.8c3-2.8,5.8-5.7,8.5-8.8c2.3-2.8,4.2-6.4,2.9-10.1c-0.7-2.1-4.1-1.2-3.4,0.9c1.3,3.9-2.6,7.4-5.1,10
		c-3.1,3.1-6.3,6.2-9.4,9.3c-11.3,11-23,21.5-35,31.6c-6,5-12.1,10-18.4,14.8c-0.4,0.4-0.9,0.8-1.4,1.1c-0.5,0.2-0.3,0.2-0.8-0.2
		c-0.5-0.4-1-0.9-1.4-1.4c-1-1.1-2-2.2-2.9-3.4c-2-2.5-3.9-5.1-5.9-7.6v2.5c6.5-5.1,12.8-10.4,19-15.8c11-9.7,21.6-19.8,32.1-30
		c5.2-5.1,10.3-10.5,15.7-15.4c2.1-1.9,5.3-4,8.2-2.6C371.2,420.7,373,423.2,373.7,426.3L373.7,426.3z"/>
	<ellipse transform="matrix(0.792 -0.6106 0.6106 0.792 -203.0204 295.0217)" class="st3" cx="331.4" cy="445.4" rx="6.1" ry="10"/>
	<ellipse transform="matrix(0.792 -0.6106 0.6106 0.792 -209.7373 291.3085)" class="st3" cx="322.6" cy="453.4" rx="5.4" ry="10"/>
	<ellipse transform="matrix(0.923 -0.3848 0.3848 0.923 -153.8835 156.1458)" class="st3" cx="313.2" cy="462.6" rx="5.4" ry="10"/>
	<path class="st2" d="M339,445.2c0.5,0.8,1.6,1.1,2.4,0.6s1.1-1.6,0.6-2.4c-1.7-3.7-4.7-6.8-8.3-8.7c-2.9-1.6-6.6-2.5-9.8-0.7
		c-3.3,1.8-3.8,5.8-3.3,9.2c0.6,3.1,1.9,6.1,3.8,8.6c1.8,2.7,4.2,5,7,6.6c2,1.1,3.8-1.9,1.8-3c-2.5-1.5-4.5-3.5-6.1-5.9
		c-1.5-2.1-2.5-4.4-3.1-6.8c-0.4-2.1-0.2-5.2,2.2-5.9c2.5-0.7,5.2,0.6,7.2,2C335.9,440.3,337.8,442.6,339,445.2L339,445.2z"/>
	<ellipse transform="matrix(0.923 -0.3848 0.3848 0.923 -156.9322 153.1486)" class="st3" cx="304.2" cy="468.7" rx="5.4" ry="10"/>
	<path class="st2" d="M303.9,459.3c2,1.1,3.8-1.9,1.8-3c-0.1,0-0.1-0.1-0.2-0.1c-3.3-1.7-7.4-0.4-9.1,2.9c-1.5,3.1-1.9,6.5-1.3,9.9
		c0.4,2.3,1.3,4.5,2.7,6.4c2.5,3.4,7.1,8.5,11.9,6.8c2.1-0.8,1.2-4.1-0.9-3.4c-0.7,0.3-1.5,0.2-2.2-0.1c-1-0.5-2-1.1-2.8-1.9
		c-1.6-1.5-3-3.2-4.1-5.1l-0.3-0.6c-0.2-0.4,0,0.1-0.1-0.2c-0.3-0.8-0.5-1.6-0.6-2.5c-0.2-1.6-0.2-3.1,0.1-4.7
		c0.1-1.6,0.8-3,1.8-4.2C301.5,458.7,302.9,458.6,303.9,459.3L303.9,459.3z"/>
	<path class="st2" d="M320.5,444.6c2.2,0.7,3.1-2.7,0.9-3.4c-2.6-0.7-5.3,0.3-6.9,2.3c-1.7,2.3-2.3,5.3-1.6,8.1
		c1,5.3,3.9,10,8.2,13.2c0.8,0.5,1.9,0.2,2.3-0.6c0.5-0.8,0.2-1.9-0.6-2.4c-3.1-2.4-5.3-5.7-6.3-9.5c-0.7-1.9-0.6-4.1,0.2-6
		C317.4,445,319,444.3,320.5,444.6L320.5,444.6z"/>
	<path class="st2" d="M312.9,453.1c2,1.1,3.8-1.9,1.8-3c-0.1,0-0.1-0.1-0.2-0.1c-3.3-1.7-7.4-0.4-9.1,2.9c-1.5,3.1-1.9,6.5-1.3,9.9
		c0.3,2.3,1.3,4.5,2.7,6.4c2.5,3.4,7.1,8.5,11.9,6.8c2.1-0.8,1.2-4.1-0.9-3.4c-0.7,0.3-1.5,0.2-2.2-0.1c-1-0.5-2-1.1-2.8-1.9
		c-1.6-1.5-3-3.2-4.1-5.1c-0.1-0.2-0.2-0.4-0.3-0.6c-0.2-0.4,0,0.1-0.1-0.2c-0.3-0.8-0.5-1.6-0.6-2.5c-0.2-1.6-0.2-3.1,0.1-4.7
		c0.2-1.4,0.7-3.2,1.8-4.2C310.4,452.5,311.8,452.4,312.9,453.1L312.9,453.1z"/>
	<path class="st3" d="M332.4,473.4c3.1,3.3,7.3,5.4,11.7,5.9c2.4,0.3,5.2-0.1,6.6-2c0.9-1.5,1.1-3.3,0.4-4.9s-1.8-2.9-3.1-4
		c-2.7-2.4-6.1-4-9.6-4.6c-3-0.4-7-0.7-8.2,2.7C329.3,468.9,330.8,471.5,332.4,473.4z"/>
	<path class="st2" d="M329.6,468.1c0.9,0.2,1.9-0.3,2.2-1.2c0.9-2.5,5.2-1.7,7.2-1.3c3.6,0.8,6.8,2.7,9.3,5.5
		c1.1,1.1,1.6,2.8,1.3,4.3c-0.5,1.2-1.7,2-3,2.1c-3.4,0.2-6.8-0.7-9.6-2.7c-2.4-1.5-6.1-4.6-5.1-7.9c0.7-2.2-2.7-3.1-3.4-0.9
		c-1.6,5.5,3.9,10.4,8.2,12.7c3.8,2,8.9,3.4,13,1.6c2.1-1,3.5-3.1,3.6-5.4c0-2.5-1-4.9-2.8-6.6c-3.3-3.5-7.8-5.8-12.6-6.4
		c-3.8-0.4-7.9,0-9.4,4.1C328.2,466.9,328.8,467.8,329.6,468.1z"/>
	<path class="st3" d="M292.5,481.7c-4.1,5.5-9.3,11.6-12.1,17.9c8-0.4,16-1.8,23.7-4.1"/>
	<path class="st2" d="M304.6,497.2c2.2-0.6,1.2-4-0.9-3.4c-7.6,2.3-15.4,3.6-23.3,4l1.5,2.7c3-6.6,7.7-12.2,12-17.9l0,0
		c0.5-0.8,0.2-1.9-0.6-2.4c-0.8-0.5-1.9-0.2-2.4,0.6c-4.3,5.7-9.1,11.3-12,17.9c-0.1,0.3-0.2,0.5-0.2,0.8c0,1,0.8,1.8,1.7,1.8
		C288.6,500.9,296.8,499.5,304.6,497.2L304.6,497.2z"/>
	<path class="st3" d="M425.6,678.7c-7.9,0.2-20.6,2.6-27.8-0.4s-13.5-10.1-13-17.9c0.2-2.3,0.8-4.5,1.9-6.6
		c3.7-7.6,11.3-12.8,19.4-15.1c7.9-2.4,16.2-3.5,24.5-3"/>
	<path class="st2" d="M430.6,637.5c2.3,0.1,2.3-3.4,0-3.5c-9.8-0.6-19.6,0.9-28.8,4.5c-6.6,2.7-12.6,7.1-16.1,13.4
		c-2,3.4-2.9,7.3-2.6,11.2c0.4,3.6,1.9,6.9,4.2,9.7c4.3,5.3,10.6,8.5,17.4,8.9c7,0.5,14-0.8,21-1c2.3,0,2.3-3.5,0-3.5
		c-7.1,0.2-14.1,1.5-21.2,1c-6.1-0.4-11.7-3.5-15.1-8.5c-1.8-2.5-2.8-5.5-2.7-8.6c0.3-3.6,1.6-7.1,3.9-9.9
		c3.9-5.3,9.9-8.7,16.1-10.6C414.3,638.1,422.5,637,430.6,637.5L430.6,637.5z"/>
	<path class="st1" d="M426.3,647.4c-1.9,8.9-4,18.1-2.8,27.2c0,1.8,0.8,3.6,2.1,4.9c1.4,1.1,3.3,1.2,5.1,1.2l140,0.3
		c16.1,0.1,33.3-0.2,46.5-9.4c2.2-1.5,4.4-3.5,5.3-6c1.2-3.3,0-7-2.2-9.8c-2.3-2.6-5.2-4.7-8.4-6.1c-14.1-7.3-29.8-11-45.6-13.4
		c-29.7-4.5-59.5-3.5-89.4-3.5c-8.2,0-16.3-0.3-24.5-0.1c-3.8,0.1-7.6,0.4-11.4,0.8c-1.9,0.2-3.8,0.2-5.5,0.4
		C429.4,634.9,427.4,642.2,426.3,647.4z"/>
	<path class="st2" d="M436,635.6c1.9-0.3,3.7-0.3,5.6-0.4s3.8-0.4,5.7-0.5c7.6-0.5,15.3-0.3,22.9-0.2s15.3,0,22.9,0
		c15.4-0.1,30.8-0.1,46.2,0.8c15,0.7,29.9,2.8,44.5,6.2c7,1.6,13.8,3.8,20.4,6.6c3.1,1.3,6.2,2.8,9.1,4.4c2.8,1.4,5.2,3.6,6.8,6.4
		c1.5,2.6,1.3,5.8-0.5,8.2c-1.9,2.4-4.8,4.1-7.5,5.5c-5.7,2.9-11.8,4.8-18.1,5.6c-6.5,0.9-13,1.2-19.5,1.2c-7.5,0.1-15.1,0-22.6,0
		l-93.1-0.2h-23.5c-1.9,0-3.9,0.1-5.8,0c-1.4-0.1-2.8-0.3-3.5-1.6c-0.7-1.5-1-3.1-1-4.7c-0.1-1.8-0.2-3.5-0.1-5.3
		c0.4-7.1,1.6-14.2,3.4-21.1c1-4.3,2.7-9.7,7.6-10.6c2.2-0.4,1.3-3.8-0.9-3.4c-2.5,0.5-4.8,2-6.3,4.1c-3.4,4.5-4.2,10.7-5.3,16.2
		c-1.5,7.5-2.8,15.4-1.6,23.1c0.5,3.1,2,5.8,5.2,6.6c1.8,0.3,3.6,0.4,5.4,0.3h5.9h24.9l98.7,0.2c14.1,0,28.8,0.8,42.5-3.3
		c6-1.8,12.8-4.6,17.2-9.3c4.8-5.1,3.5-12.3-1.3-17c-2.5-2.2-5.3-4.1-8.4-5.5c-3.3-1.7-6.7-3.2-10.2-4.5c-7.1-2.7-14.4-4.8-21.9-6.3
		c-15.6-3.1-31.5-5-47.4-5.5c-16.2-0.7-32.4-0.5-48.5-0.4c-8.3,0-16.6-0.1-24.8-0.1c-4,0-8.2,0.1-12.1,0.3c-4,0.3-8,0.5-11.9,1
		C432.8,632.6,433.8,635.9,436,635.6z"/>
</g>
<g id="Layer_2">
	<path class="st4" d="M121,198.7c-15.3,15.1-24.4,37.9-21.6,59.5c1.3,9.9,5.5,20.1,13.9,26c7.1,4.9,16.2,6,24.2,2.9
		c3.9-1.5,7.2-4.3,9.3-7.9c2.5-4.5,2.6-9.8-1.6-13.3c-3.5-2.9-8.2-3.6-12.5-2.1c-4.7,1.9-8.1,5.9-10.3,10.4
		c-8.9,18.1-3.1,40.5,8.7,55.9c3,4,6.5,7.6,10.4,10.7c3.7,2.8,7.7,5.1,12,6.8c4.4,1.9,8.8,3.5,13.3,5c3.8,1.2,7.6,2.7,11.3,4.3
		c1.4,0.6,2.7,1.4,3.9,2.2c1.6,1.2,3.1-1.5,1.5-2.6c-2.6-1.8-5.5-3.2-8.5-4.2c-3.9-1.5-7.8-2.8-11.7-4.2c-8.1-2.9-16.1-6.2-22.6-12
		c-13.3-12.1-21.9-31.2-19.1-49.3c0.6-4.5,2.1-8.8,4.3-12.8c2.2-3.7,5.7-7.6,10.3-8c3.6-0.3,8.1,1.5,9.2,5.2
		c1.2,4.1-2.1,8.5-5.2,10.8c-6.1,4.5-14.8,4.7-21.6,1.7c-8.4-3.7-13.3-12.4-15.4-21.1c-2.2-9.5-1.5-19.7,0.9-29
		c3.2-12.4,9.7-23.8,18.9-32.8c0.5-0.6,0.5-1.6-0.2-2.2C122.4,198.2,121.6,198.2,121,198.7L121,198.7z"/>
	<path class="st4" d="M226.7,406.9c-7.7,14.8-7.1,33.2,0.8,47.8c2.3,4.1,5.1,7.9,8.5,11.2c0.6,0.5,1.6,0.5,2.2-0.2
		c0.5-0.6,0.5-1.4,0-2c-11.2-11-16-27.7-13.1-43c0.8-4.3,2.2-8.5,4.2-12.4C230.3,406.7,227.6,405.1,226.7,406.9z"/>
	<path class="st4" d="M208.2,443.8c1.7,16.9,11.1,32.1,25.5,41.2c3.9,2.4,8.1,4.3,12.4,5.6c1.9,0.6,2.7-2.4,0.8-2.9
		c-14.7-4.7-26.6-15.7-32.4-30c-1.8-4.4-2.9-9-3.3-13.8C211,441.8,208,441.8,208.2,443.8L208.2,443.8z"/>
	<path class="st4" d="M436.5,530.4c-0.4-9.5,0.6-19,3.1-28.2c2-7.3,5.6-14.8,12.3-18.8c6.9-4,15.4-3.8,22.1,0.6
		c6,4.1,10.1,12.1,8.9,19.4c-0.3,1.6-0.9,3.3-2.4,4.2c-1.6,0.7-3.4,0.4-4.7-0.7c-2.8-1.9-4.2-5.5-4.4-8.7c-0.3-7,4.3-13.6,9.5-17.9
		c6.3-5.3,14.9-8,23-8.6c9-0.7,17.6,1.5,25.8,5.1c8.2,3.6,15.8,7.9,24.2,10.5c7.8,2.4,16.5,3.5,24.4,1c1.9-0.6,3.8-1.5,5.6-2.5
		c0.7-0.5,0.9-1.4,0.4-2.1c-0.4-0.6-1.3-0.9-1.9-0.5c-7.9,4.7-17.6,4.1-26.2,1.7c-9.3-2.7-17.8-7.7-26.7-11.4
		c-8.9-3.7-18.2-5.7-27.9-4.5c-8.7,1.1-17.7,4.4-24.2,10.5c-5.4,5.1-9.8,12.7-8.8,20.3c0.4,3.8,2.4,7.3,5.4,9.7
		c3.3,2.4,7.9,2.3,10.4-1.3c2.2-3.3,2-8,1.2-11.7c-0.9-4.1-2.8-7.9-5.6-11c-5.7-6.4-14.4-9.1-22.8-7.2c-19.1,4.2-23,28.2-23.7,44.4
		c-0.1,2.6-0.1,5.3,0,7.9C433.6,532.4,436.6,532.4,436.5,530.4L436.5,530.4z"/>
	<path class="st4" d="M547.5,507.8c12.5,5.1,26.7,5,39.6,1.3c12.7-3.6,24.1-10.6,34-19.2c5.6-4.9,10.7-10.1,15.5-15.8
		c1.3-1.5-0.9-3.7-2.2-2.2c-16.5,19.2-38.3,36.2-64.7,36.7c-7.3,0.2-14.6-1.1-21.4-3.8C546.5,504.1,545.7,507,547.5,507.8
		L547.5,507.8z"/>
	<path class="st4" d="M663.6,417.2c-1.8,9.8-5.8,19.1-11.6,27.2c-1.1,1.6,1.5,3.1,2.6,1.5c6-8.3,10.1-17.8,11.9-27.9
		C666.9,416.2,664,415.3,663.6,417.2L663.6,417.2z"/>
	<path class="st4" d="M702.3,207.2c6.2,6,10.5,13.7,12.4,22.1c3,13.6-0.5,27.7-9.4,38.4c-1.3,1.5,0.9,3.7,2.2,2.2
		c6.1-7.2,9.9-16.1,11.1-25.4c1.6-14.6-3.5-29.1-14-39.4C703.1,203.7,700.9,205.8,702.3,207.2L702.3,207.2z"/>
	<path class="st4" d="M713.9,184.6c9.3,9.8,13.6,23.3,11.8,36.6c-0.3,1.9,2.7,2.7,2.9,0.8c2.2-14.4-2.4-29.1-12.5-39.7
		C714.7,181,712.6,183.1,713.9,184.6L713.9,184.6z"/>
	<path class="st5" d="M192.3,200c-20.2,11.3-32.1,35.2-30.1,58.1c0.9,11.2,5.4,21.7,12.7,30.2c7.6,8.6,17.2,15.3,27.9,19.6
		c11.5,4.7,24.5,6.7,36.7,3.9c1.9-0.4,1.1-3.3-0.8-2.9c-10.3,2.4-21.2,1-31.1-2.4c-10.5-3.5-19.9-9.4-27.7-17.3
		c-7.5-7.5-12.5-17.2-14.1-27.7c-1.6-10.7-0.1-21.7,4.2-31.6c4.8-11.5,13.2-21,23.9-27.2C195.5,201.6,194,199,192.3,200L192.3,200z"
		/>
	<path class="st5" d="M231.1,295.8c2.6,13.1,13.9,23.1,26.6,26.4c13.6,3.6,27.6-1.2,37.8-10.4c5.8-5.3,10.4-11.9,13.3-19.2
		c0.7-1.8-2.2-2.6-2.9-0.8c-4.8,11.8-14.5,22-26.6,26.4c-11.9,4.3-25.1,2-34.8-6.1c-5.3-4.3-9-10.4-10.5-17.1
		C233.6,293.1,230.6,293.9,231.1,295.8z"/>
	<path class="st5" d="M302,286c4,5.9,10.4,9.7,17.5,10.4c7.2,0.6,14.3-2.2,19.2-7.5c1.3-1.4-0.8-3.6-2.2-2.2
		c-7.5,8.3-20.3,9-28.6,1.5c-1.2-1.1-2.3-2.4-3.3-3.8C303.5,282.9,300.9,284.4,302,286L302,286z"/>
	<path class="st5" d="M326.7,295.7c8.6,13.2,21.2,24.9,35.7,31.1c14.3,6.1,30.8,5.2,45-0.5c8.2-3.2,15.7-8.1,22-14.2l-2.4-1.9
		c-4.3,9-3.9,19.5,1,28.1c5.1,8.6,14.3,14.1,24.3,14.3c5.6,0.2,11.1-1.1,15.9-3.9c0.7-0.5,0.9-1.4,0.4-2.1c-0.4-0.6-1.2-0.8-1.9-0.5
		c-7.8,4.4-17.3,4.7-25.3,0.7c-7.9-4-13.3-11.8-14.1-20.7c-0.6-4.9,0.3-10,2.4-14.5c0.4-0.7,0.1-1.7-0.6-2.1
		c-0.6-0.3-1.3-0.2-1.8,0.2c-10.8,10.5-24.9,16.8-39.8,17.9c-7.3,0.6-14.6-0.3-21.5-2.8c-7.2-2.8-13.8-6.8-19.6-11.8
		c-6.6-5.5-12.4-11.9-17.1-19.1C328.2,292.6,325.6,294.1,326.7,295.7L326.7,295.7z"/>
	<path class="st5" d="M451.9,350.8c-7,13.8-4.8,31.9,2.9,44.9c3.8,6.7,9.8,12,17,15c7.6,3.1,16,3.8,24,2.1
		c9.1-1.8,17.3-6.6,23.1-13.8c1.2-1.5-0.9-3.7-2.2-2.2c-9.6,12.1-26.8,16.7-41.3,12c-6.9-2.2-12.8-6.6-16.7-12.6
		c-4-6.1-6.6-13.1-7.5-20.4c-1-7.8-0.3-16.3,3.3-23.4C455.4,350.6,452.8,349,451.9,350.8L451.9,350.8z"/>
	<path class="st5" d="M504.4,408c-0.9,16.5,11,30.7,24.3,38.8c14.5,8.8,32,12.2,48.7,10.5c16.5-1.8,32.1-8.2,45.1-18.4
		c6.4-5,12.3-10.7,17.4-17.1c5.5-6.7,10-14.2,13.4-22.1c3.1-7.5,4.8-16,2.4-23.9c-2.2-7.4-6.4-14.1-12.1-19.4
		c-1.2-1.1-2.5-2.1-3.9-3c-1.7-1-3.2,1.6-1.5,2.6c5.9,3.6,10.3,10,13.1,16.2c1.5,3.1,2.4,6.3,2.7,9.7c0.1,4.2-0.5,8.3-1.8,12.3
		c-2.4,8-6.8,15.4-11.7,22.1c-4.6,6.2-9.9,11.9-15.8,17c-11.7,10.2-26,17.2-41.3,20.1c-16,2.9-32.5,0.8-47.2-6.1
		c-13.3-6.5-26.4-18.3-28.4-33.8c-0.2-1.9-0.3-3.7-0.2-5.6C507.6,406,504.6,406,504.4,408L504.4,408z"/>
	<path class="st5" d="M630.7,306.3c7.7,7.4,11.4,18.2,11,28.8c-0.4,10.6-5.2,20.9-12.4,28.8c-4.1,4.5-9,8.4-14.3,11.4
		c-0.7,0.5-0.9,1.4-0.4,2.1c0.4,0.6,1.3,0.9,1.9,0.5c10-5.8,18.6-14.3,23.6-24.7c5-10.3,5.9-22.2,2.5-33.2c-1.9-6-5.3-11.5-9.8-15.9
		C631.5,302.8,629.3,305,630.7,306.3L630.7,306.3z"/>
	<path class="st5" d="M649.4,225.4c14.9,5.3,24.9,19.7,27.6,34.9c3.2,18.2-3.4,36.7-13.8,51.5c-5.9,8.1-12.7,15.5-20.2,22.1
		c-1.5,1.3,0.7,3.5,2.2,2.2c13.9-12.4,26.3-27.3,32.2-45.2c5.6-17.2,4.8-36.8-5.9-51.9c-5.2-7.5-12.6-13.2-21.1-16.4
		C648.3,221.8,647.5,224.7,649.4,225.4L649.4,225.4z"/>
	<path class="st5" d="M195.8,217.1c-2.9-5.8-2.6-12.7,0.7-18.2c3.1-5,8.2-8.3,13.9-9c0.9-0.1,1.2-1.1,1.1-1.9
		c-1.4-9.6,0.7-19.4,6-27.5c8.6-12.8,24-19.3,39.2-16.5c1.9,0.4,2.7-2.6,0.8-2.9c-10.4-1.9-21.1,0.1-30.1,5.6
		c-8.9,5.6-15.3,14.4-18,24.6c-1.5,5.7-1.8,11.7-0.9,17.5l1.1-1.9c-12,1.7-20.3,12.7-18.7,24.7c0.3,2.5,1.1,4.9,2.3,7.1
		C194.1,220.5,196.7,218.9,195.8,217.1L195.8,217.1z"/>
	<path class="st5" d="M229.9,146.2c-2.4-7.8-3.1-15.9-2.1-24c0.8-8.7,3-17.2,6.4-25.2c3-7.6,7.5-14.5,13.2-20.4
		c6.1-6,13.5-10.5,21.7-13.2c9-3,18.8-3.3,28-0.8c0.8,0.2,1.7-0.3,1.9-1.1c0-0.1,0-0.2,0.1-0.4c-0.3-13.5,9.3-24.7,19.3-32.7
		c10-7.8,21.4-13.6,33.7-16.9c12.3-3.4,25.2-4.4,38-2.8c12.7,1.5,25.7,5.7,36.2,13c6.2,4.2,11.2,9.9,14.5,16.6
		c3.3,6.8,3.9,14.7,1.7,21.9c-0.4,1.5,1.5,2.4,2.6,1.5c7.3-6.6,17.1-10,26.9-9.3c15,1.3,27.6,11.9,31.4,26.4c0.2,0.8,1.1,1.3,1.9,1
		c0.8-0.2,1.2-1,1-1.8c-2.7-9.8-9-18.2-17.7-23.4c-9.1-5.4-20.1-6.8-30.3-3.7c-5.8,1.7-11.1,4.6-15.5,8.7l2.5,1.5
		c4.5-13.7-1.8-28.4-12.1-37.7S409.1,9,395.7,6.6c-26.3-4.8-54.7,1.4-76.3,17.2c-12,8.8-23.9,21.6-23.4,37.4l1.9-1.5
		c-17.3-4.8-36.3,0.6-49.8,12.2s-20.5,29.4-22.9,46.5c-1.3,9.5-1.2,19.5,1.8,28.7c0.6,1.9,3.5,1.1,2.9-0.8L229.9,146.2z"/>
	<path class="st5" d="M489.5,55.6c10.8-18.9,32-29,53.2-30.1c12.2-0.5,24.4,1.4,35.9,5.4c10.2,3.5,20.2,8.7,27.4,16.9
		c7.6,8.7,11.6,21.3,7.8,32.6c-0.2,0.8,0.3,1.7,1.1,1.9c0.3,0.1,0.5,0.1,0.8,0c13.1-4.1,25.2,7.2,33.4,16
		c8.9,9.6,16.8,20.3,22.1,32.3c4.6,10.9,6.9,22.7,6.7,34.6c0.1,10.9-2.1,21.6-6.2,31.7c-4.6,10.8-12.2,20.1-22.6,25.8
		c-1.7,0.9-0.2,3.6,1.5,2.6c20.3-11.2,29.2-34.4,30.1-56.5c0.7-12.2-1.2-24.4-5.4-35.8c-4.9-12.8-12.7-24.2-21.8-34.3
		c-9.3-10.5-23.2-24-38.6-19.3l1.9,1.9c3.5-10.5,0.8-22.3-5.3-31.3c-6.5-9.5-16.5-15.8-26.9-20.1C561.9,20.8,535,19,513,30
		c-10.9,5.3-20,13.7-26.1,24.1c-0.4,0.8,0,1.7,0.7,2C488.3,56.5,489.1,56.3,489.5,55.6L489.5,55.6z"/>
	<path class="st5" d="M283.7,466.3c1.2,12.2,4.2,24.2,9.1,35.4c2.2,5.5,5.1,10.7,8.4,15.5c3.1,4.3,6.8,8.1,11.8,10.3
		c5.1,2.4,10.9,3.1,16.4,2.1c1.9-0.4,1.1-3.3-0.8-2.9c-4.6,0.8-9.3,0.2-13.6-1.6c-4.6-1.8-8.2-5.3-11-9.2c-3.2-4.5-5.8-9.3-8-14.4
		c-2.3-5.2-4.2-10.6-5.7-16.1c-1.7-6.2-2.9-12.6-3.5-19.1C286.6,464.4,283.5,464.4,283.7,466.3L283.7,466.3z"/>
	<path class="st5" d="M328.6,527.8c6.1-1,8.2-0.1,14-2.4c-5.4,9.2-7,15.8-12.4,25l-1.8-21.7"/>
	<path class="st5" d="M328.9,528.9c6.1-1,4.5,0.9,10.2-1.4c-0.4-0.6,3.2-1.2,2.8-1.8c-5.4,9.2-7.3,14.9-12.7,24l2.2,0.6l-1.8-21.7
		c-0.1-1.5-2.5-1.5-2.3,0c0.6,7.3,1.2,20.8,1.8,28.1c0.2,0.8,1,1.3,1.8,1.1c0.3-0.1,0.6-0.3,0.8-0.5c5.4-9.2,6.5-22.3,11.9-31.5
		c0.5-0.8-0.3-2.1-1.3-1.7c-5.8,2.2-7.9,1.6-14,2.7C326.8,526.9,327.4,529.2,328.9,528.9L328.9,528.9z"/>
	<path class="st5" d="M366,508.1c15.6-12.7,28-32.9,27.7-53c-0.5-20.4-10.2-39.5-26.4-52c-11.4-8.6-26.2-13.5-40.2-10.9
		c-14,2.6-26.8,13.7-29.2,27.8c-9.1-5.7-22.1,0.6-26.7,10.4s-2.8,21.3,0.4,31.6l1.6,3.2c27.9,2.3,55.3-7.2,81.6-17
		c2,12.4,3.4,24.9,4,37.4c2.3-5.1,5.6-9.7,9.8-13.5c0.9-1,2.1-1.6,3.4-1.8c2.8-0.1,4.2,3.5,4.2,6.4c0,9.3-4.8,17.9-12.7,22.8
		C364.6,500.4,366,506.8,366,508.1"/>
	<path class="st5" d="M367.1,509.2c11.2-9,19.8-20.9,24.7-34.5c4.6-13.3,4.4-27.8-0.5-41c-4.6-13.2-13.2-24.7-24.6-32.9
		c-11.8-8.4-27.1-13-41.5-9.7c-12.3,2.8-23.5,11.9-27.7,24c-0.5,1.5-0.9,3-1.1,4.5l2.2-0.9c-7.5-4.6-17-1.9-23.2,3.6
		c-7.6,6.8-9.3,17.5-8.2,27.2c0.3,2.8,0.9,5.5,1.6,8.2c0.4,2,1,3.9,1.8,5.7c0.5,1,1,2.9,2.2,3.2c1.4,0.3,2.8,0.4,4.2,0.3
		c1.6,0.1,3.2,0.1,4.8,0.1c11.8-0.2,23.5-1.8,34.9-4.8c13.1-3.3,25.9-7.9,38.5-12.6l-1.9-1.1c2,12.2,3.3,24.6,4,37
		c0.1,1.4,2.2,2.2,2.8,0.8c1.5-3.4,3.5-6.6,6-9.5c1.2-1.4,2.5-2.8,3.9-4c1-0.9,2.4-1.6,3.5-0.4c1.9,2.1,1.4,5.8,0.9,8.4
		c-0.6,3.3-1.8,6.5-3.6,9.4c-2,3.2-4.7,5.9-7.9,7.9c-0.7,0.5-1,1.4-0.5,2.2c0.1,0.1,0.1,0.2,0.2,0.2c-0.2-0.3,0.1,0.2,0.2,0.4
		c0.1,0.1,0.2,0.5,0.3,0.8c0.3,0.8,0.5,1.6,0.7,2.5c0.4,1.3,0.6,2.6,0.7,3.9c0.1,2,3.1,2,3,0c-0.1-1.7-0.4-3.4-0.9-5
		c-0.3-1.7-0.9-3.3-1.9-4.7l-0.3,2.4c6.9-4.4,11.6-11.5,13-19.5c0.6-3.5,0.8-7.6-1.5-10.6c-1-1.4-2.7-2.1-4.5-1.9
		c-2.1,0.3-3.7,2-5.2,3.3c-3.7,3.6-6.6,7.9-8.8,12.6l2.8,0.8c-0.7-12.7-2-25.3-4.1-37.8c-0.2-0.8-1-1.3-1.8-1.1c0,0,0,0,0,0
		c-20.3,7.6-41.1,15-62.8,16.9c-6.1,0.5-12.2,0.5-18.3,0.1l1.3,0.7c-0.5-1-1-1.9-1.5-2.9c-0.7-2-1.3-4-1.7-6.1
		c-1.3-5.1-1.7-10.3-1.3-15.5c0.4-4.7,2.1-9.1,4.9-12.8c2.5-3.1,5.9-5.5,9.7-6.8c4-1.5,8.5-1.1,12.3,1c0.8,0.4,1.7,0.1,2.1-0.6
		c0.1-0.1,0.1-0.2,0.1-0.3c2.2-12,11.8-21.6,23.2-25.4c13.1-4.4,27.6-1,39.1,6.1c22.3,13.8,35.6,42.9,28.5,68.6
		c-4.1,14.7-13.5,27.8-25.3,37.4C363.3,508.3,365.5,510.4,367.1,509.2L367.1,509.2z"/>
	<path class="st5" d="M364.5,508.5c2.8,15.1,3.9,30.5,3.3,45.9c-0.1,2,3,2,3,0c0.6-15.6-0.5-31.3-3.3-46.7
		C367.1,505.8,364.2,506.6,364.5,508.5L364.5,508.5z"/>
	<path class="st5" d="M344.4,394.5c-5.4-5.7-4.8-15.1-1.3-22.1c6.3-12.7,20.9-20.9,35-19.2c14.1,1.7,26.5,13.3,28.8,27.3
		c2.3,14-6,29.1-19.1,34.5c-1.7,0.9-3.7,1.1-5.6,0.8c-2-0.5-3.4-2.2-4.8-3.7C368.6,402.5,356.9,397.4,344.4,394.5"/>
	<path class="st5" d="M345.5,393.4c-4.3-4.6-4.2-11.4-2.4-17c2.1-5.9,5.8-11,10.8-14.8c9.9-7.6,23.4-9.5,34.6-3.6
		c10.6,5.7,18,17.1,17.1,29.3c-0.5,6-2.7,11.7-6.3,16.5c-1.8,2.4-3.9,4.5-6.3,6.3c-2.4,1.8-5.4,3.6-8.4,4c-3.6,0.5-5.7-3.1-8-5.3
		c-2.5-2.4-5.2-4.5-8.1-6.4c-5.8-3.6-12.1-6.4-18.7-8.2c-1.7-0.5-3.3-0.9-5-1.3c-1.9-0.4-2.7,2.5-0.8,2.9c7.3,1.6,14.4,4.3,20.9,7.9
		c3.2,1.8,6.1,4,8.8,6.5c2.5,2.3,4.8,6,8.3,6.8c3.5,0.8,7.3-1.1,10.3-2.9c2.8-1.7,5.2-3.7,7.4-6.1c4.4-4.9,7.4-10.9,8.5-17.4
		c2.2-13.4-4.3-26.5-15.6-33.8c-11.6-7.4-26.4-7.2-37.9,0.3c-5.7,3.6-10.3,8.7-13.3,14.8c-2.8,6-3.8,13.3-1,19.5
		c0.7,1.5,1.6,2.8,2.7,4C344.6,397,346.8,394.8,345.5,393.4L345.5,393.4z"/>
	<path class="st5" d="M317,557.9c2.2,1,4.5,1.5,6.9,1.6c2.3,0.2,4.6,0,6.8-0.7c0.8-0.2,1.3-1.1,1.1-1.9c-0.2-0.8-1.1-1.3-1.9-1.1
		c-1.9,0.6-3.9,0.8-5.8,0.6c-1,0-2-0.2-3-0.4c-0.5-0.1-1-0.2-1.5-0.4l-0.7-0.2l-0.3-0.1c0.3,0.1-0.1-0.1-0.2-0.1
		c-0.7-0.4-1.6-0.2-2.1,0.5C316.1,556.5,316.3,557.4,317,557.9L317,557.9z"/>
	<path class="st5" d="M370.9,555.7c3.5-1.5,7.4-2.7,11-4.3c0.7-0.4,1-1.3,0.6-2.1c0,0,0,0,0,0c-0.4-0.7-1.4-1-2.1-0.5
		c-3.5,1.5-7.4,2.7-11,4.3c-0.7,0.4-1,1.4-0.5,2.1C369.2,555.8,370.1,556.1,370.9,555.7z"/>
	<path class="st5" d="M440.5,672.4c13.7,0.3,27.5,0.4,41.2,0.1c0.8-0.1,1.5-0.8,1.4-1.7c-0.1-0.7-0.7-1.3-1.4-1.4
		c-13.7,0.2-27.5,0.2-41.2-0.1C438.6,669.3,438.6,672.3,440.5,672.4z"/>
	<path class="st5" d="M480.2,670.9c0,6.6-1.3,13.1-1.3,19.7c0.1,0.8,0.8,1.5,1.7,1.4c0.7-0.1,1.3-0.7,1.4-1.4
		c0-6.6,1.3-13.1,1.3-19.7c-0.1-0.8-0.8-1.5-1.7-1.4C480.9,669.6,480.3,670.2,480.2,670.9z"/>
	<path class="st5" d="M120.6,677.4c13.3,0,26.5,0,39.8-0.2c9.6-0.1,19.2-0.3,28.9-0.4c8.7-0.1,17.3-0.1,26-0.1
		c0.8-0.1,1.5-0.8,1.4-1.7c-0.1-0.7-0.7-1.3-1.4-1.4c-13.3,0-26.5,0.1-39.8,0.3c-9.6,0.2-19.2,0.3-28.9,0.4c-8.7,0.1-17.3,0.1-26,0
		c-0.8,0.1-1.5,0.8-1.4,1.7C119.3,676.7,119.9,677.3,120.6,677.4L120.6,677.4z"/>
	<path class="st5" d="M119.1,675.8c0,6.6,0.2,13.2,0.2,19.9c0,0.8,0.7,1.5,1.5,1.5c26.3,0.1,52.6,0.5,78.9,0.7
		c23.4,0.2,47,0.1,70.4,0.1c22.4,0,44.8,0.2,67.1,0s45-1,67.4-2.1c22.6-1,45.3-2.2,67.9-3.3l7.7-0.4c2-0.1,2-3.1,0-3
		c-22.3,1.1-44.5,2.3-66.8,3.3c-22.8,1.1-45.5,2-68.3,2.3c-22.4,0.3-44.9,0.1-67.3,0.1c-22.8,0-45.6,0.1-68.4,0
		c-26.3-0.1-52.6-0.5-78.9-0.7h-9.8l1.5,1.5c0-6.6-0.2-13.2-0.2-19.9c-0.1-0.8-0.8-1.5-1.7-1.4C119.8,674.6,119.2,675.2,119.1,675.8
		L119.1,675.8z"/>
	<path class="st5" d="M191.1,660.9c3.9-9.4,7.9-18.9,13-27.7c1-1.9,2.2-3.6,3.7-5.1c0.4-0.3,0.8-0.6,1.2-0.9c0.3-0.2,1-0.3,1.2-0.5
		s0-0.3-0.1-0.2c-0.1,0.2-0.1,0.5-0.1,0.7c-0.2,0.7-0.4,1.3-0.7,2c-2.2,4.8-4.9,9.5-7.3,14.2l-8.3,16.2c-0.9,1.7,1.7,3.3,2.6,1.5
		l8.5-16.6l4.4-8.5c1.5-2.4,2.7-5,3.6-7.7c0.6-2.2,0-5.1-2.9-4.6c-2.2,0.5-4.2,1.8-5.6,3.6c-1.6,2.1-3,4.3-4.2,6.6
		c-1.4,2.6-2.8,5.2-4,7.8c-2.9,6-5.4,12.2-8,18.3C187.4,661.9,190.3,662.7,191.1,660.9L191.1,660.9z"/>
	<path class="st5" d="M183.6,669.5l-1.2,4.3c-0.2,0.8,0.3,1.6,1.1,1.9c0.8,0.2,1.6-0.3,1.8-1l1.2-4.3c0.2-0.8-0.3-1.6-1.1-1.9
		C184.6,668.2,183.8,668.7,183.6,669.5L183.6,669.5z"/>
	<path class="st5" d="M191,669.1l-2,5.5c-0.2,0.8,0.3,1.7,1.1,1.9c0,0,0,0,0,0c0.8,0.2,1.6-0.3,1.9-1.1l2-5.5
		c0.2-0.8-0.3-1.7-1.1-1.9c0,0,0,0,0,0C192.1,667.9,191.3,668.4,191,669.1L191,669.1z"/>
	<path class="st5" d="M196.8,660.6c-2.8-0.1-5.5,0-8.3,0.4c-2.2,0.3-4.8,0.6-6.4,2.2c-0.8,0.7-1.2,1.8-1,2.8c0.2,1.3,1.1,2.4,2.2,3
		c2.2,1.3,4.9,1.5,7.4,1.6c3.1,0.1,6.2-0.2,9.3-0.9c1.9-0.4,1.1-3.3-0.8-2.9c-2.7,0.6-5.4,0.9-8.1,0.8c-1.3,0-2.6-0.1-3.8-0.4
		c-0.8-0.2-2.6-0.5-3-1.4c-0.1-0.2-0.1-0.1,0-0.3c0.3-0.3,0.6-0.5,1-0.7c1-0.4,2.1-0.7,3.3-0.8c2.8-0.4,5.6-0.6,8.4-0.5
		C198.8,663.7,198.8,660.7,196.8,660.6L196.8,660.6z"/>
	<path class="st5" d="M215.1,660.6c-3.5-4-8.1-6.8-13.2-8.2c-0.8-0.2-1.6,0.3-1.9,1.1c-0.2,0.8,0.3,1.6,1.1,1.9l0,0
		c4.6,1.3,8.7,3.8,11.8,7.4c0.6,0.6,1.6,0.6,2.2,0C215.7,662.1,215.7,661.2,215.1,660.6L215.1,660.6z"/>
	<path class="st5" d="M192.1,649.5c-6.1,0.7-11,4.4-14.9,8.9c-4.1,4.7-7.7,10.6-6.4,17c0.4,1.9,3.3,1.1,2.9-0.8
		c-1.1-5.4,2.5-10.5,5.9-14.4c3.4-3.8,7.5-7.1,12.5-7.7C194,652.3,194,649.3,192.1,649.5L192.1,649.5z"/>
	<path class="st5" d="M329.6,558.4c1.4,3,3.3,5.6,5.7,7.8c2.6,2.2,6,3.4,9.4,3.3c6.8-0.2,13.3-2.5,18.7-6.6c3-2.2,5.6-4.9,7.7-7.9
		c1.1-1.6-1.5-3.1-2.6-1.5c-4.3,6-10.7,10.3-17.9,12.1c-3.7,0.9-8,1.5-11.5-0.5c-3.2-1.8-5.3-5.1-7-8.3
		C331.3,555.1,328.7,556.7,329.6,558.4L329.6,558.4z"/>
	<path class="st5" d="M344.9,568.9c-1,1.6-1.4,3.5-1.1,5.4c0.3,1.8,1.6,3.2,3.2,3.9c1.6,0.6,3.3,0.4,4.7-0.6
		c1.4-1.3,1.9-3.3,1.3-5.1c-0.7-1.9-2-3.5-3.7-4.6c-0.3-0.3-0.7-0.4-1.1-0.4c-0.4,0-0.8,0.1-1.1,0.4c-0.6,0.6-0.6,1.6,0,2.2
		c0.6,0.4,1.1,0.9,1.6,1.4c0.2,0.2,0.5,0.5,0.7,0.7c0.2,0.2-0.1-0.2,0,0c0.1,0.1,0.1,0.2,0.2,0.2c0.1,0.1,0.2,0.3,0.3,0.4l0.1,0.2
		c0.1,0.2,0,0,0-0.1s0.1,0.3,0.1,0.4c0,0.1,0.1,0.3,0.1,0.5c0,0.2,0-0.3,0-0.1s0,0.2,0,0.3c0,0.1,0,0.3,0,0.5s0.1-0.4,0,0
		c0,0.1,0,0.1-0.1,0.2c0,0.1,0,0.1,0,0.2c-0.1,0.3,0,0,0-0.1c-0.1,0.1-0.2,0.3-0.3,0.4c0-0.2,0.2-0.2,0-0.1l-0.1,0.1
		c0,0-0.3,0.2,0,0.1c0.3-0.2,0,0,0,0c-0.1,0.1-0.2,0.1-0.3,0.2c0,0,0.4-0.1,0.1-0.1c-0.1,0-0.2,0.1-0.2,0.1c-0.1,0-0.1,0-0.2,0
		c0,0,0.4,0,0.1,0h-0.6c0.2,0,0,0,0,0h-0.3c-0.1-0.1-0.3-0.1-0.4-0.1c0,0,0.3,0.2,0.1,0l-0.2-0.1l-0.3-0.2c0,0-0.1-0.1-0.1-0.1
		c0.2,0.1,0.2,0.2,0.1,0.1l-0.1-0.1c-0.1-0.1-0.2-0.2-0.3-0.3c-0.1-0.1,0.2,0.3,0.1,0.1l-0.1-0.2c-0.1-0.1-0.2-0.3-0.2-0.4
		c-0.1-0.2,0,0,0,0.1l-0.1-0.3c0-0.1,0-0.4-0.1-0.5c-0.1-0.1,0,0.4,0,0.1c0-0.1,0-0.2,0-0.3c0-0.2,0-0.4,0-0.6c0-0.1,0-0.2,0-0.2
		v0.2v-0.2c0.1-0.4,0.2-0.7,0.3-1c0-0.1,0-0.3,0,0c0-0.1,0.1-0.2,0.1-0.3c0.1-0.2,0.2-0.4,0.3-0.5c0.4-0.7,0.2-1.7-0.5-2.1
		c0,0,0,0,0,0C346.2,568,345.3,568.3,344.9,568.9L344.9,568.9z"/>
	<path class="st5" d="M313.8,489.5c-0.8,3.2-1.2,6.5-1.1,9.9c-0.1,3,0.4,6,1.4,8.8c0.8,2.5,2.8,4.6,5.3,5.5c2.4,0.9,5,0.3,6.8-1.4
		c1.3-1.4-0.8-3.6-2.2-2.2c-1.2,1.1-3.1,1.3-4.5,0.3c-1.8-1-2.6-3.1-3.1-5c-1.1-5-0.9-10.2,0.3-15.1
		C317.2,488.4,314.2,487.6,313.8,489.5L313.8,489.5z"/>
	<path class="st5" d="M335,522.9c5.8-0.6,10-5.6,9.8-11.4c0.1-0.8-0.6-1.6-1.4-1.7s-1.6,0.6-1.7,1.4c0,0.1,0,0.2,0,0.3
		c0,0.3,0,0.6,0,0.8c0,0.1,0,0.3,0,0.4s0,0.4,0,0.1c-0.1,0.5-0.2,1.1-0.4,1.6c0,0.1-0.1,0.3-0.1,0.4c-0.1,0.3,0.1-0.1-0.1,0.1
		c-0.1,0.3-0.2,0.5-0.4,0.7c-0.1,0.2-0.3,0.5-0.4,0.7l-0.2,0.3c0.2-0.2-0.1,0.1-0.1,0.2c-0.4,0.4-0.8,0.8-1.2,1.1
		c0,0-0.3,0.3-0.2,0.2c0.1-0.1-0.2,0.1-0.2,0.2c-0.2,0.2-0.5,0.3-0.7,0.4c-0.2,0.1-0.5,0.3-0.7,0.4c-0.2,0.1-0.1,0,0,0l-0.2,0.1
		l-0.4,0.1c-0.3,0.1-0.5,0.2-0.8,0.2l-0.4,0.1c-0.1,0-0.1,0,0.1,0h-0.3c-0.8-0.1-1.6,0.6-1.7,1.4c-0.1,0.8,0.6,1.6,1.4,1.7
		C334.7,522.8,334.8,522.8,335,522.9L335,522.9z"/>
	<path class="st5" d="M329.7,475.6c1.3-1.4,2.9-2.5,4.7-3.1c0.2-0.1,0.4-0.1,0.6-0.1c-0.2,0,0,0,0.1,0h0.3c0.2,0,0.5,0,0.7,0
		c0,0,0.3,0,0.2,0c-0.1,0,0.2,0,0.2,0c0.2,0,0.4,0.1,0.7,0.2c0.1,0,0.2,0.1,0,0l0.3,0.1c0.3,0.2,0.6,0.4,0.9,0.7
		c0.6,0.6,1.6,0.6,2.2,0s0.6-1.6,0-2.2c-1.7-1.7-4.2-2.4-6.6-1.8c-2.4,0.7-4.6,2.1-6.3,4c-0.6,0.6-0.6,1.6,0,2.2
		S329.1,476.1,329.7,475.6L329.7,475.6z"/>
	<path class="st5" d="M296.5,480c1.4-1.4,3.1-2.4,5-3c0,0,0.3,0,0.2,0c-0.1,0,0.1,0,0.2,0h1c0.1,0,0.2,0,0,0c0.2,0,0.4,0.1,0.6,0.2
		l0.3,0.1c0.2,0.1-0.2-0.1,0,0s0.4,0.2,0.6,0.3c0.2,0.1,0.2,0.1,0,0c0.1,0.1,0.1,0.1,0.2,0.2c0.1,0.1,0.2,0.2,0.3,0.3
		c0.2,0.2-0.2-0.3,0.1,0.1c0.4,0.7,1.4,0.9,2.1,0.5c0.7-0.4,1-1.4,0.5-2.1c-1.5-2-3.9-3-6.4-2.6c-2.7,0.4-4.9,2.1-6.9,3.8
		c-0.6,0.6-0.6,1.6,0,2.2s1.6,0.6,2.2,0L296.5,480z"/>
	<path class="st4" d="M270.2,675l-55,0.1c0.3-5.1,0.1-10.2-0.6-15.2c17.4-6.3,38-12.4,56.4-13.9l0.5-1.5
		c-1.2,4.6,10.6-46.9,21.7-69.1c2.3-4.9,5.5-9.3,9.4-13c4-3.6,9.3-6.1,14.7-5.6l0.3-0.3c-0.4,10.4,2,21.4,8.9,29.2
		c6.8,7.9,18.6,11.9,28.2,7.9c3.6-1.6,6.8-3.9,9.5-6.7c9.9-9.8,15.9-23,16.7-37v0.2c6.1-2.6,13.1-1.3,17.9,3.2
		c2.6,2.5,4.2,5.8,5.8,9c16.4,33.1,33.1,67.1,36.6,103.9l-0.9,4.6c-44.2,4.8-87.3,3.3-131.7,4.6C295.5,674.2,282.7,675.2,270.2,675z
		"/>
	<path class="st5" d="M270.2,673.5h-18.6h-29.5h-6.8l1.5,1.5c0.3-5.2,0.1-10.5-0.6-15.6l-1.1,1.9c18.1-6.5,36.8-12.3,56-13.9
		c0.7,0,1.3-0.5,1.5-1.1l0.5-1.5l-2.9-0.8c-0.1,0.5-0.2,0.2,0.3-0.4h2.2l0.4,1.1c0,0.6,0,0.1,0.1-0.2l0.4-1.6
		c0.4-1.9,0.9-3.7,1.4-5.6c1.5-6.1,3.1-12.2,4.8-18.3c2.1-7.5,4.3-14.9,6.8-22.2c2.1-6.6,4.7-13.1,7.6-19.5
		c2.3-5.2,5.6-9.9,9.7-13.8c2.1-1.9,4.5-3.3,7.1-4.3c1.3-0.5,2.6-0.8,4-0.9c1.2-0.1,2.6,0.3,3.6-0.5l-2.3-1.3
		c-0.6,15.5,5.4,32.2,20.8,38.3c6.9,2.9,14.8,2.5,21.3-1.2c7-4.1,12.6-11,16.6-17.9c4.5-7.9,7.1-16.6,7.7-25.7
		c0-0.8-0.7-1.5-1.6-1.5c-0.7,0-1.2,0.5-1.4,1.1v0.2c-0.2,0.8,0.3,1.7,1.1,1.9c0.4,0.1,0.8,0,1.1-0.1c3.8-1.6,8.1-1.5,11.8,0.1
		c4.2,1.8,6.7,5.5,8.7,9.4c4.6,8.9,9,18.1,13.3,27.2c8.5,18.3,16.2,37.1,20.7,56.8c1.3,5.5,2.3,11,3,16.6c0.4,1.7,0.5,3.5,0.3,5.3
		l-0.7,3.5l1.5-1.1c-22.2,2.4-44.5,3.2-66.8,3.6c-11.2,0.2-22.2,0.3-33.3,0.4c-5.5,0.1-11,0.1-16.5,0.2l-8.6,0.2
		c-2.8,0.2-5.5,0.2-8.3,0C294.7,672.9,282.4,673.7,270.2,673.5c-0.8,0.1-1.5,0.9-1.4,1.7c0.1,0.7,0.7,1.3,1.4,1.4
		c10.8,0.1,21.7-0.5,32.5,0.1c2.8,0.2,5.6,0.5,8.5,0.4l8.3-0.2c5.6-0.1,11.2-0.2,16.7-0.3c22.1-0.3,44.3-0.3,66.4-1.3
		c12.6-0.6,25.2-1.4,37.7-2.8c0.7,0,1.3-0.5,1.5-1.1l0.6-3.1c0.1-0.4,0.2-0.9,0.3-1.4c0.1-1,0-2-0.2-3c-0.6-5.3-1.4-10.5-2.5-15.6
		c-2.2-10.4-5.2-20.6-8.9-30.6c-3.6-10-7.8-19.7-12.3-29.3c-4.5-9.6-9.1-19.3-14-28.7c-2.4-4.7-5.6-8.8-10.5-10.8
		c-4.6-1.9-9.7-1.8-14.2,0.2l2.2,1.7v-0.2l-3-0.4c-0.9,14.7-7.9,29.5-19.5,38.8c-5.5,4.5-12.8,6-19.6,4c-6.7-2-12.3-6.4-15.8-12.4
		c-4.3-7.2-5.7-15.6-5.4-23.9c0-1-1.4-2-2.3-1.3c-0.2,0.1-0.4,0.1-0.1,0.1c0.6,0-0.7-0.1-0.7-0.1c-0.5,0-1.1,0-1.6,0.1
		c-1.4,0.1-2.7,0.4-4,0.8c-2.5,0.8-4.8,2-6.9,3.6c-4.3,3.4-7.8,7.7-10.3,12.6c-3.4,6.5-6.3,13.4-8.6,20.4
		c-4.9,14-8.9,28.3-12.5,42.6c-0.6,2.2-1.1,4.5-1.7,6.8c-0.3,1.1-0.9,2.7-0.1,3.7c0.6,0.6,1.6,0.6,2.2,0c0.2-0.3,0.4-0.6,0.5-0.9
		c0.2-0.8-0.4-1.6-1.2-1.8c-0.7-0.1-1.5,0.3-1.7,1l-0.5,1.5l1.5-1.1c-19.5,1.6-38.5,7.4-56.8,14c-0.8,0.2-1.3,1-1.1,1.9
		c0.7,4.9,0.9,9.9,0.5,14.8c0,0.8,0.7,1.5,1.5,1.5h18.6h29.5h6.8c0.9,0,1.6-0.7,1.7-1.5C271.8,674.3,271.1,673.6,270.2,673.5z"/>
	<path class="st5" d="M394.6,599.7l4.3,43.2l0.7-1.3c-0.4,0.3-0.9,0.6-1.4,0.8c-0.2,0.1,0.4,0.1-0.1-0.1c-0.3,0-0.7,0-1,0.1
		l-2.8,0.2l-9.3,0.8l-18.6,1.5l-37.5,3.1l-10.6,0.9l-5,0.4l-2.5,0.2c-0.8,0-1.6,0.1-2.3,0.4c-0.5,0.3-0.8,0.8-0.7,1.3
		c0.2,7.3-0.2,14.7-0.2,22c0.1,0.8,0.8,1.5,1.7,1.4c0.7-0.1,1.3-0.7,1.4-1.4c0-7.3,0.4-14.7,0.2-22l-0.8,1.3
		c-0.6,0.3,0.3,0.1,0.5,0.1l1.3-0.1l2-0.2l5-0.4l9.3-0.8l18.6-1.5l37.5-3.1l10.6-0.9c1.5-0.1,3.5,0.1,4.8-0.5c0.5-0.3,1-0.6,1.5-0.9
		c0.5-0.3,0.8-0.8,0.8-1.3l-4.3-43.2C397.4,597.7,394.4,597.7,394.6,599.7L394.6,599.7z"/>
	<path class="st5" d="M299.6,613.2c0.6,13.9,0.1,27.8-1.4,41.6c-0.2,1.9,2.8,1.9,3,0c1.5-13.8,2-27.7,1.4-41.6
		C302.6,611.3,299.5,611.2,299.6,613.2z"/>
	<path class="st5" d="M494.5,126.2c17.5-9.9,35.4-19,53.6-27.4c5.2-2.4,10.3-4.7,15.5-6.9c1.8-0.8,0.3-3.3-1.5-2.6
		c-18.4,7.9-36.5,16.6-54.3,26.1c-5,2.7-10,5.4-14.9,8.2c-0.7,0.5-0.9,1.4-0.4,2.1C493,126.3,493.8,126.5,494.5,126.2L494.5,126.2z"
		/>
	<path class="st5" d="M493.3,126.3c20.3,2.9,40.6,5.3,61,7.6l17.5,2c1.9,0.2,1.9-2.8,0-3c-20.2-2.3-40.5-4.5-60.7-7.1
		c-5.7-0.7-11.4-1.5-17-2.3C492.2,123.1,491.4,126,493.3,126.3z"/>
	<path class="st5" d="M563.5,92.5c7.4,2.6,10.2,10.8,11.4,17.9c1.3,7.4,1.6,15.5-2.3,22.1c-0.4,0.8-0.1,1.7,0.7,2.1
		c0.7,0.3,1.5,0.1,1.9-0.5c4.5-7.5,4.1-16.6,2.5-24.9c-1.5-8.1-5.1-16.7-13.4-19.5C562.5,88.9,561.7,91.9,563.5,92.5L563.5,92.5z"/>
	<path class="st5" d="M564,89.5c-1.6-1.4-1.7-4.5-0.9-6.3c1.1-2.4,4.4-3.2,6.8-2.8c3.1,0.4,5.9,2.3,8.2,4.3c2.1,1.7,3.9,3.7,5.5,5.9
		c6.5,9,8.2,20.6,4.7,31.1c-2.2,6.2-7.7,13.8-15.3,11.4c-1.9-0.6-2.7,2.3-0.8,2.9c7.7,2.5,14.5-3.5,17.6-10c2.8-6,3.9-12.7,3.1-19.4
		c-0.7-6.5-3.1-12.7-7-18c-3.9-5.3-10-11.2-16.9-11.3c-3.6-0.1-7.5,1.7-8.8,5.3c-1,2.9-0.7,7,1.7,9.1
		C563.3,92.9,565.5,90.8,564,89.5L564,89.5z"/>
	<path class="st5" d="M553.7,103.3c-2.9,0.5-6,1.8-7.2,4.8c-0.6,1.5-0.4,3.1,0.7,4.3c1.2,1,2.7,1.6,4.2,1.7c2.8,0.5,5.6,0.1,8.1-1.1
		c2.3-1.1,4.9-3.7,4.8-6.5c-0.1-2.2-2.1-3-4-3.3C558.1,102.9,555.9,102.9,553.7,103.3c-0.8,0.3-1.2,1.1-1,1.9c0.2,0.7,1,1.2,1.8,1
		c1.4-0.2,2.7-0.3,4.1-0.2c0.6,0,1.3,0.1,1.9,0.2c0.3,0,0.5,0.1,0.8,0.2c0.3,0.5-0.7,1.8-0.9,2.1c-0.6,0.7-1.3,1.2-2,1.7
		c-1.7,0.8-3.5,1.2-5.4,1.1c-1,0-1.9-0.2-2.8-0.5c-0.3-0.1-0.6-0.3-0.8-0.5c-0.1-0.3-0.1-0.6,0-0.9c0.6-2.1,3.3-2.8,5.2-3.1
		c0.8-0.2,1.3-1.1,1.1-1.9C555.4,103.6,554.6,103.1,553.7,103.3L553.7,103.3z"/>
	<path class="st5" d="M532.1,113.2c-1.6,0.4-3.2,1.1-4.6,2.1c-1.4,1-2.3,2.6-2.5,4.3c-0.2,1.7,0.7,3.4,2.2,4.3
		c1.3,0.7,2.9,1.1,4.4,1.1c2.9,0.1,6.1-0.4,7.8-3.1c1-1.6,1.2-3.6,0.4-5.3c-1.3-2.6-4.6-3.3-7.3-3.5c-0.8-0.1-1.6,0.6-1.7,1.4
		c-0.1,0.8,0.6,1.6,1.4,1.7c0.1,0,0.2,0,0.3,0c0.5,0,1.1,0.1,1.6,0.2c0.5,0.1,1,0.3,1.5,0.4c0.2,0.1-0.3-0.2,0,0l0.3,0.1
		c0.2,0.1,0.3,0.2,0.5,0.3s0.1,0.2-0.1-0.1l0.2,0.2c0.1,0.1,0.1,0.1,0.2,0.2c0,0,0.3,0.3,0.1,0.1c-0.2-0.2,0.1,0.2,0.2,0.3
		c0,0.1,0.1,0.2,0.1,0.2s-0.1-0.4,0-0.1c0,0.1,0.1,0.3,0.1,0.4c0,0.1,0,0.2,0,0.2c0-0.3,0-0.3,0-0.2c0,0.1,0,0.1,0,0.2v0.4
		c0,0.1,0,0.2,0,0.2c-0.1-0.2,0.1-0.4,0-0.1c-0.1,0.3,0,0.2-0.1,0.4l-0.1,0.2c-0.1,0.4,0.1-0.2,0,0c-0.1,0.3-0.3,0.5-0.4,0.7
		c-0.2,0.3,0.2-0.2,0,0c-0.1,0.1-0.2,0.2-0.3,0.3l-0.2,0.2c0.1-0.1,0.1-0.1-0.1,0c-0.4,0.3-0.8,0.5-1.3,0.6
		c-0.5,0.2-1.1,0.2-1.7,0.2c-0.6,0-1.2,0-1.7,0h-0.7c-0.5,0,0.3,0.1-0.2,0l-0.6-0.1c-0.2-0.1-0.5-0.1-0.7-0.2
		c0.3,0.1-0.1-0.1-0.2-0.1c-0.1-0.1-0.2-0.1-0.4-0.2c0.2,0.2-0.1-0.1-0.1-0.1l-0.2-0.2c0.2,0.2-0.1-0.2-0.1-0.2c0,0-0.1-0.2,0,0
		c0-0.1-0.1-0.2-0.1-0.3c-0.1-0.4,0,0.2,0-0.2c0-0.2,0-0.3,0-0.4c0,0.3,0-0.2,0-0.2c0-0.2,0.1-0.4,0.2-0.6c-0.1,0.2,0-0.1,0.1-0.1
		c0.1-0.1,0.2-0.3,0.3-0.5c0.2-0.4-0.2,0.1,0.1-0.2c0.3-0.3,0.3-0.3,0.5-0.5c1.1-0.8,2.4-1.4,3.7-1.7c0.8-0.2,1.3-1.1,1.1-1.9
		C533.9,113.5,533.1,112.9,532.1,113.2C532.2,113.2,532.2,113.2,532.1,113.2L532.1,113.2z"/>
	<path class="st5" d="M547.3,130.5c1-1.6,2.3-3,3.9-4c1.3-1,3-1.4,4.7-1.1c1.5,0.6,2.8,1.5,3.7,2.8c1.1,1.2,1.8,2.6,2.1,4.1
		c0.2,0.8,1,1.3,1.9,1.1c0,0,0,0,0,0c0.8-0.2,1.3-1.1,1.1-1.9c-0.5-2.1-1.5-4-3-5.6c-1.4-1.7-3.2-2.9-5.2-3.5
		c-4.7-1.2-9.6,2.8-11.8,6.6c-0.4,0.8,0,1.7,0.7,2C546.2,131.4,547,131.2,547.3,130.5L547.3,130.5z"/>
	<path class="st5" d="M507.2,120.8c3.6,1.2,7.6,0.7,10.8-1.4c3-2.1,5-5.5,5.3-9.2c0-0.8-0.7-1.5-1.5-1.5c-0.8,0-1.5,0.7-1.5,1.5
		c-0.3,2.7-1.7,5.2-3.9,6.7c-2.5,1.6-5.5,2-8.3,1c-0.8-0.2-1.6,0.3-1.9,1.1C506,119.7,506.4,120.5,507.2,120.8L507.2,120.8z"/>
	<path class="st5" d="M523,175.1c-2.5-12.2,6-23.7,17.1-28c5.8-2.2,12.1-3,18.4-2.3c6.1,0.7,11.9,3.2,15.1,8.6
		c3.2,5.5,3.7,12.3,3.9,18.5c0.1,2,3.1,2,3,0c-0.2-6.3-0.8-12.8-3.6-18.6c-3-6.1-8.7-9.8-15.3-11.1c-13.3-2.6-28.8,1.5-36.9,12.9
		c-4.4,6-6.1,13.5-4.7,20.8C520.4,177.8,523.4,177,523,175.1L523,175.1z"/>
	<path class="st5" d="M521.9,174c-2.9-0.6-6.1,0-7.1,3.1c-0.6,1.9-0.2,4.7,1.8,5.6l-0.5-2.1c-1.6,2.1-0.8,5.2,1,6.9
		c0.9,0.9,2.1,1.3,3.3,1.4c0.7,0,1.5-0.2,2.1-0.5c0.8-0.3,1.7-0.4,2.5-0.1c1.3,0.6,2.8,1,4.2,1c1.4-0.2,2.7-1,3.6-2.1
		c1.1-1.1,2.1-0.7,3.5-0.2c1.4,0.7,3,1.1,4.5,1c1.4-0.4,2.7-1,4-1.8c1.8-0.9,3.1,0.5,4.7,1.2c1.4,0.6,3,0.9,4.5,0.8
		c1.8-0.2,3.5-0.7,5-1.6c1.6-0.8,2.6-0.3,4.1,0.4c1.4,0.7,3,0.9,4.5,0.6c2.6-0.7,4.5-3.2,7.1-3.6c1.8-0.3,3.5,0.5,5.2-0.5
		c1.1-0.7,1.9-1.7,2.3-2.9c1-2.3,1.3-5.5-0.2-7.7c-1.1-1.6-3.8-0.1-2.6,1.5c0.9,1.6,0.9,3.5,0,5.1c-0.2,0.6-0.7,1.1-1.3,1.4
		c-0.7,0.1-1.3,0.1-2,0c-0.8-0.1-1.7,0-2.5,0.1c-2.5,0.6-4.2,2.6-6.5,3.4c-1.1,0.3-2.2,0.1-3.2-0.5c-1.2-0.7-2.6-1-4-1
		c-1.5,0.2-2.6,1-3.9,1.6c-1.5,0.6-3.1,0.7-4.7,0.2c-1.4-0.4-2.5-1.4-3.8-1.8c-1.3-0.4-2.8-0.3-4.1,0.3c-1.1,0.5-2.2,1.6-3.5,1.6
		c-1.3,0-2.5-0.8-3.7-1.2c-1.1-0.4-2.3-0.5-3.4-0.3c-1.3,0.4-2.1,1.4-3.1,2.2c-1.2,1-2.5,0.1-3.8-0.3c-1.4-0.5-3-0.5-4.5,0
		c-1.2,0.4-2.1,0.6-2.9-0.5c-0.7-0.8-0.7-1.9-0.1-2.7c0.4-0.7,0.2-1.7-0.5-2.1c-0.3-0.1-0.3-0.2-0.5-0.6c-0.1-0.4-0.1-0.9,0-1.4
		c0.5-1.4,2.1-1.4,3.4-1.1c1.9,0.4,2.7-2.5,0.8-2.9L521.9,174z"/>
	<path class="st5" d="M522.8,176.3c2.3-3.6,8.4-3,11.6-1.1c0.8,0.4,1.7,0.1,2.1-0.7c0.1-0.2,0.2-0.4,0.2-0.6c0.1-2,2.4-3.2,4.2-3.2
		c2.6-0.1,5,1.6,6.9,3.1c0.8,0.6,2.4,0.6,2.5-0.7c0.4-2,2.3-3.4,4.3-3.2c2.5,0.2,4.5,2.2,6,4.1c0.6,0.6,1.6,0.6,2.2,0
		c0.1-0.1,0.2-0.2,0.2-0.3c1.5-2.6,4.9-3.5,7.4-1.9c0.8,0.4,1.4,1.1,1.8,1.8c0.9,1.4,2.1,3.1,4,2.6c0.8-0.3,1.6-0.8,2-1.6
		c0.4-0.5,0.8-0.6,1.1,0c0.8,1.8,3.3,0.2,2.6-1.5c-0.9-1.8-3-2.5-4.8-1.6c-0.7,0.3-1.2,0.9-1.6,1.6l-0.2,0.2c0.3,0,0.3,0,0.1-0.2
		c-0.2-0.2-0.4-0.4-0.5-0.6c-0.6-1-1.4-1.9-2.2-2.7c-3.7-2.9-9-2.3-11.9,1.4c-0.2,0.3-0.5,0.6-0.7,1l2.4-0.3
		c-2.1-2.7-5.2-5.2-8.8-4.9c-3,0.2-6.1,2.2-6.6,5.4l2.5-0.7c-2.9-2.2-6.3-4.5-10.2-3.9c-3.2,0.4-5.8,2.9-6.2,6.2l2.3-1.3
		c-4.7-2.8-12.5-2.9-15.8,2.2C519,176.3,521.7,177.9,522.8,176.3L522.8,176.3z"/>
	<path class="st5" d="M520.2,189.7c4.8,10,14,17.1,24.9,19.2c10.6,1.8,21.4-2,28.4-10.2c3.9-4.4,6.4-9.9,7.1-15.7c0.2-2-2.8-1.9-3,0
		c-1.1,9.4-7.9,17.4-16.4,21.1c-9.1,4-19.5,2.2-27.5-3.3c-4.6-3.2-8.4-7.6-10.8-12.7C522,186.4,519.3,187.9,520.2,189.7L520.2,189.7
		z"/>
	<path class="st5" d="M538.7,154.5c0.8-0.1,1.5-0.8,1.4-1.7c-0.1-0.7-0.7-1.3-1.4-1.4c-0.8,0.1-1.5,0.8-1.4,1.7
		C537.4,153.8,538,154.4,538.7,154.5z"/>
	<path class="st5" d="M549.2,151.8c0.8-0.1,1.5-0.8,1.4-1.7c-0.1-0.7-0.7-1.3-1.4-1.4c-0.8,0.1-1.5,0.8-1.4,1.7
		C547.9,151.2,548.5,151.8,549.2,151.8z"/>
	<path class="st5" d="M548.7,160.1c0.8-0.1,1.5-0.8,1.4-1.7c-0.1-0.7-0.7-1.3-1.4-1.4c-0.8,0.1-1.5,0.8-1.4,1.7
		C547.4,159.5,548,160.1,548.7,160.1z"/>
	<path class="st5" d="M533.4,162.7c0.8-0.1,1.5-0.8,1.4-1.7c-0.1-0.7-0.7-1.3-1.4-1.4c-0.8,0.1-1.5,0.8-1.4,1.7
		C532.1,162,532.7,162.6,533.4,162.7z"/>
	<path class="st5" d="M558.5,153.8c0.8-0.1,1.5-0.8,1.4-1.7c-0.1-0.7-0.7-1.3-1.4-1.4c-0.8,0.1-1.5,0.8-1.4,1.7
		C557.2,153.1,557.7,153.7,558.5,153.8z"/>
	<path class="st5" d="M563.9,161.1c0.8-0.1,1.5-0.8,1.4-1.7c-0.1-0.7-0.7-1.3-1.4-1.4c-0.8,0.1-1.5,0.8-1.4,1.7
		C562.5,160.5,563.1,161,563.9,161.1z"/>
	<path class="st5" d="M316.5,102.2c-3.3-1.9-7.3-2.2-10.9-0.9c-3.5,1.3-7.8,4.5-7.3,8.8c0.4,3.9,4.6,5.4,8,5.5
		c4.2,0.2,8.9-0.9,11.3-4.7c2-3.3,1.1-9.6-3.6-9.9c-2-0.1-2,2.9,0,3c0.9,0,1.3,1,1.4,1.8c0.3,1.2,0.1,2.4-0.5,3.4
		c-1.7,2.7-5.3,3.2-8.2,3.2c-1.8,0-5-0.4-5.4-2.6c-0.3-1.4,0.9-2.8,1.9-3.7c0.9-0.8,2-1.5,3.2-1.9c2.8-1,5.9-0.8,8.6,0.6
		c0.7,0.4,1.7,0.2,2.1-0.5C317.5,103.6,317.2,102.7,316.5,102.2L316.5,102.2z"/>
	<path class="st5" d="M304.5,107C304.6,107.2,304.8,107.5,304.5,107l0.3,0.3c0.2,0.2,0.3,0.5,0.4,0.7c0.1,0.1,0.1,0.2,0.2,0.4
		c0,0.1,0.1,0.1,0.1,0.2c0,0.1,0.1,0.3,0,0.1v0.1l0.1,0.2c0.1,0.1,0.1,0.3,0.2,0.4c0.4,1.1,0.6,2.1,0.8,3.2c0.2,0.8,1,1.3,1.9,1.1
		c0,0,0,0,0,0c0.8-0.2,1.3-1.1,1.1-1.9c-0.2-1.2-0.5-2.3-0.9-3.4c-0.4-1.3-1.1-2.5-2-3.5c-0.6-0.6-1.6-0.6-2.2,0
		C303.9,105.5,303.9,106.4,304.5,107L304.5,107z"/>
	<path class="st5" d="M303.6,114.2c-1,2.7-1.5,5.5-1.5,8.3c-0.2,2.8,0.5,5.6,2,8c0.9,1.4,2.4,2.4,4.1,2.8c1.6,0.2,3.2-0.4,4.2-1.6
		c1.9-2.3,2-5.7,1.7-8.6c-0.3-3.5-1.6-6.9-3.8-9.7c-0.6-0.6-1.6-0.6-2.2,0s-0.6,1.6,0,2.2c1.4,1.9,2.3,4.1,2.7,6.4
		c0.6,2.2,0.5,4.5-0.2,6.7c-0.3,0.8-0.9,1.7-1.8,1.7c-1.1-0.2-2-0.9-2.4-1.8c-1-1.9-1.4-4-1.3-6.1c0.1-2.5,0.5-5,1.4-7.3
		c0.2-0.8-0.3-1.7-1.1-1.9c0,0,0,0,0,0C304.7,112.9,303.8,113.4,303.6,114.2L303.6,114.2z"/>
	<path class="st5" d="M317.3,103.5c1-11.2,2.9-22.2,4.2-33.3c0.1-1.2,0.3-2.4,0.4-3.6c0-1.2,0.2-2.5,0.6-3.6c0.1-0.2,0.1,0,0-0.1
		s0.1,0.3,0.1,0.4c0.2,0.6,0.4,1.1,0.5,1.8c0.4,1.6,0.6,3.2,0.7,4.9c0.5,6.2-0.4,12.4-0.1,18.5c0,2.8,0.8,5.6,2.2,8
		c1.5,2.1,3.5,3.9,5.7,5.3c4.3,2.9,8.4,6.1,12.2,9.7c7.5,7.2,13.6,15.6,18.1,25c5.1,10.5,8,21.9,8.4,33.6c0.1,2,3.1,2,3,0
		c-1-22.2-10.1-43.2-25.7-59.1c-3.8-3.9-8-7.4-12.5-10.5c-2.2-1.5-4.7-3-6.3-5.2c-1.9-2.5-2.1-5.6-2.1-8.6
		c-0.1-6.6,0.8-13.2-0.2-19.7c-0.3-2.2-0.7-6.4-3.3-7.1c-2.7-0.7-3.9,2.3-4.1,4.5c-1.5,13.1-3.8,26.1-4.9,39.2
		C314.1,105.5,317.1,105.5,317.3,103.5L317.3,103.5z"/>
	<path class="st5" d="M314.6,110.5c0,14.3,1,28.6,0.9,43c0,0.9,0.7,1.5,1.6,1.5c0.3,0,0.5-0.1,0.7-0.2c1.2-0.7,2.1-1.9,2.5-3.3
		c0.6-1.9,1-3.9,1.4-5.8c0.8-3.8,1.4-7.7,1.9-11.6c0.5-3.9,0.8-7.8,1-11.8c0.1-2.3-0.2-6,1.7-7.7c2.3-2.1,5.7,1.5,6.7,3.3
		c1.4,2.7,1.9,5.7,1.4,8.7c-0.7,3.6-1.9,7.1-3.6,10.3c-1.7,3.6-3.4,7.2-5.1,10.9l-5.8,12.3c-0.9,2-2,4-2.8,6.1
		c-0.8,1.7-0.8,3.7,0.1,5.3c0.4,0.7,1.4,1,2.1,0.5c4.5-3.3,7.4-8,9.9-12.8c3-5.7,6-11.4,9.1-17.1c1.6-2.9,3.2-5.8,4.8-8.7
		c0.4-0.8,1.1-2.6,2.2-2.6c1.1,0,1.9,1.4,2.4,2.2c1.7,2.8,3.2,5.7,4.8,8.6l4.9,8.9l11,20c0.9,1.7,3.6,0.2,2.6-1.5l-10.4-18.9
		l-5.3-9.6c-1.7-3-3.2-6.2-5-9.1c-1.3-2-3.3-4.2-6-3.6c-2.8,0.7-4.1,4.3-5.4,6.6c-3.4,6.1-6.7,12.1-9.9,18.3
		c-3.1,5.9-5.9,12.6-11.4,16.7l2.1,0.5c-0.8-1.5,0.5-3.5,1.1-4.9l2.8-5.9l5.4-11.4c1.8-3.8,3.6-7.5,5.3-11.3c1.7-3.4,2.8-7.2,3.2-11
		c0.2-3.1-0.4-6.2-1.9-8.9c-1.5-2.7-4.3-5.3-7.5-5.6c-7.6-0.7-6.6,10.4-6.9,15c-0.3,4.7-0.9,9.4-1.6,14c-0.4,2.3-0.8,4.7-1.4,7
		c-0.3,1.5-0.5,4.3-2,5.1l2.3,1.3c0-14.3-1-28.6-0.9-43c-0.1-0.8-0.8-1.5-1.7-1.4C315.3,109.1,314.7,109.7,314.6,110.5L314.6,110.5z
		"/>
	<path class="st5" d="M380.2,151.2c1.2,6.1,1.7,12.3,3,18.4c0.4,1.9,3.3,1.1,2.9-0.8c-1.2-6.1-1.7-12.3-3-18.4
		C382.7,148.5,379.7,149.3,380.2,151.2z"/>
	<path class="st5" d="M290.8,173.5c32.7-0.6,65.4-2,98.1-2.4c9.2-0.1,18.3-0.2,27.5-0.1c0.8-0.1,1.5-0.8,1.4-1.7
		c-0.1-0.7-0.7-1.3-1.4-1.4c-32.8-0.2-65.7,1-98.5,1.9c-9,0.2-18.1,0.5-27.1,0.7c-0.8,0.1-1.5,0.8-1.4,1.7
		C289.5,172.8,290.1,173.4,290.8,173.5L290.8,173.5z"/>
	<path class="st5" d="M381.6,152.3c9.7,0.9,19.4,1.3,29.1,1.1l-1.5-1.9l-5.6,15.9c-0.6,1.9,2.3,2.7,2.9,0.8l5.6-15.9
		c0.2-0.8-0.3-1.7-1.1-1.9c-0.1,0-0.2,0-0.4-0.1c-9.7,0.2-19.4-0.2-29.1-1.1C379.7,149.1,379.7,152.2,381.6,152.3L381.6,152.3z"/>
	<path class="st5" d="M395.6,149.2c-4.1-3.9-5.7-9.9-7.3-15.1c-2-6.5-3.9-13.2-4.2-20c-0.1-2.1,0.1-17.1,5.2-12.9
		c2.2,1.9,2.9,5.5,3.3,8.2c0.4,3.3,0.5,6.7,0.6,10c0.4,7.7,0.3,15.5-0.5,23.2c-0.2,1.8,2.5,1.9,3,0.4c1.4-4,2.7-8,5.1-11.5
		c1.1-1.6,2.5-3.5,4.4-4.3s2.8,0.7,2.7,2.4c-0.3,3.9-2.8,7.8-5.2,10.7c-2.8,3.2-5.9,6.2-9.2,8.8c-1.5,1.3,0.7,3.4,2.2,2.2
		c6-5.1,12.3-10.6,14.7-18.4c1-3.2,1.1-8-3-8.9c-3.9-0.9-7.2,3.1-9.1,5.9c-2.6,3.7-4,8-5.4,12.3l3,0.4c0.7-7.8,0.9-15.6,0.5-23.4
		c-0.1-3.9-0.4-7.7-0.9-11.6c-0.5-3.2-1.6-6.8-4.2-8.9c-2.1-1.9-5.4-1.7-7.3,0.5c-0.1,0.1-0.2,0.2-0.3,0.4c-1.9,2.5-2.2,6.2-2.5,9.3
		c-0.6,7.6,1.1,15.3,3.2,22.5c1,3.8,2.2,7.5,3.6,11.1c1.2,3.3,3,6.3,5.5,8.8C394.9,152.6,397,150.5,395.6,149.2L395.6,149.2z"/>
	<path class="st5" d="M552.1,316.5c5.4-13.2,9-27.2,10.5-41.4l-1.9,1.5c4.1,1.3,8.4,1.8,12.6,1.5c2.1-0.2,4.2-0.5,6.3-1.1
		c0.4-0.1,0.8-0.3,1.2-0.3c0.4-0.1,0.3-0.2,0.4,0.3c0.3,1.1,0.4,2.2,0.7,3.2c1.6,8.1,3.3,16.3,5.6,24.3c1.3,4.7,2.8,9.2,4.5,13.8
		c0.7,1.8,3.6,1,2.9-0.8c-3-8.3-5.5-16.8-7.4-25.4c-1-4.3-1.8-8.6-2.7-12.9c-0.4-1.8-0.4-4.5-2.2-5.4c-1.8-0.9-4,0.4-5.7,0.7
		c-5.1,1-10.3,0.7-15.2-0.9c-0.8-0.2-1.7,0.2-1.9,1.1c0,0.1-0.1,0.3-0.1,0.5c-1.5,14-5,27.7-10.4,40.7
		C548.4,317.5,551.4,318.3,552.1,316.5L552.1,316.5z"/>
	<path class="st5" d="M550.2,317.5c2.8,1,5.2,2.8,8.1,3.6c1.4,0.5,3,0.1,4.1-0.9c0.9-1.2,1.7-2.6,2.2-4.1l9.5-20.7l-2.8-0.4
		l8.2,27.4c0.2,0.8,1.1,1.3,1.9,1.1c4.5-0.8,8.8-2.3,12.8-4.5c1.7-0.9,0.2-3.5-1.5-2.6c-3.8,2-7.9,3.4-12.1,4.1l1.9,1.1l-8.2-27.4
		c-0.3-1.1-2.2-1.6-2.8-0.4l-8.4,18.4c-0.7,1.5-1.4,3.1-2.1,4.6c-0.2,0.4-0.4,1.1-0.8,1.4c-0.4,0.2-1.2-0.1-1.7-0.3
		c-2.5-0.9-4.8-2.5-7.3-3.3C549.2,313.9,548.4,316.8,550.2,317.5L550.2,317.5z"/>
	<path class="st5" d="M533.5,334.9c7.7,2.4,16.1,1.8,23.4-1.5c1.8-0.8,0.2-3.4-1.5-2.6c-6.7,2.9-14.2,3.3-21.1,1.1
		C532.4,331.3,531.6,334.2,533.5,334.9L533.5,334.9z"/>
	<path class="st5" d="M532.3,332.5c-5.4,9-10.4,18.3-14.9,27.8c-0.4,0.7-0.2,1.7,0.5,2.1c7.5,3.8,15.6,6.8,24,7.4
		c6.7,0.3,13.3-0.8,19.6-3.3c3.4-1.2,6.5-2.9,9.2-5.2c1.5-1.3-0.7-3.4-2.2-2.2c-4.5,3.9-10.9,5.8-16.7,6.9
		c-6.6,1.2-13.4,0.8-19.9-1.1c-4.3-1.3-8.6-3-12.6-5.1l0.5,2.1c4.6-9.5,9.5-18.8,14.9-27.8c0.4-0.7,0.2-1.7-0.5-2.1
		S532.8,331.8,532.3,332.5L532.3,332.5z"/>
	<path class="st5" d="M554.7,332.1c0.2,2.4,1.4,4.2,2.4,6.3c1.3,2.5,2.5,5.1,3.8,7.6l7.5,15l0.5-2.1c-0.5,0.3-0.9,0.7-1.3,1.1
		c-0.3,0.3-0.6,0.9-1.1,1c-0.8,0.3-1.2,1.2-0.9,2c0.3,0.7,1,1.1,1.7,1c1.4-0.4,1.9-1.7,3.1-2.5c0.7-0.4,0.9-1.4,0.5-2.1l-7-14.1
		l-3.4-6.9c-1-2-2.6-4-2.8-6.3C557.5,330.1,554.4,330.1,554.7,332.1L554.7,332.1z"/>
	<path class="st5" d="M536,336.1l-5,18.2c-0.2,0.8,0.3,1.6,1.1,1.9c0.8,0.2,1.6-0.3,1.9-1.1l5-18.2c0.2-0.8-0.4-1.6-1.2-1.8
		C537,335,536.3,335.5,536,336.1L536,336.1z"/>
	<path class="st5" d="M541.5,337c0,4.7-0.3,9.4-0.9,14.1c0,0.8,0.7,1.5,1.5,1.5c0.8,0,1.5-0.7,1.5-1.5c0.6-4.7,0.9-9.4,0.9-14.1
		c-0.1-0.8-0.8-1.5-1.7-1.4C542.1,335.7,541.5,336.3,541.5,337z"/>
	<path class="st5" d="M547.5,336.5c2.2,5,3.8,10.2,4.8,15.5c0.2,0.8,1.1,1.3,1.9,1.1c0.8-0.2,1.3-1.1,1.1-1.9l0,0
		c-1.1-5.6-2.8-11.1-5.1-16.3c-0.4-0.7-1.4-1-2.1-0.5C547.4,334.8,547.1,335.7,547.5,336.5z"/>
	<path class="st5" d="M486.4,277.5l1.8,7.8c0.4,1.9,0.5,5,2.5,6c0.9,0.4,1.9,0.4,2.9,0c1.3-0.4,2.5-0.8,3.7-1.2l7.5-2.4l-2-1.5
		c-0.4,11.3-1.5,22.6-3.3,33.8c-0.2,0.8,0.3,1.7,1.1,1.9c0.1,0,0.2,0,0.3,0c8.6,0.6,17.2,0.7,25.8,0.7c2.7,0.1,5.4,0,8.1-0.3
		c1.3,0,2.3-1.1,2.2-2.3c0.1-2.3,0.1-4.7-0.1-7c-0.1-8-0.1-16-0.2-24.1l-2.2,1.3c3.6,1.7,7.6,2.5,11.2,4.1c1.8,0.8,3.3-1.8,1.5-2.6
		c-3.6-1.7-7.6-2.5-11.2-4.1c-0.8-0.4-1.7-0.1-2.1,0.6c-0.1,0.2-0.2,0.5-0.2,0.7l0.1,20.1c0,2.8,0,5.7,0.1,8.5c0,0.5,0,1,0,1.4
		c-0.1,0.4-0.1,0.7-0.1,1.1c-0.1-0.1,0.8-0.7,0.8-0.7c0.1,0-0.1,0-0.1,0c-0.1,0-0.1,0-0.2,0c-0.2-0.1,0.3,0,0.1,0
		c-2.6,0.2-5.3,0.3-7.9,0.3c-4.2,0-8.4,0-12.6-0.1c-4.5-0.1-8.8-0.2-13.2-0.6l1.5,1.9c1.9-11.4,3.1-23,3.6-34.6
		c0-0.8-0.7-1.5-1.5-1.5c-0.1,0-0.3,0-0.4,0.1l-6.1,2l-3,1l-1.6,0.5c-0.2,0.1-0.9,0.4-1.1,0.3s-0.4-1.6-0.5-2.1l-0.8-3.4l-1.4-6.4
		C489,274.7,486.1,275.5,486.4,277.5L486.4,277.5z"/>
	<path class="st5" d="M488.9,278.1l21.4-11l-2.2-0.9c1.6,3.9,5.3,6.6,9.6,6.9c4.3,0.1,8.2-2.3,10-6.1l-2.1,0.5
		c8.2,5.7,17.3,10.2,26.8,13.3l-0.9-2.2l-6.3,13.6c-0.8,1.8,1.8,3.3,2.6,1.5l6.3-13.6c0.4-0.8,0.1-1.7-0.6-2.1
		c-0.1,0-0.2-0.1-0.3-0.1c-9.3-3-18.1-7.4-26.1-12.9c-0.7-0.4-1.7-0.2-2.1,0.5c-1.7,3.9-6.2,5.6-10,4c-1.8-0.8-3.2-2.2-4-4
		c-0.2-0.8-1.1-1.3-1.9-1c-0.1,0-0.2,0.1-0.3,0.1l-21.4,11.1C485.6,276.4,487.1,279.1,488.9,278.1L488.9,278.1z"/>
	<path class="st5" d="M212.4,269c28.1-0.1,56.2-0.3,84.2-0.6c27.9-0.3,55.8-0.6,83.7-1.1c15.7-0.3,31.5-0.6,47.2-0.9c2,0,2-3.1,0-3
		c-28.1,0.6-56.1,1-84.2,1.4c-27.9,0.4-55.8,0.7-83.7,0.9c-15.7,0.1-31.5,0.2-47.2,0.3c-0.8,0-1.5,0.7-1.5,1.5
		C210.9,268.3,211.6,269,212.4,269L212.4,269z"/>
	<path class="st5" d="M346.7,264.7c0.5-18.4-0.2-36.9-1.3-55.3l-1.5,1.5l17.8,0.4l8.9,0.2l4.3,0.1h2c0.4,0,2.1-0.2,2.4,0.1
		c-0.3-0.2-0.2,1.1-0.2,1.3l-0.1,2c-0.1,1.5-0.1,3-0.2,4.5c-0.1,3-0.1,6-0.1,8.9c0,5.7,0,11.4,0,17.1c0,6.6-0.1,13.2-0.5,19.7
		c-0.1,2,2.9,2,3,0c0.7-12.3,0.4-24.6,0.4-36.8c0-3.2,0.1-6.3,0.2-9.5c0-1.4,0.1-2.8,0.2-4.3s0.4-3,0-4.3c-0.4-1.1-1.5-1.8-2.7-1.8
		c-1.6-0.1-3.1-0.1-4.7-0.1l-9.4-0.2l-21.3-0.4c-0.8,0-1.5,0.7-1.5,1.5c1.1,18.4,1.8,36.8,1.3,55.3
		C343.6,266.6,346.6,266.6,346.7,264.7L346.7,264.7z"/>
	<path class="st5" d="M344.9,219.1c11.4,0.2,22.8,0.5,34.2,0.7c0.8-0.1,1.5-0.8,1.4-1.7c-0.1-0.7-0.7-1.3-1.4-1.4
		c-11.4-0.2-22.8-0.5-34.2-0.7c-0.8,0.1-1.5,0.8-1.4,1.7C343.5,218.5,344.1,219.1,344.9,219.1z"/>
	<path class="st5" d="M360.6,220.1c0.3,15,1.8,30,0.8,45c-0.1,2,2.9,1.9,3,0c1-15-0.5-30-0.8-45c-0.1-0.8-0.8-1.5-1.7-1.4
		C361.3,218.7,360.7,219.3,360.6,220.1L360.6,220.1z"/>
	<path class="st5" d="M220.3,267l1.5-39.8l-1.5,1.5l27.7,0.1c0.7,0,2.1-0.2,2.7,0.3c0.4,0.6,0.6,1.3,0.6,2.1
		c0.1,2.2,0.1,4.5,0.1,6.7c0,4.4-0.1,8.8-0.2,13.3c-0.2,5.1-0.4,10.1-0.7,15.2c-0.1,2,2.9,2,3,0c0.6-9.6,1-19.3,0.9-28.9
		c0.1-2.3,0-4.6-0.1-6.9c0-1.8-1-3.4-2.5-4.3c-0.9-0.3-2-0.5-3-0.4H245h-7.7l-17-0.1c-0.8,0-1.5,0.7-1.5,1.5l-1.5,39.8
		C217.2,269,220.3,269,220.3,267L220.3,267z"/>
	<path class="st5" d="M278.7,249c1.1-5.2,1.3-10.7,3.1-15.7c0.8-2.2,2-4.2,3.7-5.9c1.8-1.6,3.9-2.8,6.3-3.4
		c4.6-1.4,10.3-2.2,14.8,0.2c4,2.1,6.9,6.1,9,10c2.3,4.5,3.3,9.6,2.7,14.6c-0.2,2,2.9,2,3,0c0.5-5-0.4-10.1-2.5-14.7
		c-2.1-4.7-5.4-8.8-9.6-11.8c-4.9-3.2-10.8-2.9-16.2-1.7c-5.3,1.2-9.9,3.8-12.6,8.6c-3.3,5.8-3.3,12.7-4.7,19.1
		C275.3,250.1,278.3,250.9,278.7,249L278.7,249z"/>
	<path class="st5" d="M268.9,252.7l50.7-1.5l6.3-0.2c0.6,0,2.2-0.3,2.7,0.1c0.5,0.4,0.5,1.9,0.6,2.5c0.1,1.1,0.2,2.2,0.2,3.3
		c0,0.7,0.1,1.7-0.5,2.1c-0.8,0.3-1.7,0.4-2.6,0.3l-3.3,0.2c-8.4,0.6-16.7,1-25.1,1.2c-9.6,0.2-19.1,0.1-28.6-0.2l1.5,1.1
		c-0.7-3-0.9-6.1-0.6-9.2c0.2-2-2.8-1.9-3,0c-0.4,3.3-0.1,6.7,0.7,10c0.2,0.7,0.8,1.1,1.5,1.1c18.4,0.7,36.9,0.3,55.2-1.1
		c1.9-0.1,4.4,0,6.1-0.9c1.7-0.9,1.9-2.7,1.9-4.4c0.1-2.1-0.2-4.2-0.7-6.3c-0.5-1.8-2.1-3-3.9-2.9c-4.6-0.1-9.2,0.3-13.8,0.4
		l-13.9,0.4l-31.3,0.9C266.9,249.7,266.9,252.8,268.9,252.7L268.9,252.7z"/>
	<path class="st5" d="M275.7,233.7c-3,0.3-5.6,2.2-6.8,4.9c-1.5,3.1-1.4,6.6-1.1,10c0.1,0.8,0.8,1.5,1.7,1.4
		c0.7-0.1,1.3-0.7,1.4-1.4c-0.2-2.7-0.5-5.6,0.6-8.2c0.7-1.8,2.4-3.5,4.3-3.7c0.8,0,1.5-0.7,1.5-1.5
		C277.2,234.4,276.6,233.7,275.7,233.7L275.7,233.7z"/>
	<path class="st5" d="M317.8,235.6L317.8,235.6l0.4-1l0,0l0.7-0.4h0.7c-0.1,0-0.1,0-0.2,0l0.7,0.4l0.1,0.2l0.2,0.8v-0.1l-0.2,0.8
		c-0.8,0.3-1,0.5-0.7,0.4h2.3h2.5c0.7-0.1,1.4-0.1,2.1,0.1c0,0,0.1,0.2,0.1,0.1c0.1,0.2,0.1,0.5,0.2,0.7c0,1.6,0,3.3-0.1,4.9
		l-0.2,5.4c-0.1,2,3,2,3,0l0.3-8.1c0.1-2.2,0.2-5.1-2.4-6.1c-1.2-0.3-2.5-0.4-3.8-0.2c-1.3,0-2.7,0-4,0c-0.6,0-1.3,0.2-1.7,0.6
		c-0.6,0.6-0.7,1.4-0.3,2.1c0.5,0.8,1.5,1.1,2.4,0.6c0.5-0.3,0.8-0.8,0.9-1.4c-0.1-0.8-0.8-1.5-1.7-1.4
		C318.5,234.2,317.9,234.8,317.8,235.6L317.8,235.6z"/>
	<path class="st5" d="M269.6,263.7v1.7c0,0.2,0,0.4,0.1,0.6c0.1,0.4,0.4,0.7,0.8,0.8c0.2,0.1,0.4,0.1,0.6,0.1l0.4-0.1
		c0.3-0.1,0.5-0.2,0.7-0.4c0.3-0.3,0.5-0.7,0.4-1.1v-1.7c0-0.2,0-0.4-0.1-0.6c-0.1-0.2-0.2-0.4-0.3-0.5c-0.1-0.1-0.3-0.3-0.5-0.3
		c-0.2-0.1-0.4-0.1-0.6-0.1h-0.4c-0.7,0.2-1.1,0.8-1.1,1.5L269.6,263.7z"/>
	<path class="st5" d="M280.4,266.4c0.8-0.1,1.5-0.8,1.4-1.7c-0.1-0.7-0.7-1.3-1.4-1.4c-0.8,0.1-1.5,0.8-1.4,1.7
		C279.1,265.7,279.7,266.3,280.4,266.4z"/>
	<path class="st5" d="M319.9,265.3c0.8-0.1,1.5-0.8,1.4-1.7c-0.1-0.7-0.7-1.3-1.4-1.4c-0.8,0.1-1.5,0.8-1.4,1.7
		C318.6,264.7,319.2,265.2,319.9,265.3z"/>
	<path class="st5" d="M327.6,261.3l0.5,3.9c0.2,0.8,1.1,1.3,1.9,1.1c0.4-0.1,0.7-0.4,0.9-0.7l0.2-0.4c0.1-0.3,0.1-0.5,0-0.8
		l-0.5-3.9c-0.1-0.4-0.4-0.7-0.7-0.9c-0.3-0.2-0.7-0.2-1.1-0.1c-0.4,0.1-0.7,0.4-0.9,0.7l-0.2,0.4
		C327.6,260.8,327.6,261,327.6,261.3L327.6,261.3z"/>
	<path class="st5" d="M334.5,492.7c0,0.5,0,0.9,0,1.4l0.1-0.4c0,0.2-0.1,0.5-0.2,0.7l0.2-0.4c0,0.1-0.1,0.2-0.1,0.2l0.2-0.3
		l-0.1,0.1l0.3-0.2h-0.1l0.4-0.2h-0.1l0.4-0.1h0l0.4,0.1h-0.1l0.4,0.1h-0.1l0.3,0.2c-0.1,0-0.1-0.1-0.1-0.1l0.2,0.3
		c-0.1-0.1-0.2-0.3-0.2-0.4l0.2,0.4c-0.2-0.5-0.3-0.9-0.4-1.4l0.1,0.4c-0.1-0.6-0.1-1.2,0-1.8v0.4c0-0.2,0.1-0.5,0.2-0.7l-0.2,0.4
		c0-0.1,0.1-0.2,0.1-0.2l-0.2,0.3c0,0,0.1-0.1,0.1-0.1l-0.3,0.2h0.1l-0.4,0.1h0.1l-0.4,0.1h0.1l-0.4-0.1h0.1l-0.4-0.2h0.1l-0.3-0.2
		l0.1,0.1l-0.2-0.3c0.1,0.1,0.2,0.3,0.2,0.4l-0.2-0.4c0.2,0.5,0.3,0.9,0.4,1.4v-0.4c0,0.1,0,0.2,0,0.4c0,0.4,0.2,0.8,0.4,1.1
		c0.3,0.3,0.7,0.4,1.1,0.4c0.8,0,1.5-0.7,1.5-1.5c0-0.7-0.2-1.3-0.3-1.9c-0.2-0.5-0.4-1-0.8-1.5c-0.7-0.7-1.8-0.7-2.5,0
		c-0.4,0.4-0.6,0.9-0.7,1.4c-0.2,1.3-0.2,2.6,0.2,3.8c0.1,0.6,0.4,1.1,0.8,1.6c0.6,0.6,1.5,0.8,2.2,0.3c1.2-0.8,1.3-2.5,1.2-3.8
		c0-0.4-0.1-0.8-0.4-1.1c-0.6-0.6-1.5-0.6-2.1,0c-0.3,0.3-0.5,0.7-0.5,1.1L334.5,492.7z"/>
	<path class="st5" d="M304,496.5c0.1,0.5,0.1,1,0,1.4l0.1-0.4c0,0.2-0.1,0.5-0.2,0.7l0.2-0.4c0,0.1-0.1,0.2-0.1,0.2l0.2-0.3
		l-0.1,0.1l0.3-0.2c0,0,0,0-0.1,0l0.4-0.2h-0.1h0.4l0,0l0.4,0.1h-0.2l0.4,0.2l-0.1-0.1l0.3,0.2l-0.1-0.1l0.2,0.3
		c-0.1-0.1-0.2-0.3-0.2-0.4l0.1,0.4c-0.2-0.5-0.3-0.9-0.3-1.4l0.1,0.4c-0.1-0.6-0.1-1.2,0-1.8l-0.1,0.4c0-0.2,0.1-0.5,0.2-0.7
		l-0.1,0.4c0-0.1,0.1-0.2,0.1-0.2l-0.2,0.3l0.1-0.1l-0.3,0.2l0,0l-0.4,0.2h0.1h-0.4h0.1l-0.4-0.1h0.1l-0.4-0.2l0.1,0.1l-0.3-0.2
		l0.1,0.1l-0.2-0.3c0.1,0.1,0.2,0.3,0.2,0.4l-0.2-0.4C303.8,495.6,304,496.1,304,496.5l-0.1-0.4L304,496.5c-0.1,0.4,0.1,0.8,0.4,1.1
		c0.3,0.3,0.7,0.5,1.1,0.4c0.8,0,1.5-0.7,1.5-1.5c0-0.7-0.2-1.3-0.3-1.9c-0.2-0.5-0.4-1-0.8-1.5c-0.7-0.7-1.8-0.7-2.5,0
		c-0.4,0.4-0.6,0.9-0.7,1.4c-0.2,1.3-0.2,2.6,0.2,3.8c0.1,0.6,0.4,1.1,0.8,1.6c0.6,0.6,1.5,0.8,2.2,0.4c1.2-0.8,1.3-2.5,1.2-3.8
		c0-0.4-0.2-0.8-0.4-1.1c-0.3-0.3-0.7-0.5-1.1-0.4C304.7,495.1,304.1,495.7,304,496.5z"/>
	<path class="st6" d="M309,673.1c0.1-3.5,0.7-8.6-0.7-11.9c-4.3-3.1-11.3-6-16.5-5.2c-5.3,0.8-10,3.7-13.2,8c-1.6,2.2-3.8,6.3-2.2,9
		c1.7,3,6.8,1.9,9.6,1.9c9.4,0,13.9-0.7,23.3-0.6"/>
	<path class="st5" d="M310.6,673.1c0.3-3.2,0.2-6.4-0.1-9.5c-0.2-1.4-0.5-3-1.7-3.8c-1.3-0.9-2.8-1.8-4.2-2.5
		c-3-1.5-6.2-2.4-9.5-2.8c-3.2-0.2-6.4,0.5-9.3,1.9c-5.3,2.4-10.8,7.7-11.4,13.8c-0.4,2.8,1.3,5.5,4.1,6.2c2.5,0.7,5.1,0.2,7.6,0.2
		c7.8-0.1,15.5-0.7,23.3-0.6c0.8-0.1,1.5-0.8,1.4-1.7c-0.1-0.7-0.7-1.3-1.4-1.4c-5.1,0-10.1,0.3-15.2,0.5c-2.7,0.1-5.4,0.1-8,0.1
		c-1.9,0.1-3.7,0.2-5.6,0.1c-1.9-0.2-3.2-1.1-3.1-3.2c0.3-2.2,1.3-4.3,2.8-6c3-3.9,7.5-6.4,12.4-7c5.2-0.5,10.9,2,15,5l-0.7-0.9
		c1.4,3.6,0.8,7.7,0.7,11.4C307.4,675.1,310.5,675.1,310.6,673.1L310.6,673.1z"/>
	<path class="st5" d="M596.7,153.6c12-0.9,24-1.2,36-0.8c2,0.1,2-3,0-3c-12-0.4-24.1-0.1-36,0.8
		C594.7,150.7,594.7,153.7,596.7,153.6z"/>
	<path class="st5" d="M595.2,152.5c0.8,16.2,3.5,32.2,7.9,47.8c0.2,0.8,1.1,1.3,1.9,1.1c0.8-0.2,1.3-1.1,1.1-1.9
		c-4.3-15.3-7-31.1-7.8-47C598.1,150.5,595,150.5,595.2,152.5L595.2,152.5z"/>
	<path class="st5" d="M631.3,150.9c-2.5,16.4-4.5,32.8-6.2,49.3c-0.2,2,2.8,1.9,3,0c1.7-16.2,3.7-32.4,6.1-48.5
		C634.5,149.8,631.6,149,631.3,150.9L631.3,150.9z"/>
	<path class="st5" d="M612.5,151c-0.1-8.9,0.1-17.9,0-26.8l-1.9,1.5c5.2,1.5,10.5,2.7,15.9,3.4c0.8,0.2,1.6-0.3,1.9-1.1
		c0.2-0.8-0.3-1.7-1.1-1.9c0,0,0,0,0,0c-5.4-0.7-10.7-1.9-15.8-3.4c-0.8-0.2-1.7,0.3-1.9,1.1c0,0.1,0,0.2-0.1,0.4
		c0.1,8.9-0.1,17.9,0,26.8c0.1,0.8,0.8,1.5,1.7,1.4C611.8,152.3,612.3,151.7,612.5,151L612.5,151z"/>
	<path class="st5" d="M598,172.4c5.4,0.9,10.8,1.4,16.2,1.5c5.4,0.2,10.8-0.3,16.1-1.5c1.9-0.5,1.1-3.4-0.8-2.9
		c-5,1.1-10.2,1.6-15.3,1.3c-5.2-0.1-10.3-0.5-15.4-1.3C596.9,169.1,596.1,172,598,172.4z"/>
	<path class="st5" d="M601.6,189.8c9,2.9,18.7,2.3,27.2-1.8c1.8-0.9,0.2-3.5-1.5-2.6c-7.8,3.7-16.7,4.2-24.8,1.5
		C600.6,186.2,599.8,189.1,601.6,189.8L601.6,189.8z"/>
	<path class="st5" d="M604.2,202.4c3.7,1.4,7.7,2.1,11.7,2.1c4-0.2,7.9-1.2,11.4-3c1.8-0.9,0.2-3.5-1.5-2.6
		c-3.2,1.6-6.7,2.5-10.2,2.6c-3.6-0.1-7.2-0.7-10.5-2C603.2,198.8,602.3,201.7,604.2,202.4L604.2,202.4z"/>
	<circle class="st4" cx="702.6" cy="281.1" r="4.9"/>
	<path class="st4" d="M702.6,286.4c-3,0-5.4-2.4-5.4-5.4s2.4-5.4,5.4-5.4s5.4,2.4,5.4,5.4c0,0,0,0,0,0
		C708,284,705.6,286.4,702.6,286.4C702.6,286.4,702.6,286.4,702.6,286.4z M702.6,276.7c-2.4,0-4.4,1.9-4.4,4.4
		c0,2.4,1.9,4.4,4.4,4.4c2.4,0,4.4-1.9,4.4-4.4C706.9,278.7,705,276.7,702.6,276.7L702.6,276.7z"/>
	<circle class="st4" cx="229.1" cy="386.3" r="4.9"/>
	<path class="st4" d="M229.1,391.7c-3,0-5.4-2.4-5.4-5.4s2.4-5.4,5.4-5.4c3,0,5.4,2.4,5.4,5.4l0,0
		C234.5,389.3,232.1,391.7,229.1,391.7z M229.1,382c-2.4,0-4.4,1.9-4.4,4.4c0,2.4,1.9,4.4,4.4,4.4c2.4,0,4.4-1.9,4.4-4.4
		c0,0,0,0,0,0C233.5,383.9,231.5,382,229.1,382C229.1,382,229.1,382,229.1,382L229.1,382z"/>
	<circle class="st4" cx="643" cy="458.6" r="4.9"/>
	<path class="st4" d="M643,463.9c-3,0-5.4-2.4-5.4-5.4s2.4-5.4,5.4-5.4s5.4,2.4,5.4,5.4l0,0C648.3,461.5,645.9,463.9,643,463.9z
		 M643,454.2c-2.4,0-4.4,1.9-4.4,4.4c0,2.4,1.9,4.4,4.4,4.4c2.4,0,4.4-1.9,4.4-4.4c0,0,0,0,0,0C647.3,456.2,645.4,454.2,643,454.2
		L643,454.2z"/>
	<circle class="st4" cx="131.1" cy="186.8" r="4.9"/>
	<path class="st4" d="M131.1,192.2c-3,0-5.4-2.4-5.4-5.4c0-3,2.4-5.4,5.4-5.4c3,0,5.4,2.4,5.4,5.4c0,0,0,0,0,0
		C136.5,189.8,134.1,192.2,131.1,192.2z M131.1,182.5c-2.4,0-4.4,1.9-4.4,4.3c0,2.4,1.9,4.4,4.3,4.4c2.4,0,4.4-1.9,4.4-4.3
		c0,0,0,0,0,0C135.5,184.4,133.5,182.5,131.1,182.5z"/>
</g>
</svg>
