<?xml version="1.0" encoding="utf-8"?>
<!-- Generator: Adobe Illustrator 25.0.0, SVG Export Plug-In . SVG Version: 6.00 Build 0)  -->
<svg version="1.1" id="Layer_1" xmlns="http://www.w3.org/2000/svg" xmlns:xlink="http://www.w3.org/1999/xlink" x="0px" y="0px"
	 viewBox="0 0 1080 700" style="enable-background:new 0 0 1080 700;" xml:space="preserve">
<style type="text/css">
	.st0{fill:#0D0D2D;}
	.st1{fill:#FF5850;}
</style>
<g id="Layer_2_1_">
	<g>
		<path class="st0" d="M677.2,369.6c-0.8-0.8-1.2-1.8-1.2-2.9c0-1.2,0.4-2.1,1.2-2.9s1.8-1.2,3-1.2s2.1,0.4,2.9,1.2
			c0.8,0.8,1.2,1.8,1.2,2.9c0,1.2-0.4,2.1-1.2,2.9s-1.8,1.2-2.9,1.2C678.9,370.8,677.9,370.4,677.2,369.6z"/>
		<path class="st0" d="M690.4,367.9c-2-1.9-3-4.6-3-7.9c0-2.2,0.5-4.1,1.5-5.8s2.3-3,4.1-3.9s3.8-1.4,6-1.4c1.2,0,2.4,0.2,3.6,0.5
			c1.2,0.3,2.3,0.8,3.2,1.3s1.3,1.4,1.3,2.5c0,0.9-0.2,1.6-0.6,2.2c-0.4,0.6-0.9,0.8-1.6,0.8c-0.4,0-0.8-0.1-1.2-0.2
			s-0.8-0.3-1.3-0.6c-0.6-0.3-1.1-0.4-1.5-0.6c-0.4-0.1-0.8-0.2-1.3-0.2c-2.8,0-4.2,1.7-4.2,5.2c0,1.7,0.4,3,1.1,3.9
			c0.7,0.9,1.8,1.3,3.1,1.3c0.5,0,0.9-0.1,1.3-0.2c0.4-0.1,0.9-0.3,1.4-0.6c0.6-0.3,1-0.4,1.4-0.6c0.4-0.1,0.7-0.2,1.2-0.2
			c0.7,0,1.2,0.3,1.6,0.8c0.4,0.6,0.6,1.3,0.6,2.2c0,0.5-0.1,1-0.3,1.5c-0.2,0.4-0.5,0.8-0.9,1c-2,1.2-4.4,1.8-7.2,1.8
			C695.1,370.8,692.4,369.9,690.4,367.9z"/>
		<path class="st0" d="M714.8,369.5c-1.8-0.9-3.1-2.2-4.1-3.8c-1-1.6-1.4-3.6-1.4-5.8c0-2.2,0.5-4.1,1.4-5.8c1-1.6,2.3-2.9,4-3.8
			s3.8-1.3,6.1-1.3s4.4,0.4,6.1,1.3c1.7,0.9,3.1,2.1,4,3.8c1,1.6,1.4,3.6,1.4,5.8c0,2.2-0.5,4.2-1.4,5.8c-1,1.7-2.3,2.9-4,3.8
			s-3.8,1.3-6.1,1.3S716.5,370.4,714.8,369.5z M724.9,359.9c0-3.5-1.4-5.3-4.1-5.3s-4.1,1.8-4.1,5.3s1.4,5.3,4.1,5.3
			S724.9,363.4,724.9,359.9z"/>
	</g>
</g>
<g id="Artwork">
	<path class="st0" d="M230.4,243.2c0,0-31.9-12.4-6.8-38.8c0,0,28.2-12,36.9,24.7l-11.5,2.7l-13.4,8L230.4,243.2z"/>
	
		<ellipse transform="matrix(3.891273e-02 -0.9992 0.9992 3.891273e-02 193.322 801.3501)" class="st0" cx="513.2" cy="300.2" rx="29.3" ry="10.6"/>
	<path class="st1" d="M226.6,400c0,0-55.8,19-85.5,84.1s-25.7,86.5-25.7,86.5s-2.3,17,0.3,22.4s143.2,20.6,246.8,8.6l-4.7-45.3
		l-6.7-2.7l-4.3-61.8c0,0,24.4,31.7,69.6,23.3c0,0,41.8,2.1,52.3-43.7s7.6-51.7,7.6-55.9s1.5-45.4,0.6-58.6l-49.8,4.2
		c0,0,1.7,37.6,2,41.9s-0.3,33.7-0.3,33.7s-4,23.7-21.6,25s-23-4.3-23-4.3s-18.1-13.4-28.8-27.8c0,0-28.4-33.5-53.4-34.6
		c0,0-10,20.3-42.5,18.8C259.6,413.9,228.1,407.7,226.6,400z"/>
	<polygon class="st0" points="279.5,347.3 289.8,393.3 291.7,351.7 	"/>
	<path class="st0" d="M247.4,307.4c-4.1-7.7-15.4-8.8-21.5-3.1c-3.2,3.2-5,7.5-5,12c0,4.7,1.9,9.2,5.3,12.6c3.9,3.8,9.1,6,14.5,6.3
		l-1.4-1.1c1.5,8.6,0.6,17.5-0.1,26.1c-0.7,8.1-1.5,16.3-2.2,24.4c-0.4,4.4-0.8,8.9-1.2,13.3c-0.1,1.9,2.9,1.9,3,0
		c0.6-8.1,1.4-16.3,2.2-24.4c0.8-8.3,1.7-16.7,2-25.1c0.3-5.1,0-10.2-0.8-15.2c-0.2-0.6-0.8-1.1-1.5-1.1c-7.8-0.5-15.7-5.9-16.7-14
		c-0.9-7.3,3.9-14.8,11.7-14.5c3.8,0,7.2,2,9.1,5.2C245.6,310.5,248.2,309,247.4,307.4L247.4,307.4z"/>
	<path class="st0" d="M248,310.2c13.3-6.9,22.3-20.3,26.2-34.5c1.1-4,1.8-8.1,2.1-12.3l-1.9,1.5c10.1,4,20.4,7.5,30.8,10.5
		c0.8,0.2,1.6-0.3,1.8-1.1c0.2-0.8-0.3-1.5-1-1.7c-10.4-3-20.7-6.5-30.8-10.5c-1-0.4-1.9,0.6-1.9,1.4c-0.9,13.9-7.1,27.9-17.3,37.5
		c-2.9,2.7-6.1,4.9-9.5,6.7C244.8,308.5,246.3,311.1,248,310.2L248,310.2z"/>
	<path class="st0" d="M233.5,301.2c-7.4-9.6-13.5-21.5-13-33.9c0.3-6.3,2.4-12.3,6.2-17.4c3.6-4.6,8-8.5,13.1-11.5
		c9.4-5.9,21.1-9.8,32.2-7.9c10.4,1.8,19.9,7.1,27,15c3.7,4.1,6.3,9.1,7.7,14.5c0.5,2.2,0.7,4.5,0.6,6.8c-0.1,2-0.4,4.7-2.1,6.1
		c-1.5,1.2,0.6,3.3,2.1,2.1c1.8-1.4,2.4-3.8,2.7-5.9c0.3-2.4,0.3-4.8,0-7.2c-0.7-5.1-2.6-9.9-5.5-14.1c-6.2-9.3-16.2-15.7-26.8-19
		c-11.8-3.6-24.5-0.9-35.3,4.7c-11.2,5.9-21.6,15.2-24.2,28c-3,14.9,3.8,29.6,12.7,41.1C232,304.1,234.7,302.6,233.5,301.2
		L233.5,301.2z"/>
	<path class="st0" d="M314.8,314.6c1.2,9.7,1.8,20.3-4.2,28.7c-2.5,3.6-6.4,6.2-10.7,7.1c-4.8,0.8-9.7,0.1-14-2.1
		c-5-2.4-9.3-5.9-13.2-9.7c-1.4-1.3-3.5,0.8-2.1,2.1c7.5,7.2,17.1,14.1,28.1,12.9c10.2-1.1,17.1-9.6,19.1-19.3
		c1.4-6.5,0.9-13.1,0.1-19.6C317.6,312.8,314.6,312.7,314.8,314.6L314.8,314.6z"/>
	<path class="st0" d="M305.1,274.6c1.8,4.9,3.3,9.9,4.7,14.9c0.3,0.8,1.2,1.2,1.9,0.9c0.7-0.3,1.1-1,1-1.7c-1.3-5-2.9-10-4.7-14.9
		c-0.2-0.8-1.1-1.3-1.9-1C305.3,273,304.9,273.8,305.1,274.6L305.1,274.6z"/>
	<path class="st0" d="M291.7,392.9c0.8-12.8,1.3-25.6,1.6-38.5c0-1.9-3-1.9-3,0c-0.3,12.8-0.9,25.7-1.6,38.5
		C288.6,394.9,291.6,394.8,291.7,392.9z"/>
	<path class="st0" d="M290.2,394.4c23.5,0.7,45.4,14.5,60.5,31.7c12.6,14.3,24.2,32.5,44.4,36.2c10.2,1.9,22.4,0.1,28.8-8.8
		c5.1-7.1,5.9-16.7,6.1-25.2c0.2-8.7-0.8-17.4-0.8-26.1c-0.1-14.3-0.7-28.7-1.7-43c-0.5-7.2-1.1-14.5-1.8-21.7
		c-0.1-2.7-0.7-5.4-1.5-7.9c-1-2.3-2.2-4.5-3.6-6.6c-2.5-3.9-6.3-8.5-5.9-13.5c0.2-3.2,5.1-1,6.5,0.1c2.3,1.8,3.8,4.2,5.2,6.7
		c1.4,2.6,3.2,4.9,5.3,7c1.4,1.3,3.6-0.8,2.1-2.1c-4.4-4-6-10.2-10.8-13.9c-2.1-1.6-5-2.8-7.7-2.2c-3.1,0.6-3.8,3.5-3.5,6.3
		c0.7,5.1,3.7,9.2,6.4,13.4c1.4,2,2.6,4.2,3.5,6.5c1,2.9,1.1,6.1,1.4,9.1c1.4,14.4,2.3,28.9,2.8,43.4c0.2,6.7,0.3,13.5,0.4,20.2
		c0.1,4.1,0.4,8.2,0.6,12.3c0.4,9.1,0.8,18.7-1.8,27.6c-1,3.8-2.9,7.4-5.7,10.2c-4.1,3.9-10,5.5-15.4,5.8
		c-10.3,0.4-19.9-3.6-27.6-10.1c-7.6-6.3-13.6-14.2-20-21.8c-6.9-8.5-15.1-16-24.2-22.2c-10-6.6-21.4-11.7-33.2-13.6
		c-2.9-0.5-5.8-0.8-8.8-0.9C288.2,391.3,288.2,394.3,290.2,394.4L290.2,394.4z"/>
	<path class="st0" d="M236,399.1c14,7.2,31.7,8.6,46.3,2.3c3.9-1.5,7.1-4.2,9.3-7.7c0.4-0.7,0.1-1.6-0.6-2s-1.6-0.1-2,0.5
		c-3.4,6-11.2,8.1-17.5,9.3c-7.4,1.4-14.9,1.1-22.2-0.6c-4.1-1-8-2.4-11.8-4.4C235.8,395.6,234.3,398.2,236,399.1L236,399.1z"/>
	<path class="st0" d="M237.5,396.5c-16.7,2.8-32.3,10.1-45.9,20.1c-14.2,10.5-26,23.7-36,38.2c-10.3,15.1-18.6,31.7-25.9,48.5
		c-7.6,17.7-13.9,36.1-16.5,55.2c-1.4,9.4-1.7,18.9-0.8,28.4c0.4,4.1,1.9,7.8,5.8,9.7c1.9,0.9,3.9,1.5,6,1.9
		c2.4,0.6,4.8,1.1,7.3,1.5c19.4,3.6,39.4,3.7,59.1,4.5c14.9,0.6,29.8,1.2,44.8,1.7c11.1,0.3,22.2,0.5,33.2,0.5s22.5-0.3,33.7-0.7
		c15.3-0.5,30.5-1.3,45.8-2l14.4-0.7c1.9-0.1,1.9-3.1,0-3c-16.7,0.8-33.4,1.7-50.1,2.3c-11.7,0.5-23.4,0.9-35.1,1
		c-10.5,0.2-21,0.1-31.5-0.2c-13.1-0.3-26.2-0.8-39.3-1.3c-8.6-0.3-17.2-0.7-25.9-1.1c-9.9-0.4-19.8-0.7-29.6-1.5
		c-9.6-0.8-19.5-2-28.8-4.7c-1.8-0.4-3.5-1.3-4.8-2.6c-1.4-1.5-1.7-3.7-1.9-5.6c-0.4-4.6-0.6-9.2-0.4-13.8
		c0.6-19,5.5-37.6,12.2-55.3c6.5-17.2,14.4-33.8,23.7-49.6c9-15.2,19.7-29.5,33-41.2c12.4-11,26.8-19.9,42.7-24.7
		c3.9-1.2,7.8-2.1,11.8-2.8C240.2,399.1,239.4,396.2,237.5,396.5L237.5,396.5z"/>
	<path class="st0" d="M177,552.8c13.5,0.7,27,0.9,40.5,0.8c14.8,0,29.6-0.3,44.5-0.5s29.8-0.4,44.7-0.3c13.7,0.1,27.5,0.4,41.1,1.4
		c1.5,0.1,3.1,0.2,4.6,0.4c1.4,0,2.7,0.5,3.7,1.5c1.2,1.3,1.5,3.2,1.8,4.8c0.3,2.1,0.4,4.3,0.6,6.4l2.3,26.8l0.6,6.7
		c0.2,1.9,3.2,1.9,3,0l-2.4-27.3c-0.4-4.4-0.6-8.8-1.2-13.2c-0.5-3.5-1.9-6.9-5.4-8.1c-1.5-0.4-3-0.7-4.5-0.7
		c-1.6-0.1-3.1-0.2-4.7-0.3c-3.3-0.2-6.6-0.4-10-0.6c-7-0.3-14.1-0.5-21.2-0.6c-15.1-0.2-30.2-0.1-45.3,0.1
		c-15.3,0.2-30.5,0.5-45.8,0.6c-14.1,0.1-28.2,0-42.3-0.6l-4.7-0.2C175,549.7,175,552.7,177,552.8L177,552.8z"/>
	<path class="st0" d="M225.2,402.1c4.2,3.9,9.8,6.3,15.1,8.3c5.7,2.1,11.6,3.5,17.6,4.3c11.2,1.4,23.2,0,32.9-6.2
		c4.9-3,8.9-7.2,11.7-12.2c0.9-1.7-1.6-3.2-2.6-1.5c-4.8,8.6-13.5,14.1-22.9,16.2c-11,2.5-22.7,0.9-33.3-2.6
		c-5.7-1.9-12-4.3-16.4-8.4C225.9,398.7,223.8,400.8,225.2,402.1L225.2,402.1z"/>
	<path class="st0" d="M474.5,273.7c13.3-0.9,26.6-1.7,39.9-2.4c1.9-0.1,1.9-3.1,0-3c-13.3,0.7-26.6,1.5-39.9,2.4
		C472.5,270.8,472.5,273.8,474.5,273.7z"/>
	<path class="st0" d="M302.1,292.3c31.9-4.7,63.9-8.3,95.9-11.5c9-0.9,18-1.7,27-2.5c1.9-0.2,1.9-3.2,0-3
		c-32.2,2.9-64.4,6.1-96.5,10.3c-9.1,1.2-18.2,2.5-27.2,3.8C299.4,289.7,300.2,292.6,302.1,292.3L302.1,292.3z"/>
	<path class="st0" d="M431.9,322.8c20.2,1.9,40.3,4.2,60.3,6.9c5.8,0.8,11.5,1.6,17.3,2.4c1.9,0.3,2.7-2.6,0.8-2.9
		c-20.3-2.9-40.6-5.5-61-7.6c-5.8-0.6-11.6-1.2-17.4-1.8C430,319.6,430.1,322.6,431.9,322.8L431.9,322.8z"/>
	<path class="st0" d="M301.2,314.4c30.1,1.1,60.1,2.7,90.1,4.9c8.4,0.6,16.9,1.3,25.3,2c1.9,0.2,1.9-2.8,0-3
		c-29.9-2.6-59.9-4.5-89.8-5.9c-8.5-0.4-17-0.7-25.6-1.1C299.3,311.3,299.3,314.3,301.2,314.4L301.2,314.4z"/>
	<path class="st0" d="M518.9,269.7c-5.6-4.8-11.7,4-13.8,8.5c-2,4.5-3.1,9.4-3.5,14.3c-0.5,5.2-0.7,10.4-0.4,15.6
		c0.3,5.5,1.3,10.9,2.9,16.1c1.3,4,3.7,9.3,8.9,7.5c2.2-0.9,4-2.6,4.9-4.8c1.1-2.3,2.1-4.7,2.8-7.2c1.5-5.2,2.6-10.5,3.1-15.8
		c0.7-5.9,0.7-11.9,0.1-17.8c-0.4-3-0.9-5.9-1.7-8.9C521.6,274.7,520.9,271.7,518.9,269.7c-1.3-1.3-3.5,0.8-2.1,2.2
		c1.5,1.5,2,4,2.5,6c0.6,2.2,1.1,4.4,1.4,6.7c0.7,4.6,0.9,9.3,0.6,13.9c-0.2,4.7-0.9,9.3-1.8,13.9c-0.8,4.5-2.2,9-4.2,13.1
		c-0.8,1.7-2.2,3.9-4.4,3.7c-1.8-0.1-2.7-2.3-3.2-3.8c-1.7-4.5-2.7-9.2-3.2-13.9c-0.4-4.7-0.5-9.3-0.2-14c0.1-4.4,0.7-8.8,1.8-13.1
		c0.9-3.4,2.4-6.5,4.5-9.3c1.2-1.5,4.1-5.1,6.2-3.3C518.2,273.1,520.4,271,518.9,269.7z"/>
	<path class="st0" d="M360.2,559.9c7.1-5.1,14.8-9.4,22.9-12.8c1.6-0.8,3.3-1.4,5.1-1.7c0.6,0,1.5-0.1,1.9,0.5c0.5,0.7,0,2-0.2,2.8
		c-1.2,4.4-2.9,8.7-5.1,12.8c-0.4,0.7-0.2,1.6,0.6,2.1c0.2,0.1,0.5,0.2,0.7,0.2c8.9-0.1,17.8,0.6,26.6,2c3.7,0.6,7.7,1.2,10.5,3.8
		c2.5,2.2,3.8,5.4,4.7,8.5c0.5,1.6,0.8,3.3,1.2,4.9c0.5,1.8,0.5,3.6,0.2,5.4c-1,3.6-6.2,4.5-9.4,5.3c-4.2,0.9-8.5,1.5-12.8,1.8
		c-4.4,0.4-8.8,0.8-13.3,1.1c-10,0.7-20,1.1-30.1,1.3c-1.9,0-1.9,3,0,3c9.7-0.2,19.4-0.6,29.1-1.3c4.8-0.3,9.5-0.7,14.3-1.2
		c4.7-0.4,9.3-1,13.8-2c3.7-0.8,8.4-2,10.5-5.5s0.9-7.6,0.1-11.2c-0.7-3.6-2-7-4.1-10.1c-2.4-3.1-5.8-5.3-9.6-6.1
		c-5-1.1-10.1-1.8-15.2-2.2c-5.5-0.5-11-0.7-16.5-0.7l1.3,2.3c2-3.6,3.6-7.4,4.8-11.3c0.9-3,2.3-7.7-1.8-9c-3.2-1-6.7,1-9.5,2.2
		c-3.6,1.6-7.2,3.3-10.7,5.3c-4,2.2-7.9,4.7-11.6,7.3C357.1,558.4,358.6,561,360.2,559.9L360.2,559.9z"/>
	<path class="st0" d="M352.7,552c-3-15.9-4.7-32.1-4.9-48.4c0-4.5,0-9,0.3-13.4l-2.8,0.8c10.4,14,26.9,21.3,43.6,24.3
		c8.9,1.6,18,2,27.1,1.5c9.5-0.6,19.2-2.6,27.6-7.3c15.7-8.8,23.2-25.9,27.1-42.7c2.1-9.7,3.8-19.5,4.8-29.4
		c1.4-11.3,2.3-22.7,2.9-34.1c1-22.6,0.3-45.3-2.1-67.8c-0.3-2.8-0.6-5.5-1-8.3c-0.2-1.9-3.2-1.9-3,0c2.7,21.9,3.9,44,3.4,66.1
		c-0.4,21.5-2.5,43-6.2,64.2c-2.9,16.2-7.9,33.7-20.9,44.8c-7,6-16,9.2-25,10.6c-8.9,1.3-18,1.5-26.9,0.5
		c-16.3-1.7-33.2-7.1-44.9-19.1c-1.4-1.5-2.8-3.1-4-4.7c-0.4-0.7-1.4-0.9-2.1-0.5c-0.4,0.3-0.7,0.7-0.7,1.2
		c-1.1,16.6,0.3,33.4,2.6,49.9c0.6,4.2,1.3,8.5,2.1,12.7C350.2,554.7,353.1,553.9,352.7,552L352.7,552z"/>
	<path class="st0" d="M422.8,281.5c-0.3,4.1,1,8.8,5.7,9.3s7.8-3.3,9.2-7.3c0.8-2.4,1.2-4.9,1.3-7.4c0.3-2.4,0.1-4.8-0.6-7.1
		c-0.7-2.1-2.7-3.5-4.8-3.4c-2.2-0.3-4.5,0.5-6,2.2C424.3,271.6,423.1,276.6,422.8,281.5c-0.2,1.9,2.8,1.9,3,0
		c0.2-3.3,1-6.4,2.5-9.4c0.7-1.3,1.7-3,3.2-3.4c1.1-0.3,3.2-0.5,3.9,0.6c0.9,1.3,0.8,3.5,0.8,5c0,2-0.2,4-0.6,6
		c-0.6,2.9-1.9,6.5-5.2,7.4c-1.4,0.5-3-0.1-3.8-1.3c-0.9-1.4-0.8-3.3-0.7-4.9C425.9,279.6,422.9,279.6,422.8,281.5z"/>
	<path class="st0" d="M438.8,271c1.1-1.2,2.4-2.2,3.8-2.8c1.1-0.5,3.2-1.4,4.4-0.6s1.5,3.3,1.7,4.7c0.2,2,0,3.9-0.4,5.8
		c-0.5,2.8-1.5,6.7-4.4,8.1c-2,1-5.1,0.3-6.1-1.8c-0.8-1.7-3.4-0.2-2.6,1.5c1.2,2.6,4.3,3.8,7.1,3.7c3.3-0.2,5.8-2.4,7.2-5.3
		c1.6-3.4,2.3-7.1,2.2-10.9c-0.1-3.4-1.1-8.5-5.2-9c-3.5-0.4-7.8,1.9-10,4.5C435.4,270.3,437.5,272.5,438.8,271L438.8,271z"/>
	<path class="st0" d="M450.9,271.1c1.7-1.9,3.9-3.3,6.3-4c0.5-0.1,1.1-0.2,1.5,0.2c0.3,0.6,0.5,1.3,0.6,2.1c0.4,1.8,0.6,3.7,0.6,5.6
		c0,3.1-0.8,6.4-3,8.7c-2,2.1-5.3,3-8,1.5c-1.7-1-3.2,1.6-1.5,2.6c2.8,1.5,6.2,1.5,9,0c2.8-1.6,4.8-4.2,5.7-7.3
		c0.9-3.5,1-7.2,0.2-10.7c-0.3-1.5-0.5-3.4-1.6-4.6c-1.2-1.1-2.9-1.5-4.4-1c-3,0.8-5.7,2.5-7.7,4.8
		C447.5,270.5,449.7,272.6,450.9,271.1L450.9,271.1z"/>
	<path class="st0" d="M438.3,330.2c3.2-0.5,6.4,1.2,8.7,3.3c2.6,2.4,4.3,5.5,6.1,8.5c0.4,0.7,1.4,0.9,2.1,0.5c0.7-0.4,0.9-1.3,0.5-2
		c-2-3.5-4.1-7.1-7.2-9.7c-3-2.7-7-4-11-3.5c-0.8,0.2-1.2,1.1-1,1.8C436.7,330,437.5,330.4,438.3,330.2L438.3,330.2z"/>
	<path class="st0" d="M302.3,312c-1.8-3.1-2.8-6.6-2.9-10.2c0-1.8,0.1-3.6,0.4-5.4c0.3-1.6,0.9-3.3,2.5-4.1s0.2-3.4-1.5-2.6
		c-3.9,1.9-4.4,7.5-4.4,11.3c0,4.4,1.1,8.7,3.3,12.5c0.4,0.7,1.3,1,2.1,0.5S302.7,312.7,302.3,312L302.3,312L302.3,312z"/>
	<path class="st0" d="M316.5,288.8c-1.9,4.1-2.1,9-2.2,13.4c0,2.3,0.1,4.7,0.4,7c0.1,2,0.8,3.9,1.9,5.6c1.2,1.5,3.3-0.6,2.1-2.1
		c-1.1-1.3-1.1-3.5-1.2-5.1c-0.2-1.9-0.2-3.9-0.2-5.9c0.1-3.7,0.1-8,1.8-11.5C319.9,288.5,317.3,287,316.5,288.8L316.5,288.8z"/>
	<path class="st0" d="M345,285.5c-1.7,5.1-2.6,10.5-2.8,15.9c-0.1,2.7,0.1,5.3,0.4,8c0.2,2,0.1,5.4,2.4,6.1c1.9,0.5,2.6-2.3,0.8-2.9
		c0.3,0.4,0.4,0.4,0.3,0s-0.1-0.6-0.2-0.9c-0.1-0.6-0.2-1.2-0.3-1.8c-0.1-1.1-0.3-2.2-0.3-3.2c-0.2-2.3-0.2-4.6,0-6.9
		c0.3-4.6,1.1-9.2,2.6-13.5C348.5,284.5,345.6,283.7,345,285.5L345,285.5z"/>
	<path class="st0" d="M373,282c-2.3,5.6-2.5,11.7-2.5,17.7c0,5.5,0.1,11.2,3,16.1c0.4,0.7,1.3,1,2.1,0.5s1-1.3,0.5-2.1
		c-2.6-4.5-2.6-9.9-2.6-15c0-5.6,0.3-11.2,2.4-16.4C376.7,281,373.8,280.2,373,282L373,282z"/>
	<path class="st0" d="M400.1,279.3c-1.8,2.8-2.3,6-2.8,9.2c-0.5,3.4-0.8,6.9-1,10.3c-0.1,3.3,0.2,6.7,1,9.9c1,3.4,2.6,6.6,4.6,9.5
		c1,1.6,3.6,0.1,2.6-1.5c-3.9-5.1-5.7-11.5-5.2-17.9c0.1-3.1,0.5-6.2,0.9-9.3s0.8-6.1,2.5-8.7C403.8,279.1,401.2,277.6,400.1,279.3
		L400.1,279.3z"/>
	<path class="st0" d="M273.2,307.2c5.3,0.5,11.5-1,14.1-6.1c0.9-1.7-1.7-3.2-2.6-1.5c-2.2,4.2-7.2,5-11.5,4.6
		c-0.8,0-1.5,0.7-1.5,1.5S272.4,307.2,273.2,307.2z"/>
	<path class="st0" d="M273.3,295.9c1.5-1.2,3-2.3,4.7-3.3c1.5-0.9,3.2-1.5,5-1.8c0.8,0,1.5-0.7,1.5-1.5s-0.7-1.5-1.5-1.5
		c-4.6,0.4-8.3,3.1-11.8,5.9c-0.6,0.6-0.6,1.5,0,2.1C271.7,296.4,272.7,296.4,273.3,295.9L273.3,295.9z"/>
	<path class="st0" d="M291.9,286.1c4.5-1.7,9.3-2.5,14.1-2.3c1.9,0,1.9-3,0-3c-5.1-0.1-10.1,0.7-14.8,2.4c-0.8,0.2-1.3,1.1-1,1.9
		C290.4,285.9,291.2,286.3,291.9,286.1L291.9,286.1z"/>
	<path class="st0" d="M287.7,330.9c2.4,3.6,6.9,5.2,11,3.8c0.8-0.2,1.3-1.1,1-1.9c-0.2-0.8-1-1.3-1.8-1c-0.4,0.1-0.8,0.2-1.2,0.3
		c-0.1,0-0.3,0,0,0h-0.3c-0.2,0-0.4,0-0.6,0h-0.6h-0.3c-0.2,0,0.4,0.1,0,0s-0.8-0.2-1.2-0.3l-0.5-0.2c0.2,0.1,0.1,0-0.1,0l-0.3-0.1
		c-0.3-0.2-0.7-0.4-1-0.6c-0.2-0.1,0.2,0.2,0,0c-0.1,0-0.1-0.1-0.2-0.2c-0.2-0.1-0.3-0.3-0.5-0.4s-0.3-0.3-0.4-0.5
		c0.1,0.1,0.1,0.1,0,0l-0.2-0.3c-0.4-0.7-1.4-0.9-2.1-0.5s-0.9,1.3-0.5,2L287.7,330.9z"/>
	<path class="st0" d="M198.2,501c-0.4,13.8-1.3,27.5-1.5,41.3c0,3-0.1,6.1,0.1,9.2c0.1,1.9,3.1,1.9,3,0c-0.4-6.2-0.1-12.4,0.1-18.6
		c0.2-7.5,0.6-15.1,0.9-22.6c0.1-3,0.3-6.1,0.4-9.1C201.2,499.1,198.2,499.1,198.2,501L198.2,501z"/>
	<path class="st0" d="M230.6,241.5c-6.5-0.6-10.8-6.4-12.9-12.1c-2.1-6-2.9-12.5,0.9-18c3.2-4.7,8.5-7.5,14.2-7.7
		c6.2-0.1,12.1,2.3,16.5,6.6c5.1,4.9,8,11.6,9,18.5c0.3,1.9,3.2,1.1,2.9-0.8c-1-7-4-13.6-8.8-18.9c-4.8-5.2-11.5-8.2-18.6-8.4
		c-6.6-0.1-12.8,2.9-16.9,8c-1.9,2.4-3.2,5.3-3.8,8.4c-0.5,3.9,0,7.9,1.3,11.7c2.4,7.6,7.7,14.9,16.2,15.7
		C232.5,244.7,232.5,241.7,230.6,241.5L230.6,241.5z"/>
	<path class="st0" d="M222.1,284.5c-5.4,0.4-10.5,3.9-13.7,8c-4,5.1-4.7,11.9-5.7,18.1c-1,6-2.5,11.9-6.9,16.3
		c-3.6,3.6-8,6-11.9,9.1c-4.2,3.3-7.4,7.4-8.1,12.8c-0.3,3.4-0.3,6.8,0,10.2c0.2,3.5,0,6.9-0.9,10.3c-0.9,3.2-1.9,6.3-3,9.4
		c-0.6,1.5-1.1,3.1-1.6,4.7s-0.7,3.1,0.6,4.3c1.1,0.8,2.4,1.3,3.7,1.6c1.8,0.5,3.5,1,5.3,1.4c3.4,0.7,6.8,1.2,10.3,1.5
		c15.5,1.4,31-1.2,46.3-3.8c1.9-0.3,1.1-3.2-0.8-2.9c-12.9,2.2-26,4.3-39.1,4c-6.5-0.1-13.1-1-19.4-2.7c-0.7-0.2-1.5-0.4-2.2-0.6
		c-0.3-0.1-1.7-0.4-2-0.7s0.2-1.3,0.4-1.8c0.3-0.9,0.6-1.7,0.9-2.5c1.1-3,2.2-5.9,3.1-8.9c1-3.1,1.5-6.3,1.6-9.6
		c0.1-3.2-0.4-6.4-0.4-9.6c-0.2-2.9,0.4-5.8,1.7-8.5c1.1-1.9,2.5-3.6,4.2-5.1c3.6-3.2,7.8-5.5,11.5-8.6c4.1-3.4,7-8,8.4-13.1
		c1.9-6.7,1.9-14,4.8-20.4c1.3-2.6,3.1-4.9,5.5-6.6c2.2-1.8,4.8-2.9,7.6-3.3C224,287.3,224,284.3,222.1,284.5L222.1,284.5z"/>
	<path class="st0" d="M121.9,595.2H14c-0.8,0-1.5,0.7-1.5,1.5s0.7,1.5,1.5,1.5h107.9c0.8,0,1.5-0.7,1.5-1.5S122.7,595.2,121.9,595.2
		z"/>
	<path class="st0" d="M417.4,597.1h113.3c0.8,0,1.5-0.7,1.5-1.5s-0.7-1.5-1.5-1.5H417.4c-0.8,0-1.5,0.7-1.5,1.5
		S416.6,597.1,417.4,597.1z"/>
	<path class="st0" d="M462.7,269.1c0.7-1.1,2.3-1.5,3.4-1.8c1.2-0.3,2.5-0.2,3.7,0.4c2.6,1.4,3.1,5,2.5,7.6
		c-0.6,2.9-2.3,5.5-4.7,7.3c-2.3,1.8-5.6,3.5-8.5,2.1c-1.7-0.8-3.2,1.8-1.5,2.6c6,2.9,13.2-2,16.1-7.3c1.6-2.9,2.2-6.3,1.4-9.5
		c-0.6-3.1-3-5.5-6-6.2c-3.2-0.6-7.3,0.5-9.2,3.2C459,269.2,461.6,270.7,462.7,269.1L462.7,269.1z"/>
	<path class="st0" d="M434.3,286.9c-0.1,6.2,0.3,12.5,1.2,18.7c0.8,5.6,1.8,11.4,4.8,16.4c0.4,0.7,1.4,0.9,2.1,0.5
		c0.7-0.4,0.9-1.3,0.5-2c-2.8-4.7-3.7-10.3-4.5-15.7c-0.8-5.9-1.2-11.9-1.1-17.9C437.3,285,434.3,285,434.3,286.9z"/>
	<path class="st0" d="M466,286.5c-0.5,13.2-0.8,27,5.7,38.9c0.9,1.7,3.5,0.2,2.6-1.5c-6.2-11.4-5.7-24.8-5.3-37.4
		C469.1,284.6,466.1,284.6,466,286.5L466,286.5z"/>
	<path class="st1" d="M530.8,316.5c3.3,9.8,7.1,19.9,14.3,27.5c6.6,6.8,15.6,10.8,25,11.2c5.4,0.3,10.7-0.6,15.7-2.6
		c1.8-0.7,1-3.6-0.8-2.9c-8.2,3.3-17.4,3.3-25.7,0.1c-8.9-3.4-15.2-10.4-19.5-18.8c-2.4-5-4.5-10.1-6.1-15.4
		C533.1,313.9,530.2,314.7,530.8,316.5z"/>
	<path class="st1" d="M516.4,339.1c7.2,11.2,6.2,25.2,2.9,37.6c-3.7,13.6-10.8,26.1-14.6,39.7c-4,13.4-3.6,27.7,1.2,40.8
		c4.4,11.7,12.4,23.5,24.3,28.5c5.5,2.4,11.5,2.8,17.3,1.2c5.2-1.5,10.2-4.9,12.6-9.8c4.3-8.9-0.1-21.9-10.6-23.4
		c-6-0.9-11.5,2.2-15.6,6.4c-4.2,4.5-7.3,10-9.1,15.9c-4,11.9-4.3,24.8-0.8,36.8c3.3,11.5,11,21.3,21.3,27.3
		c9.6,5.4,21.3,7.6,32,4.7c2.7-0.7,5.2-1.7,7.7-3c1.7-0.9,0.2-3.5-1.5-2.6c-9.3,4.9-20.4,4.9-30.1,1.3c-10.3-3.7-18.7-11.2-23.5-21
		c-5.2-10.4-6.4-22.6-4.3-34c0.9-5.9,2.9-11.5,5.7-16.8c2.7-4.7,6.6-9.4,11.8-11.3c4.5-1.8,9.7-0.5,12.7,3.3
		c2.8,3.7,3.7,8.4,2.5,12.8c-2.9,10.6-16.4,13.4-25.5,10.1c-11.4-4.1-19.4-15.5-23.7-26.4c-4.7-12.2-5.4-25.5-2-38.1
		c3.4-13,9.9-25,14-37.8c3.7-11.4,5.6-24.4,1.7-36c-0.9-2.7-2.2-5.4-3.7-7.8C518,336.1,515.4,337.6,516.4,339.1L516.4,339.1z"/>
	<path class="st1" d="M325.9,274c-1.5-16.2-2.8-32.6-0.5-48.8c2.2-15.4,8.3-30,19.6-40.9c10.5-10.2,24.3-16.6,38.5-19.9
		c7.4-1.7,15.1-2.6,22.7-2.6c8.5,0,17.2,1.1,24.9,4.8c12.6,6,23.6,21.4,16.4,35.4c-3,5.9-8.8,10.9-15.6,11.3
		c-3.8,0.2-7.7-0.9-10-4.1c-2-2.9-2.8-6.6-3.3-10.1c-2.1-14.6,2.5-29.6,10.8-41.5c8.9-12.8,22.2-21.7,36.9-26.3
		c15.5-4.9,32.2-5.3,48-2.2c16.9,3.3,32.8,10.2,47.7,18.9c3.6,2.1,7.2,4.3,10.7,6.6c1.6,1.1,3.1-1.5,1.5-2.6
		c-15-9.9-31.2-18.3-48.6-23.3c-16.7-4.8-34.3-6.1-51.3-2.6c-16,3.3-31.3,11.1-42.3,23.4c-10.3,11.6-16.9,26.8-16.9,42.3
		c0,3.8,0.4,7.6,1.2,11.4c0.8,3.6,2.3,7.4,5.2,9.9c5.9,5.1,15.2,3.5,21.1-0.8c6-4.4,9.8-11.2,10.2-18.6c0.3-7.7-3.1-15.1-8.2-20.8
		c-11.7-13.2-30.8-15.3-47.4-13.8c-15.4,1.4-30.7,6-43.6,14.6c-6.4,4.2-12,9.3-16.8,15.3c-5,6.6-8.8,14-11.2,21.9
		c-5,16.3-4.8,33.7-3.7,50.6c0.3,4.2,0.7,8.3,1,12.5C323.1,275.9,326.1,275.9,325.9,274L325.9,274z"/>
	<g>
		<path class="st0" d="M677.2,369.6c-1.6-1.7-1.6-4.3,0-5.9c0.8-0.8,1.9-1.2,3-1.2s2.2,0.4,3,1.2c1.6,1.7,1.6,4.3,0,5.9
			c-0.8,0.8-1.9,1.2-3,1.2C679.1,370.8,678,370.4,677.2,369.6z"/>
	</g>
	<path class="st0" d="M661.2,562.6c-1.6-1.7-1.6-4.3,0-5.9c0.8-0.8,1.9-1.2,3-1.2s2.2,0.4,3,1.2c1.6,1.7,1.6,4.3,0,5.9
		c-0.8,0.8-1.9,1.2-3,1.2C663,563.8,661.9,563.4,661.2,562.6z"/>
	<path class="st0" d="M693,544.1c1.2,1.5,1.8,3.8,1.8,6.9v9.3c0.1,1-0.3,1.9-1,2.6c-1.7,1.3-3.9,1.3-5.6,0c-0.7-0.7-1.1-1.6-1-2.6
		v-9c0.1-1-0.2-1.9-0.7-2.8c-0.5-0.6-1.2-0.9-2-0.9c-1,0-2,0.4-2.7,1.1c-0.7,0.8-1.1,1.9-1,2.9v8.5c0.1,1-0.3,1.9-1,2.6
		c-1.7,1.3-3.9,1.3-5.6,0c-0.7-0.7-1.1-1.6-1-2.6v-14.9c0-0.9,0.4-1.8,1.1-2.5c0.8-0.7,1.8-1,2.8-1s1.9,0.3,2.6,0.9
		c0.7,0.6,1,1.5,1,2.4c0.7-1.1,1.7-1.9,2.9-2.5s2.6-0.9,3.9-0.9C689.6,541.7,691.6,542.6,693,544.1z"/>
	<path class="st0" d="M718.8,557.5c0.4,0.6,0.7,1.3,0.6,2c0,1.1-0.6,2.2-1.7,2.6c-1.1,0.5-2.3,0.9-3.5,1.2s-2.4,0.5-3.7,0.5
		c-2.1,0.1-4.2-0.4-6.2-1.3c-1.7-0.9-3.1-2.2-4-3.8c-1-1.8-1.5-3.8-1.4-5.8c0-2,0.4-3.9,1.4-5.7c0.9-1.6,2.2-3,3.8-3.9
		c1.7-0.9,3.6-1.4,5.5-1.4c1.8,0,3.6,0.4,5.2,1.3c1.5,0.9,2.7,2.1,3.5,3.7c0.8,1.7,1.3,3.6,1.2,5.5c0,0.5-0.1,1.1-0.5,1.5
		c-0.3,0.4-0.8,0.6-1.3,0.5h-11.4c0.1,1.1,0.5,2.2,1.3,3c0.9,0.6,1.9,1,3,0.9c0.7,0,1.3-0.1,2-0.2c0.7-0.2,1.3-0.4,2-0.7
		c0.4-0.2,0.9-0.3,1.3-0.5c0.4-0.1,0.8-0.2,1.1-0.2C717.8,556.7,718.4,557,718.8,557.5z M707.4,548c-0.7,0.8-1,1.8-1.1,2.8h6.8
		c-0.2-2.5-1.3-3.8-3.3-3.8C708.9,547,708,547.3,707.4,548z"/>
	<path class="st0" d="M738.7,560.9c0.1,0.9-0.4,1.8-1.2,2.2c-1,0.5-2.2,0.7-3.3,0.6l-1.2-0.1c-2.2,0-4.3-0.9-5.9-2.3
		c-1.4-1.6-2.1-3.6-2-5.7V548h-1.2c-2.3,0-3.4-0.9-3.4-2.8c0-1.9,1.1-2.8,3.4-2.8h1.2v-2.8c-0.1-1,0.3-1.9,1-2.6
		c1.6-1.3,3.9-1.3,5.6,0c0.7,0.7,1.1,1.6,1,2.6v2.8h2.4c2.3,0,3.4,0.9,3.4,2.8c0,1.9-1.1,2.8-3.4,2.8h-2.4v8.3c0,0.5,0.2,1,0.5,1.4
		s0.8,0.6,1.3,0.6l1.2,0.1C737.7,558.5,738.7,559.3,738.7,560.9z"/>
	<path class="st0" d="M226.1,294.9c-10.9,6.9-18.2,18.3-19.8,31.1c-1,7.3-1.1,14.6-3.5,21.7c-1.1,3.3-2.6,6.5-4.5,9.4
		c-1.8,3-4.1,5.6-6.2,8.5c-4.6,6.6-5.3,14.5-5.7,22.4c-0.1,1.9,2.9,1.9,3,0c0.3-6.6,0.7-13.6,4.3-19.4c1.8-2.9,4.2-5.5,6.1-8.4
		c1.9-2.8,3.5-5.9,4.7-9c2.7-6.6,3.5-13.4,4.2-20.5c0.6-6.6,1.9-12.9,5-18.7c3.3-6,8-11.1,13.9-14.7
		C229.2,296.4,227.7,293.8,226.1,294.9L226.1,294.9z"/>
	<path class="st0" d="M213.2,389.9c-1.1-8.4,2.6-16.3,6.9-23.3s9.6-13.7,12.6-21.5c1.7-4.3,2.4-8.9,2-13.6c-0.2-1.9-3.2-1.9-3,0
		c0.9,8.4-2.9,16.2-7.3,23.2s-9.6,13.7-12.5,21.6c-1.6,4.3-2.2,9-1.7,13.6C210.4,391.8,213.4,391.8,213.2,389.9L213.2,389.9z"/>
	<circle class="st1" cx="400.6" cy="133.4" r="4.1"/>
	<circle class="st1" cx="493.7" cy="479.6" r="4.1"/>
	<circle class="st1" cx="538.9" cy="363.6" r="4.1"/>
	<path class="st1" d="M317,188.1c8.4-21.1,26.7-37.7,48.1-44.9c6-2,12.2-3.3,18.5-3.7c1.9-0.1,1.9-3.1,0-3
		c-23.6,1.6-45.8,14.3-59.8,33.3c-4,5.4-7.3,11.3-9.7,17.5C313.4,189.1,316.3,189.9,317,188.1L317,188.1z"/>
	<path class="st1" d="M420.3,126.7c10-13.8,26.6-20.6,42.9-23.7c5.2-1,10.4-1.7,15.6-2.2c1.9-0.2,1.9-3.2,0-3
		c-18.1,1.9-36.7,5.6-51.3,17.2c-3.7,2.9-7,6.4-9.8,10.2C416.6,126.8,419.2,128.3,420.3,126.7L420.3,126.7z"/>
	<path class="st1" d="M493.7,495.9c0.6,12,3,24,8.5,34.8c5,10,12.9,18.2,22.8,23.4c5.4,2.8,11.3,4.4,17.4,4.7c1.9,0.1,1.9-2.9,0-3
		c-10.3-0.5-19.9-5.3-27.2-12.4c-7.9-7.7-12.9-17.7-15.7-28.3c-1.6-6.3-2.5-12.7-2.8-19.2C496.6,494,493.6,494,493.7,495.9
		L493.7,495.9z"/>
	<path class="st1" d="M551.1,370.2c10.3,6.2,22.8,7.3,34,2.9c1.8-0.7,1-3.6-0.8-2.9c-10.4,4.1-22.1,3.1-31.6-2.6
		C551,366.7,549.5,369.2,551.1,370.2L551.1,370.2z"/>
	<path class="st0" d="M650.4,181.1c-1.6-1.7-1.6-4.3,0-5.9c0.8-0.8,1.9-1.2,3-1.2s2.2,0.4,3,1.2c1.6,1.7,1.6,4.3,0,5.9
		c-0.8,0.8-1.9,1.2-3,1.2C652.3,182.3,651.2,181.9,650.4,181.1z"/>
	<path class="st0" d="M664,179.5c-2.1-2.1-3.2-5-3-7.9c0-2,0.5-4.1,1.5-5.9c1-1.7,2.4-3,4.1-3.9c1.9-0.9,3.9-1.4,6-1.4
		c1.2,0,2.4,0.2,3.6,0.5c1.1,0.3,2.2,0.7,3.2,1.3c0.9,0.5,1.4,1.5,1.3,2.5c0,0.8-0.2,1.5-0.6,2.2c-0.4,0.5-1,0.8-1.6,0.8
		c-0.4,0-0.8-0.1-1.2-0.2c-0.5-0.2-0.9-0.3-1.3-0.6c-0.5-0.2-1-0.4-1.5-0.6c-0.4-0.1-0.9-0.2-1.3-0.2c-2.8,0-4.3,1.7-4.3,5.2
		c-0.1,1.4,0.3,2.8,1.1,3.9c0.8,0.9,2,1.4,3.2,1.4c0.5,0,0.9-0.1,1.3-0.2c0.5-0.2,1-0.3,1.4-0.6c0.6-0.3,1-0.4,1.4-0.6
		c0.4-0.1,0.8-0.2,1.2-0.2c0.6,0,1.2,0.3,1.6,0.8c0.4,0.6,0.7,1.4,0.6,2.2c0,0.5-0.1,1-0.3,1.5c-0.2,0.4-0.5,0.8-0.9,1
		c-2.2,1.3-4.7,1.9-7.2,1.8C669.1,182.5,666.2,181.5,664,179.5z"/>
	<path class="st0" d="M688.9,181c-1.7-0.9-3.1-2.2-4.1-3.8c-1-1.8-1.5-3.8-1.4-5.9c-0.1-2,0.4-4.1,1.4-5.8c1-1.6,2.4-3,4.1-3.8
		c3.9-1.8,8.4-1.8,12.3,0c1.7,0.8,3.1,2.2,4.1,3.8c1,1.8,1.5,3.8,1.4,5.8c0,2-0.5,4.1-1.4,5.9c-1,1.6-2.4,3-4.1,3.8
		C697.3,182.8,692.8,182.8,688.9,181L688.9,181z M699.1,171.3c0-3.6-1.4-5.3-4.1-5.3s-4.1,1.8-4.1,5.3s1.4,5.3,4.1,5.3
		S699.1,174.9,699.1,171.3L699.1,171.3z"/>
	<path class="st0" d="M743.4,162.5c1.3,1.4,1.9,3.7,1.9,7v9.3c0.1,1-0.3,2-1.1,2.6c-1.6,1.2-3.8,1.2-5.5,0c-0.8-0.7-1.2-1.6-1.1-2.6
		v-9.5c0.1-0.8-0.1-1.7-0.6-2.4c-0.5-0.5-1.1-0.7-1.8-0.7c-0.9,0-1.8,0.4-2.4,1.1c-0.7,0.9-1,1.9-0.9,3v8.5c0.1,1-0.3,2-1.1,2.6
		c-1.6,1.2-3.8,1.2-5.5,0c-0.8-0.7-1.2-1.6-1.1-2.6v-9.5c0.1-0.8-0.1-1.7-0.6-2.4c-0.5-0.5-1.1-0.7-1.8-0.7c-0.9,0-1.8,0.4-2.4,1.1
		c-0.6,0.9-1,1.9-0.9,3v8.5c0.1,1-0.3,2-1.1,2.6c-1.6,1.2-3.8,1.2-5.5,0c-0.8-0.7-1.2-1.6-1.1-2.6v-14.9c-0.1-1,0.4-1.9,1.1-2.6
		c0.8-0.6,1.7-0.9,2.7-0.9c0.9,0,1.8,0.2,2.5,0.8s1.1,1.4,1,2.3c1.4-2.1,3.9-3.3,6.5-3.2c3.1,0,5.1,1.2,6.2,3.7
		c0.7-1.1,1.7-2.1,2.9-2.7c1.3-0.7,2.7-1,4.1-1C740,160.3,742,161,743.4,162.5z"/>
	<path class="st0" d="M663.8,112.4l31.7,0.1c0.8,0,1.5-0.7,1.5-1.5s-0.7-1.5-1.5-1.5l-31.7-0.1c-0.8,0-1.5,0.7-1.5,1.5
		S662.9,112.4,663.8,112.4z"/>
	<path class="st0" d="M764.3,109.3c0,1.9-0.3,3.9-0.1,5.8c0.1,1,0.1,2,0.9,2.7c1,0.6,2.2,0.8,3.3,0.7c5.6,0.1,11.2,0.1,16.7,0.1h4.2
		c1.2,0.1,2.4,0,3.6-0.2c2.6-0.7,2.2-3.5,2.1-5.6s0-4.9-2.5-5.6c-1.1-0.2-2.3-0.2-3.4-0.1l-4.4,0.1c-6.3,0.1-12.6,0.3-18.9,0.5
		c-1.9,0.1-1.9,3.1,0,3c4.5-0.1,9-0.3,13.5-0.4l6.6-0.2l3.2-0.1c0.6,0,2.4-0.3,2.8,0.2s0.2,1.9,0.2,2.5l0.1,1.6c0,0.2,0.2,1.1,0,1.2
		c-0.3,0.3-2.3,0.1-2.8,0.1h-3.7c-4.4,0-8.9,0-13.3-0.1c-1.2,0-2.5,0-3.7-0.1H768c-0.2,0-0.5,0-0.7-0.1c-0.3-0.1-0.3-0.1-0.1,0.2
		c0.2,0,0.1,0.3,0.1-0.1c0-0.2,0-0.4-0.1-0.7c-0.1-1.9,0.1-3.7,0.1-5.6c0-0.8-0.7-1.5-1.5-1.5S764.3,108.5,764.3,109.3L764.3,109.3
		L764.3,109.3z"/>
	<path class="st0" d="M615.4,104.9l-5.9,8.2c-0.4,0.7-0.2,1.6,0.5,2.1c0.7,0.4,1.6,0.1,2-0.5l5.9-8.2c0.4-0.7,0.1-1.6-0.5-2
		C616.7,104,615.8,104.3,615.4,104.9L615.4,104.9z"/>
	<path class="st0" d="M607.7,108.6l9.8,6.5c0.7,0.4,1.6,0.2,2.1-0.5c0.4-0.7,0.2-1.6-0.5-2.1c0,0-0.1,0-0.1-0.1l-9.8-6.5
		c-0.7-0.4-1.6-0.2-2.1,0.5C606.7,107.2,606.9,108.1,607.7,108.6C607.6,108.6,607.7,108.6,607.7,108.6L607.7,108.6z"/>
	<path class="st0" d="M750.6,92.5l-79.3,0.8l-39.5,0.4c-6.2,0.1-12.4,0.3-18.6,0.1c-5-0.2-10-0.1-13.1,4.4c-1.3,2-2,4.4-2.1,6.8
		c-0.3,3-0.4,5.9-0.5,8.9c-0.3,6.6-0.6,13.1-0.8,19.7c-0.4,13.1-0.7,26.3-0.7,39.4c0,13.3,0.1,26.5,0.3,39.8
		c0.1,4.9-0.7,11.4,4.1,14.4c3.5,2.3,8.3,1.7,12.4,1.7c14.8-0.1,29.7-0.2,44.5-0.4l54.5-0.4c15.8-0.1,31.7-0.2,47.5-0.4
		c7.4-0.1,14.8-0.2,22.2-0.4c5.8-0.1,11.9-0.4,17.5-1.9c2.5-0.5,4.8-2,6.2-4.2c1.4-2.4,1.8-5.2,2.1-7.9c0.8-6.5,0.5-13.1,0.4-19.6
		v-20l-0.1-39.7v-20v-9.7c0-2.7,0.5-6-1.6-8.1c-1.7-1.7-4.2-2.2-6.5-2.5c-3.1-0.4-6.3-0.6-9.5-0.8c-6.6-0.4-13.2-0.6-19.8-0.6
		c-6.4,0-12.9,0-19.3,0.1c-0.8,0-1.5,0.7-1.5,1.5s0.7,1.5,1.5,1.5l0,0c12.9-0.1,25.8-0.3,38.6,0.5c3.1,0.2,6.2,0.4,9.2,0.7
		c1.9,0.2,5.1,0.5,5.7,2.8c0.2,1.5,0.3,2.9,0.2,4.4v5v9.5l0.2,77.4c0,6.4,0.4,12.9-0.7,19.2c-0.4,2.4-0.9,5.2-3.1,6.6
		s-5.4,1.7-8,2.1c-5.7,0.7-11.5,1-17.2,0.9c-3.3,0-6.6,0.2-9.9,0.2l-42.9,0.4l-52.9,0.4c-15.7,0.1-31.5,0.2-47.2,0.4l-9.2,0.1h-4
		c-2.4,0-5.2,0.1-7.4-1.1s-2.6-3.5-2.7-5.7c-0.2-3-0.2-6.1-0.2-9.1c-0.1-6.4-0.2-12.8-0.3-19.1c-0.2-25.6,0.2-51.2,1.5-76.8
		c0.2-3,0.2-6.1,0.5-9.2c0.1-2.3,1-4.5,2.5-6.2c1.7-1.7,4-2.1,6.3-2.1c2.5-0.1,5,0.1,7.5,0.1l37.8-0.4l77-0.8l18.7-0.2
		c0.8-0.2,1.3-1,1.1-1.8C751.6,93,751.1,92.6,750.6,92.5z"/>
	<path class="st0" d="M663.8,301.3l31.7,0.1c0.8,0,1.5-0.7,1.5-1.5s-0.7-1.5-1.5-1.5l-31.7-0.1c-0.8,0-1.5,0.7-1.5,1.5
		S662.9,301.3,663.8,301.3z"/>
	<path class="st0" d="M764.3,298.2c0,1.9-0.3,3.9-0.1,5.8c0.1,1,0.1,2,0.9,2.7c1,0.6,2.2,0.8,3.3,0.7c5.6,0.1,11.2,0.1,16.7,0.1h4.2
		c1.2,0.1,2.4,0,3.6-0.2c2.6-0.7,2.2-3.5,2.1-5.6s0-4.9-2.5-5.6c-1.1-0.2-2.3-0.2-3.4-0.1l-4.4,0.1c-6.3,0.1-12.6,0.3-18.9,0.5
		c-1.9,0.1-1.9,3.1,0,3c4.5-0.1,9-0.3,13.5-0.4l6.6-0.1l3.2-0.1c0.6,0,2.4-0.3,2.8,0.2s0.2,1.9,0.2,2.5l0.1,1.6c0,0.2,0.2,1,0,1.2
		c-0.3,0.3-2.3,0.1-2.8,0.1h-3.7c-4.4,0-8.9,0-13.3-0.1c-1.2,0-2.5,0-3.7-0.1H768c-0.2,0-0.5,0-0.7-0.1c-0.3-0.1-0.3-0.1-0.1,0.1
		c0.2,0,0.1,0.4,0.1-0.1c0-0.2,0-0.4-0.1-0.7c-0.1-1.9,0.1-3.7,0.1-5.6c0-0.8-0.7-1.5-1.5-1.5S764.3,297.4,764.3,298.2L764.3,298.2z
		"/>
	<path class="st0" d="M615.4,293.8l-5.9,8.2c-0.4,0.7-0.1,1.6,0.6,2c0.7,0.4,1.6,0.1,2-0.5l5.9-8.2c0.4-0.7,0.2-1.6-0.5-2
		C616.7,292.9,615.8,293.1,615.4,293.8L615.4,293.8z"/>
	<path class="st0" d="M607.7,297.5l9.8,6.5c0.7,0.4,1.6,0.1,2-0.6s0.1-1.6-0.5-2l-9.8-6.5c-0.7-0.4-1.6-0.2-2,0.5
		C606.7,296.2,607,297.1,607.7,297.5z"/>
	<path class="st0" d="M750.6,281.4l-80.3,0.8l-39.8,0.4l-9.9,0.1c-2.9,0-5.9,0-8.8,0.2c-3.7,0.3-7.6,1.1-10.4,3.8
		c-3.3,3.3-3.5,7.9-3.8,12.3c-0.4,6.6-0.7,13.2-0.9,19.8c-0.5,13.2-0.8,26.5-0.8,39.7c-0.1,13.5,0,26.9,0.3,40.4
		c0.1,3.1,0,6.2,0.2,9.4c0,2.4,0.8,4.7,2.2,6.6c3.1,3.6,8.5,3.2,12.8,3.1l44.2-0.4l54.6-0.4l48.3-0.4c7.2-0.1,14.4-0.2,21.5-0.4
		c6,0,12-0.6,17.9-1.7c2.5-0.6,5-1.5,6.7-3.7s2.1-5.1,2.5-7.8c0.9-6.4,0.6-13,0.6-19.5v-20l-0.1-40v-20.2v-10c0-2.8,0.5-6.2-1.6-8.4
		c-1.7-1.7-4.2-2.2-6.5-2.5c-3.1-0.4-6.3-0.6-9.5-0.8c-6.6-0.4-13.2-0.5-19.8-0.6c-6.4,0-12.9,0-19.3,0.1c-0.8,0-1.5,0.7-1.5,1.5
		s0.7,1.5,1.5,1.5c12.9-0.1,25.8-0.3,38.6,0.5c3.2,0.2,6.4,0.4,9.6,0.7c2,0.2,4.9,0.6,5.4,2.9c0.2,1.6,0.2,3.1,0.1,4.7v5v9.5
		l0.2,77.9c0,6.4,0.4,12.9-0.8,19.1c-0.5,2.5-1.3,4.9-3.8,6.1s-5.4,1.4-8.1,1.8c-5.6,0.6-11.2,0.8-16.8,0.8c-3.3,0.1-6.6,0.2-10,0.2
		l-43.6,0.4l-53.3,0.4l-47.1,0.4l-8.9,0.1c-3.6,0-9.3,0.9-11.7-2.5c-1.4-2-1.2-4.8-1.2-7.1c-0.1-3.1-0.1-6.3-0.2-9.5
		c-0.1-6.5-0.2-13-0.2-19.4c-0.2-25.8,0.3-51.6,1.7-77.4c0.2-3.9,0.3-8.4,3.8-10.9c3.1-2.2,7.2-2.3,10.8-2.3l38.7-0.4l77.8-0.8
		l19-0.2c0.8-0.1,1.4-0.9,1.3-1.7C751.8,282,751.3,281.5,750.6,281.4z"/>
	<path class="st0" d="M663.8,490.2l31.7,0.1c0.8,0,1.5-0.7,1.5-1.5s-0.7-1.5-1.5-1.5l-31.7-0.1c-0.8,0-1.5,0.7-1.5,1.5
		S662.9,490.2,663.8,490.2z"/>
	<path class="st0" d="M764.3,487.1c0,2-0.3,3.9-0.1,5.8c0.1,1,0.1,2,0.9,2.7c1,0.6,2.2,0.8,3.3,0.7c5.6,0.1,11.2,0.1,16.7,0.1h4.2
		c1.2,0.1,2.4,0,3.6-0.2c2.6-0.7,2.2-3.5,2.1-5.6s0-4.9-2.5-5.6c-1.1-0.2-2.3-0.2-3.4-0.1l-4.4,0.1c-6.3,0.1-12.6,0.3-18.9,0.5
		c-1.9,0.1-1.9,3.1,0,3c4.5-0.1,9-0.3,13.5-0.4l6.6-0.1l3.2-0.1c0.6,0,2.4-0.3,2.8,0.2s0.2,1.9,0.2,2.5l0.1,1.6c0,0.2,0.2,1,0,1.2
		c-0.3,0.3-2.3,0.1-2.8,0.1h-3.7c-4.4,0-8.9,0-13.3-0.1l-3.7-0.1H768c-0.2,0-0.5,0-0.7-0.1c-0.3-0.1-0.3-0.1-0.1,0.1
		c0.2,0,0.1,0.4,0.1-0.1c0-0.2,0-0.4-0.1-0.7c-0.1-1.9,0.1-3.7,0.1-5.6S764.3,485.2,764.3,487.1L764.3,487.1z"/>
	<path class="st0" d="M615.4,482.7l-5.9,8.2c-0.4,0.7-0.2,1.6,0.5,2.1c0.7,0.4,1.6,0.1,2-0.5l5.9-8.2c0.4-0.7,0.1-1.6-0.5-2
		C616.7,481.8,615.8,482.1,615.4,482.7L615.4,482.7z"/>
	<path class="st0" d="M607.7,486.4l9.8,6.5c0.7,0.4,1.6,0.1,2-0.6s0.1-1.6-0.5-2l-9.8-6.5c-0.7-0.4-1.6-0.2-2,0.5
		C606.7,485.1,607,486,607.7,486.4z"/>
	<path class="st0" d="M750.6,470.3l-80.1,0.8l-39.9,0.4c-5.7,0.1-11.4-0.1-17.1,0.3c-4.2,0.3-8.4,1.1-11.7,3.9
		c-4,3.5-4.9,9.3-5,14.3c-0.1,3,0.2,6,0.1,9c0,3.2-0.2,6.5-0.3,9.7c-0.5,13.3-0.7,26.6-0.8,39.9s0,26.6,0.3,40.1
		c0.1,3,0,6.1,0.3,9.1c0.1,2.4,1,4.7,2.7,6.4c3.3,3.1,8.5,2.6,12.7,2.6l44.1-0.4l54.8-0.4l48-0.4c7.3-0.1,14.5-0.2,21.8-0.4
		c5.9,0,11.8-0.6,17.6-1.8c2.5-0.6,5-1.6,6.6-3.8s2-5,2.4-7.7c0.9-6.4,0.6-13,0.6-19.5v-20.2l-0.1-40.2v-20v-10c0-2.7,0.5-6-1.6-8.1
		c-1.7-1.7-4.2-2.2-6.5-2.5c-3.1-0.4-6.3-0.6-9.5-0.8c-6.6-0.4-13.2-0.5-19.8-0.6c-6.4,0-12.9,0-19.3,0.1c-0.8,0-1.5,0.7-1.5,1.5
		s0.7,1.5,1.5,1.5c12.9-0.1,25.8-0.3,38.6,0.5c3.1,0.2,6.3,0.4,9.4,0.7c2,0.2,5.1,0.6,5.6,3c0.2,1.4,0.2,2.8,0.1,4.2v5.2v9.7
		l0.2,77.9c0,6.3,0.4,12.7-0.8,18.9c-0.5,2.5-1.1,4.9-3.5,6.2s-5.5,1.5-8.2,1.9c-5.6,0.6-11.3,0.9-17,0.8c-3.3,0.1-6.6,0.2-9.9,0.2
		c-14.5,0.1-29,0.2-43.5,0.3l-53.3,0.4l-47,0.4l-8.9,0.1c-1.6,0-3.2,0.1-4.8,0c-2.3,0-5.2-0.2-6.8-2s-1.6-4.4-1.7-6.7
		c-0.1-3.2-0.1-6.3-0.2-9.5c-0.1-6.5-0.2-12.9-0.2-19.4c-0.1-12.9,0-25.9,0.3-38.8c0.1-6.4,0.3-12.9,0.5-19.3
		c0.1-3.1,0.3-6.1,0.3-9.2s-0.2-6-0.1-9c0.1-4.7,0.9-10.3,5.3-13c3.4-2.1,7.6-2.2,11.5-2.3c12.6-0.2,25.2-0.3,37.7-0.4l77.4-0.8
		l18.9-0.2c0.8-0.2,1.3-1.1,1-1.9C751.5,470.8,751.1,470.4,750.6,470.3z"/>
</g>
</svg>
