<svg id="iconmonstr" xmlns="http://www.w3.org/2000/svg" viewBox="0 0 300 300"><defs><style>.cls-1,.cls-2{fill:#eb6041;}.cls-2,.cls-3{stroke:#eb6041;stroke-miterlimit:10;}.cls-2{stroke-width:4px;}.cls-3{fill:none;stroke-width:8px;}</style></defs><title>Text_v2</title><path class="cls-1" d="M76,296.94a17.69,17.69,0,0,1-17.67-17.67V20.67A17.69,17.69,0,0,1,76,3H231.17a17.69,17.69,0,0,1,17.67,17.67v258.6a17.69,17.69,0,0,1-17.67,17.67ZM82.48,12.48A14.67,14.67,0,0,0,67.82,27.13V272.8a14.68,14.68,0,0,0,14.66,14.66H224.71a14.67,14.67,0,0,0,14.65-14.66V27.13a14.66,14.66,0,0,0-14.65-14.65Z"/><path class="cls-2" d="M153.59,261.15a7.74,7.74,0,1,1,7.73-7.74A7.75,7.75,0,0,1,153.59,261.15Z"/><rect class="cls-3" x="94.13" y="64.65" width="118.92" height="157.71" rx="10.05"/><path class="cls-2" d="M134.2,41.34a1.28,1.28,0,1,1,0-2.55H173a1.28,1.28,0,0,1,0,2.55Z"/></svg>