<?xml version="1.0" encoding="utf-8"?>
<!-- Generator: Adobe Illustrator 24.3.0, SVG Export Plug-In . SVG Version: 6.00 Build 0)  -->
<svg version="1.1" id="Layer_1" xmlns="http://www.w3.org/2000/svg" xmlns:xlink="http://www.w3.org/1999/xlink" x="0px" y="0px"
	 viewBox="0 0 80 80" style="enable-background:new 0 0 80 80;" xml:space="preserve">
<style type="text/css">
	.st0{fill:#FF5850;}
</style>
<path class="st0" d="M39.9,0.1C17.8,0.1-0.1,18-0.1,40c0,22.1,17.9,40,39.9,40c22.1,0,40-17.9,40-39.9c0,0,0,0,0,0
	C79.8,18,61.9,0.1,39.9,0.1z M4,40C4,35,5,30,7.1,25.4l17.1,46.9C11.8,66.4,4,53.8,4,40z M39.9,76c-3.4,0-6.9-0.5-10.1-1.5
	l10.8-31.3l11,30.2c0.1,0.2,0.2,0.3,0.3,0.5C48,75.3,44,76,39.9,76z M44.8,23.2c2.2-0.1,4.1-0.3,4.1-0.3c0.8-0.1,1.4-0.8,1.4-1.6
	c-0.1-0.8-0.8-1.4-1.6-1.4l0,0c0,0-5.8,0.5-9.6,0.5c-3.5,0-9.4-0.5-9.4-0.5c-0.8-0.1-1.5,0.6-1.6,1.4c0,0.8,0.5,1.5,1.3,1.6
	c0,0,1.8,0.2,3.8,0.3l5.6,15.3L31,62.1L17.9,23.2c2.2-0.1,4.1-0.3,4.1-0.3c0.8-0.1,1.4-0.8,1.4-1.6c-0.1-0.8-0.8-1.4-1.6-1.4l0,0
	c0,0-5.8,0.5-9.6,0.5H9.9C20.8,3.8,43-0.8,59.6,10.1c1.6,1.1,3.1,2.2,4.6,3.6h-0.5c-3.4,0.1-6.1,2.9-6,6.4c0,3,1.7,5.5,3.5,8.4
	c1.9,3,2.9,6.4,3,9.9c0,3.1-1.2,6.6-2.7,11.6l-3.6,11.9L44.8,23.2z M71.4,22.8c9.3,17.1,3.4,38.5-13.4,48.3l11-31.7
	c1.7-4.1,2.6-8.4,2.7-12.9C71.6,25.3,71.6,24.1,71.4,22.8z"/>
</svg>
